<svg xmlns="http://www.w3.org/2000/svg" xmlns:xlink="http://www.w3.org/1999/xlink" width="500" zoomAndPan="magnify" viewBox="0 0 375 374.999991" height="500" preserveAspectRatio="xMidYMid meet" version="1.0"><defs><g/><clipPath id="52b9662167"><path d="M 86.703125 238 L 288.453125 238 L 288.453125 240 L 86.703125 240 Z M 86.703125 238 " clip-rule="nonzero"/></clipPath><clipPath id="9a1c2a0bdc"><path d="M 86.703125 238 L 135 238 L 135 240 L 86.703125 240 Z M 86.703125 238 " clip-rule="nonzero"/></clipPath><clipPath id="84e93cb127"><path d="M 131 235.84375 L 138 235.84375 L 138 243 L 131 243 Z M 131 235.84375 " clip-rule="nonzero"/></clipPath><clipPath id="b6d20c8d6f"><path d="M 274 261 L 288.453125 261 L 288.453125 274 L 274 274 Z M 274 261 " clip-rule="nonzero"/></clipPath><clipPath id="bca8f4f2b9"><path d="M 281 269 L 288.453125 269 L 288.453125 276 L 281 276 Z M 281 269 " clip-rule="nonzero"/></clipPath><clipPath id="bffa3459a2"><path d="M 181 258 L 188 258 L 188 277.09375 L 181 277.09375 Z M 181 258 " clip-rule="nonzero"/></clipPath><clipPath id="7544f5ab19"><path d="M 192 258 L 199 258 L 199 277.09375 L 192 277.09375 Z M 192 258 " clip-rule="nonzero"/></clipPath><clipPath id="eeee2ce8bd"><path d="M 243.429688 79.617188 L 286.929688 79.617188 L 286.929688 227.367188 L 243.429688 227.367188 Z M 243.429688 79.617188 " clip-rule="nonzero"/></clipPath></defs><g fill="#8c52ff" fill-opacity="1"><g transform="translate(17.492821, 222.097555)"><g><path d="M 30.234375 0 C 27.765625 0 25.472656 -0.867188 23.359375 -2.609375 L 4.8125 -18.546875 C 3.4375 -19.785156 2.75 -21.253906 2.75 -22.953125 L 2.75 -54.96875 L 13.75 -54.96875 L 13.75 -25.421875 L 30.234375 -11.203125 L 46.734375 -25.421875 L 46.734375 -54.96875 L 57.71875 -54.96875 L 57.65625 -22.953125 C 57.65625 -21.210938 56.988281 -19.742188 55.65625 -18.546875 L 37.109375 -2.609375 C 35.085938 -0.867188 32.796875 0 30.234375 0 Z M 30.234375 0 "/></g></g></g><g fill="#8c52ff" fill-opacity="1"><g transform="translate(94.933179, 222.097555)"><g><path d="M 57.71875 0 L 2.75 0 L 2.75 -11 L 24.734375 -11 L 24.734375 -43.984375 L 2.75 -43.984375 L 2.75 -54.96875 L 57.71875 -54.96875 L 57.71875 -43.984375 L 35.734375 -43.984375 L 35.734375 -11 L 57.71875 -11 Z M 57.71875 0 "/></g></g></g><g fill="#8c52ff" fill-opacity="1"><g transform="translate(172.373537, 222.097555)"><g><path d="M 57.71875 -43.984375 L 57.71875 -32.984375 C 57.71875 -31.472656 57.179688 -30.175781 56.109375 -29.09375 C 55.035156 -28.019531 53.738281 -27.484375 52.21875 -27.484375 C 53.738281 -27.484375 55.035156 -26.941406 56.109375 -25.859375 C 57.179688 -24.785156 57.71875 -23.492188 57.71875 -21.984375 L 57.71875 -11 C 57.71875 -9.03125 57.222656 -7.207031 56.234375 -5.53125 C 55.253906 -3.863281 53.941406 -2.523438 52.296875 -1.515625 C 50.648438 -0.503906 48.796875 0 46.734375 0 L 2.75 0 L 2.75 -54.96875 L 46.734375 -54.96875 C 48.796875 -54.96875 50.648438 -54.460938 52.296875 -53.453125 C 53.941406 -52.453125 55.253906 -51.125 56.234375 -49.46875 C 57.222656 -47.820312 57.71875 -45.992188 57.71875 -43.984375 Z M 46.734375 -43.984375 L 13.75 -43.984375 L 13.75 -32.984375 L 46.734375 -32.984375 Z M 13.75 -11 L 46.734375 -11 L 46.734375 -21.984375 L 13.75 -21.984375 Z M 13.75 -11 "/></g></g></g><g fill="#8c52ff" fill-opacity="1"><g transform="translate(249.813885, 222.097555)"><g/></g></g><g fill="#8c52ff" fill-opacity="1"><g transform="translate(297.022772, 222.097555)"><g><path d="M 13.75 0 L 2.75 0 L 2.75 -49.484375 C 2.75 -50.992188 3.285156 -52.285156 4.359375 -53.359375 C 5.441406 -54.429688 6.738281 -54.96875 8.25 -54.96875 C 9.757812 -54.96875 11.0625 -54.421875 12.15625 -53.328125 L 46.734375 -18.765625 L 46.734375 -54.96875 L 57.71875 -54.96875 L 57.71875 -5.5 C 57.71875 -3.988281 57.179688 -2.691406 56.109375 -1.609375 C 55.035156 -0.535156 53.738281 0 52.21875 0 C 50.707031 0 49.40625 -0.550781 48.3125 -1.65625 L 13.75 -36.21875 Z M 13.75 0 "/></g></g></g><g clip-path="url(#52b9662167)"><path fill="#ffffff" d="M 86.683594 238.25 L 288.253906 238.25 L 288.253906 239.847656 L 86.683594 239.847656 Z M 86.683594 238.25 " fill-opacity="1" fill-rule="nonzero"/></g><g clip-path="url(#9a1c2a0bdc)"><path fill="#8c52ff" d="M 86.683594 238.238281 L 134.3125 238.238281 L 134.3125 239.863281 L 86.683594 239.863281 Z M 86.683594 238.238281 " fill-opacity="1" fill-rule="nonzero"/></g><g clip-path="url(#84e93cb127)"><path fill="#8c52ff" d="M 137.476562 239.046875 C 137.476562 239.46875 137.394531 239.871094 137.234375 240.261719 C 137.074219 240.648438 136.847656 240.992188 136.550781 241.289062 C 136.253906 241.582031 135.910156 241.8125 135.523438 241.972656 C 135.132812 242.132812 134.730469 242.214844 134.3125 242.214844 C 133.890625 242.214844 133.488281 242.132812 133.097656 241.972656 C 132.710938 241.8125 132.367188 241.582031 132.070312 241.289062 C 131.773438 240.992188 131.546875 240.648438 131.386719 240.261719 C 131.226562 239.871094 131.144531 239.46875 131.144531 239.046875 C 131.144531 238.628906 131.226562 238.226562 131.386719 237.835938 C 131.546875 237.449219 131.773438 237.105469 132.070312 236.808594 C 132.367188 236.511719 132.710938 236.285156 133.097656 236.125 C 133.488281 235.960938 133.890625 235.882812 134.3125 235.882812 C 134.730469 235.882812 135.132812 235.960938 135.523438 236.125 C 135.910156 236.285156 136.253906 236.511719 136.550781 236.808594 C 136.847656 237.105469 137.074219 237.449219 137.234375 237.835938 C 137.394531 238.226562 137.476562 238.628906 137.476562 239.046875 Z M 137.476562 239.046875 " fill-opacity="1" fill-rule="nonzero"/></g><path fill="#ffffff" d="M 245.519531 260.648438 C 245.21875 260.777344 245.046875 261.097656 245.046875 261.421875 L 245.046875 267.675781 L 236.273438 262.160156 C 235.082031 261.417969 233.539062 262.265625 233.539062 263.671875 L 233.539062 273.574219 C 233.539062 274.980469 235.082031 275.828125 236.273438 275.085938 L 245.046875 269.570312 L 245.046875 275.824219 C 245.046875 276.152344 245.21875 276.472656 245.519531 276.597656 C 246.125 276.84375 246.699219 276.410156 246.699219 275.839844 L 246.699219 261.402344 C 246.699219 260.835938 246.125 260.402344 245.519531 260.648438 Z M 245.519531 260.648438 " fill-opacity="1" fill-rule="nonzero"/><path fill="#ffffff" d="M 136.816406 276.597656 C 137.117188 276.46875 137.292969 276.148438 137.292969 275.824219 L 137.292969 269.570312 L 146.066406 275.085938 C 147.253906 275.828125 148.796875 274.980469 148.796875 273.574219 L 148.796875 263.671875 C 148.796875 262.265625 147.253906 261.417969 146.066406 262.160156 L 137.292969 267.675781 L 137.292969 261.421875 C 137.292969 261.09375 137.117188 260.773438 136.816406 260.648438 C 136.214844 260.402344 135.636719 260.835938 135.636719 261.40625 L 135.636719 275.84375 C 135.640625 276.410156 136.21875 276.84375 136.816406 276.597656 Z M 136.816406 276.597656 " fill-opacity="1" fill-rule="nonzero"/><g clip-path="url(#b6d20c8d6f)"><path fill="#ffffff" d="M 275.097656 273.472656 C 274.785156 273.472656 274.582031 273.445312 274.554688 273.445312 C 274.210938 273.402344 273.96875 273.085938 274.015625 272.742188 C 274.058594 272.398438 274.375 272.15625 274.71875 272.199219 C 274.738281 272.199219 276.597656 272.414062 277.59375 271.269531 C 277.921875 270.886719 278.375 270.273438 278.898438 269.566406 C 280.347656 267.605469 282.148438 265.164062 283.554688 264.613281 C 284.410156 264.28125 285.332031 264.238281 286.097656 264.296875 L 285.097656 263.011719 C 285.007812 262.894531 284.964844 262.765625 284.964844 262.625 C 284.964844 262.441406 285.050781 262.257812 285.210938 262.128906 C 285.484375 261.917969 285.875 261.964844 286.09375 262.242188 L 288.09375 264.816406 C 288.183594 264.929688 288.226562 265.074219 288.226562 265.214844 C 288.226562 265.265625 288.222656 265.304688 288.207031 265.355469 C 288.179688 265.449219 288.136719 265.539062 288.070312 265.617188 C 288.058594 265.632812 288.042969 265.644531 288.027344 265.660156 L 285.839844 267.753906 C 285.589844 267.992188 285.1875 267.984375 284.949219 267.730469 C 284.710938 267.484375 284.71875 267.082031 284.972656 266.84375 L 286.292969 265.582031 C 285.625 265.503906 284.765625 265.496094 284.015625 265.789062 C 282.945312 266.203125 281.117188 268.679688 279.914062 270.3125 C 279.375 271.042969 278.910156 271.675781 278.542969 272.09375 C 277.496094 273.296875 275.921875 273.472656 275.097656 273.472656 Z M 275.097656 273.472656 " fill-opacity="1" fill-rule="nonzero"/></g><g clip-path="url(#bca8f4f2b9)"><path fill="#ffffff" d="M 285.511719 275.25 C 285.375 275.25 285.242188 275.207031 285.125 275.117188 C 284.964844 274.996094 284.882812 274.808594 284.882812 274.621094 C 284.882812 274.480469 284.925781 274.351562 285.015625 274.234375 L 286.011719 272.949219 C 285.246094 273.007812 284.328125 272.964844 283.46875 272.632812 C 282.847656 272.390625 282.132812 271.796875 281.230469 270.765625 C 281.003906 270.507812 281.023438 270.109375 281.289062 269.878906 C 281.546875 269.652344 281.941406 269.671875 282.175781 269.9375 C 283.105469 270.992188 283.644531 271.347656 283.929688 271.457031 C 284.6875 271.75 285.542969 271.742188 286.207031 271.664062 L 284.886719 270.402344 C 284.636719 270.164062 284.628906 269.761719 284.867188 269.511719 C 285.105469 269.265625 285.503906 269.253906 285.753906 269.492188 L 287.945312 271.589844 C 288.179688 271.8125 288.207031 272.171875 288.011719 272.425781 L 286.007812 275 C 285.878906 275.167969 285.695312 275.25 285.511719 275.25 Z M 285.511719 275.25 " fill-opacity="1" fill-rule="nonzero"/></g><path fill="#ffffff" d="M 278.945312 267.5625 C 278.753906 267.5625 278.566406 267.472656 278.4375 267.308594 C 278.183594 266.964844 278.027344 266.71875 277.898438 266.523438 C 277.757812 266.304688 277.667969 266.164062 277.507812 265.976562 C 276.503906 264.816406 274.65625 265.042969 274.632812 265.046875 C 274.289062 265.089844 273.972656 264.851562 273.929688 264.507812 C 273.882812 264.164062 274.125 263.847656 274.46875 263.804688 C 274.570312 263.792969 277.011719 263.492188 278.453125 265.160156 C 278.671875 265.40625 278.796875 265.609375 278.953125 265.839844 C 279.078125 266.03125 279.214844 266.246094 279.449219 266.5625 C 279.65625 266.84375 279.597656 267.234375 279.316406 267.441406 C 279.207031 267.527344 279.074219 267.5625 278.945312 267.5625 Z M 278.945312 267.5625 " fill-opacity="1" fill-rule="nonzero"/><path fill="#ffffff" d="M 104.46875 268.992188 C 104.433594 268.652344 104.136719 268.398438 103.796875 268.433594 C 103.464844 268.46875 103.222656 268.769531 103.253906 269.101562 C 103.410156 270.617188 102.914062 272.191406 101.753906 273.351562 C 99.710938 275.390625 96.394531 275.390625 94.351562 273.351562 L 93.886719 272.839844 L 95.457031 272.839844 C 95.785156 272.839844 96.054688 272.574219 96.054688 272.242188 C 96.054688 271.914062 95.789062 271.644531 95.457031 271.644531 L 92.582031 271.644531 C 92.386719 271.589844 92.164062 271.644531 92.011719 271.796875 C 92.007812 271.800781 92.007812 271.800781 92 271.808594 C 91.996094 271.8125 91.996094 271.8125 91.988281 271.816406 C 91.882812 271.921875 91.816406 272.078125 91.816406 272.242188 L 91.816406 275.210938 C 91.816406 275.539062 92.078125 275.808594 92.414062 275.808594 C 92.742188 275.808594 93.011719 275.542969 93.011719 275.210938 L 93.011719 273.65625 L 93.496094 274.210938 C 96.070312 276.785156 100.304688 276.726562 102.800781 274.027344 C 104.09375 272.632812 104.652344 270.777344 104.46875 268.992188 Z M 104.46875 268.992188 " fill-opacity="1" fill-rule="nonzero"/><path fill="#ffffff" d="M 92.757812 270.199219 C 92.660156 268.753906 93.167969 267.265625 94.273438 266.164062 C 96.3125 264.121094 99.632812 264.121094 101.671875 266.164062 L 102.136719 266.675781 L 100.570312 266.675781 C 100.242188 266.675781 99.972656 266.941406 99.972656 267.273438 C 99.972656 267.601562 100.234375 267.871094 100.570312 267.871094 L 103.445312 267.871094 C 103.640625 267.921875 103.859375 267.871094 104.015625 267.714844 C 104.019531 267.710938 104.019531 267.710938 104.023438 267.707031 C 104.03125 267.699219 104.03125 267.699219 104.035156 267.695312 C 104.140625 267.589844 104.210938 267.4375 104.210938 267.273438 L 104.210938 264.300781 C 104.210938 263.972656 103.945312 263.703125 103.613281 263.703125 C 103.285156 263.703125 103.015625 263.96875 103.015625 264.300781 L 103.015625 265.855469 L 102.53125 265.300781 C 99.957031 262.726562 95.722656 262.785156 93.226562 265.484375 C 91.988281 266.824219 91.425781 268.5625 91.53125 270.269531 C 91.550781 270.617188 91.859375 270.882812 92.207031 270.84375 C 92.539062 270.808594 92.777344 270.527344 92.757812 270.199219 Z M 92.757812 270.199219 " fill-opacity="1" fill-rule="nonzero"/><g clip-path="url(#bffa3459a2)"><path fill="#ffffff" d="M 184.171875 277.414062 C 182.511719 277.414062 181.171875 276.074219 181.171875 274.414062 L 181.171875 261.292969 C 181.171875 259.636719 182.511719 258.292969 184.171875 258.292969 C 185.832031 258.292969 187.175781 259.636719 187.175781 261.292969 L 187.175781 274.414062 C 187.179688 276.066406 185.832031 277.414062 184.171875 277.414062 Z M 184.171875 277.414062 " fill-opacity="1" fill-rule="nonzero"/></g><g clip-path="url(#7544f5ab19)"><path fill="#ffffff" d="M 195.578125 277.414062 C 193.917969 277.414062 192.578125 276.074219 192.578125 274.414062 L 192.578125 261.292969 C 192.578125 259.636719 193.917969 258.292969 195.578125 258.292969 C 197.238281 258.292969 198.582031 259.636719 198.582031 261.292969 L 198.582031 274.414062 C 198.582031 276.066406 197.234375 277.414062 195.578125 277.414062 Z M 195.578125 277.414062 " fill-opacity="1" fill-rule="nonzero"/></g><g clip-path="url(#eeee2ce8bd)"><path fill="#8c52ff" d="M 287.128906 218.671875 C 286.980469 220.105469 286.617188 221.421875 286.144531 222.269531 C 285.550781 223.328125 284.136719 224.835938 283.234375 225.378906 C 282.546875 225.789062 281.546875 226.15625 280.320312 226.453125 C 278.019531 227 276.160156 227.167969 273.132812 227.097656 C 270.851562 227.046875 269.730469 226.96875 267.304688 226.691406 C 266.179688 226.5625 265.609375 226.527344 265.511719 226.578125 C 265.335938 226.671875 265.324219 226.910156 265.484375 227.042969 C 265.644531 227.175781 265.632812 227.386719 265.464844 227.539062 C 265.285156 227.699219 265.164062 227.71875 264.722656 227.648438 C 264.085938 227.546875 263.71875 227.09375 264.105469 226.886719 C 264.28125 226.792969 264.316406 226.472656 264.164062 226.355469 C 264.109375 226.316406 263.390625 226.144531 262.566406 225.980469 C 256.535156 224.769531 253.183594 223.582031 250.226562 221.59375 C 248.019531 220.113281 246.71875 218.683594 245.253906 216.125 C 243.996094 213.929688 243.453125 212.007812 243.449219 209.742188 C 243.445312 207.839844 243.878906 205.5625 244.617188 203.636719 C 245.003906 202.621094 247.160156 198.011719 247.824219 196.78125 C 248.800781 194.96875 249.929688 192 250.269531 190.355469 C 250.464844 189.398438 250.5625 188.019531 250.507812 186.941406 C 250.429688 185.371094 250.167969 184.234375 249.085938 180.824219 C 248.273438 178.253906 247.6875 175.546875 247.464844 173.332031 C 247.316406 171.863281 247.402344 169.472656 247.65625 168.152344 C 247.980469 166.429688 248.359375 165.308594 249 164.136719 C 249.660156 162.941406 250.519531 162.144531 251.449219 161.875 C 251.976562 161.71875 252.074219 161.609375 252.007812 161.226562 C 251.882812 160.515625 251.898438 160.457031 252.199219 160.433594 C 252.351562 160.421875 252.652344 160.460938 252.867188 160.515625 C 253.351562 160.636719 253.421875 160.84375 253.113281 161.214844 C 252.847656 161.527344 252.835938 161.941406 253.085938 162.132812 C 253.792969 162.6875 254.203125 163.375 254.433594 164.402344 C 254.5 164.707031 254.683594 166.082031 254.835938 167.457031 C 255.117188 169.957031 255.242188 170.75 255.457031 171.355469 C 255.816406 172.363281 256.578125 173.472656 257.199219 173.878906 C 257.636719 174.171875 258.355469 174.390625 258.863281 174.390625 C 259.292969 174.390625 259.96875 174.183594 260.316406 173.949219 L 260.597656 173.757812 L 261.96875 106.292969 C 261.667969 105.496094 260.78125 104.730469 259.726562 104.359375 C 259.082031 104.132812 258.84375 104 258.703125 103.78125 C 258.433594 103.371094 258.433594 103.167969 258.710938 101.90625 C 258.992188 100.625 259.027344 100.300781 258.902344 100.222656 C 258.863281 100.199219 258.628906 100.230469 258.382812 100.292969 C 258.011719 100.390625 257.847656 100.496094 257.371094 100.960938 C 256.742188 101.570312 256.472656 101.675781 255.933594 101.53125 C 255.425781 101.394531 254.960938 100.765625 254.960938 100.214844 C 254.960938 100.085938 254.855469 99.886719 254.6875 99.703125 C 254.402344 99.390625 254.265625 98.871094 254.359375 98.488281 C 254.433594 98.199219 254.851562 97.753906 255.160156 97.644531 C 255.308594 97.589844 255.453125 97.476562 255.480469 97.394531 C 255.574219 97.101562 256.074219 96.632812 256.386719 96.550781 C 257.035156 96.375 257.617188 96.703125 257.871094 97.386719 C 258.144531 98.121094 258.332031 98.421875 258.691406 98.714844 C 259.089844 99.042969 259.269531 99.070312 259.375 98.820312 C 259.496094 98.535156 260.164062 95.304688 260.164062 95.003906 C 260.164062 94.835938 260.117188 94.714844 260.046875 94.6875 C 259.984375 94.660156 259.683594 94.734375 259.382812 94.851562 C 258.9375 95.023438 258.765625 95.140625 258.472656 95.484375 C 258.015625 96.015625 257.558594 96.21875 257.132812 96.078125 C 256.558594 95.890625 256.140625 95.363281 256.140625 94.832031 C 256.140625 94.6875 256.066406 94.535156 255.933594 94.414062 C 255.601562 94.105469 255.40625 93.59375 255.46875 93.183594 C 255.53125 92.769531 255.875 92.339844 256.246094 92.210938 C 256.421875 92.148438 256.546875 92.023438 256.660156 91.792969 C 256.976562 91.148438 257.621094 90.9375 258.316406 91.253906 C 258.730469 91.441406 258.929688 91.703125 259.136719 92.328125 C 259.28125 92.757812 259.378906 92.894531 259.765625 93.234375 C 260.269531 93.671875 260.445312 93.71875 260.554688 93.453125 C 260.640625 93.25 261.425781 89.664062 261.425781 89.484375 C 261.425781 89.34375 261.125 89.332031 260.679688 89.453125 C 260.472656 89.511719 260.191406 89.710938 259.847656 90.042969 C 259.203125 90.664062 258.734375 90.894531 258.332031 90.785156 C 257.785156 90.632812 257.40625 90.167969 257.28125 89.484375 C 257.246094 89.308594 257.144531 89.113281 257.046875 89.035156 C 256.949219 88.960938 256.808594 88.746094 256.738281 88.5625 C 256.5 87.96875 256.753906 87.3125 257.363281 86.957031 C 257.558594 86.84375 257.742188 86.65625 257.800781 86.523438 C 258.125 85.734375 259.285156 85.5 259.867188 86.109375 C 259.984375 86.230469 260.175781 86.613281 260.296875 86.957031 C 260.480469 87.476562 260.566406 87.617188 260.792969 87.761719 C 260.945312 87.855469 261.132812 87.992188 261.207031 88.058594 C 261.285156 88.128906 261.433594 88.183594 261.539062 88.183594 C 261.699219 88.183594 261.75 88.128906 261.8125 87.886719 C 261.976562 87.253906 262.609375 84.296875 262.609375 84.148438 C 262.609375 83.925781 262.460938 83.898438 261.933594 84.035156 C 261.539062 84.140625 261.390625 84.234375 260.953125 84.667969 C 260.3125 85.300781 259.972656 85.460938 259.511719 85.335938 C 259.011719 85.199219 258.628906 84.773438 258.5 84.199219 C 258.445312 83.941406 258.328125 83.664062 258.246094 83.582031 C 257.996094 83.328125 257.777344 82.75 257.832031 82.472656 C 257.90625 82.066406 258.167969 81.71875 258.527344 81.546875 C 258.765625 81.429688 258.921875 81.273438 259.074219 81.003906 C 259.414062 80.394531 260.011719 80.214844 260.683594 80.515625 C 261.089844 80.703125 261.308594 80.980469 261.484375 81.542969 C 261.585938 81.878906 261.730469 82.097656 262.070312 82.445312 C 262.464844 82.84375 262.554688 82.902344 262.78125 82.878906 C 263.007812 82.859375 263.070312 82.792969 263.316406 82.347656 C 263.46875 82.070312 263.835938 81.582031 264.132812 81.261719 C 265.292969 80.019531 266.941406 79.613281 268.152344 80.269531 C 269.046875 80.757812 270.039062 82.050781 270.140625 82.863281 C 270.164062 83.074219 270.242188 83.652344 270.304688 84.148438 C 270.425781 85.058594 270.40625 85.925781 270.242188 86.5625 C 270.175781 86.824219 270.183594 86.886719 270.296875 86.972656 C 270.402344 87.046875 270.421875 87.132812 270.382812 87.34375 C 270.300781 87.777344 270.117188 87.941406 269.613281 88.023438 C 269.0625 88.109375 268.722656 88.277344 268.375 88.632812 C 268.117188 88.894531 268.113281 88.921875 268.144531 89.429688 C 268.175781 89.953125 268.34375 90.433594 269.363281 92.917969 C 269.988281 94.449219 270.488281 95.855469 270.574219 96.324219 C 270.683594 96.921875 270.730469 97.113281 271.042969 98.25 C 271.171875 98.726562 271.335938 99.472656 271.402344 99.90625 C 271.46875 100.339844 271.554688 100.90625 271.597656 101.160156 C 271.726562 101.964844 271.371094 102.523438 270.410156 103.023438 C 269.769531 103.355469 268.957031 104.035156 268.761719 104.398438 C 268.703125 104.507812 268.585938 104.621094 268.5 104.648438 C 268.324219 104.707031 268.121094 105.144531 268.132812 105.453125 C 268.195312 109.820312 269.605469 181.4375 269.613281 181.121094 C 269.554688 181.261719 269.554688 181.371094 269.605469 181.433594 C 269.648438 181.488281 269.761719 181.800781 269.859375 182.125 C 270.171875 183.175781 270.535156 183.746094 271.164062 184.179688 C 272.074219 184.804688 273.820312 185.039062 274.808594 184.664062 C 275.671875 184.335938 276.546875 183.308594 277.027344 182.058594 C 277.15625 181.722656 277.460938 180.671875 277.699219 179.730469 C 278.199219 177.769531 278.4375 177.226562 278.972656 176.84375 C 279.746094 176.285156 280.578125 176.484375 281.523438 177.449219 C 282.828125 178.777344 283.429688 181.054688 283.320312 184.21875 C 283.222656 186.953125 282.742188 189.074219 281.210938 193.496094 C 280.027344 196.910156 279.945312 197.214844 279.894531 198.398438 C 279.832031 199.96875 280.03125 200.992188 280.683594 202.453125 C 281.058594 203.285156 282.054688 205.070312 282.871094 206.363281 C 285.128906 209.9375 286.125 211.9375 286.664062 213.980469 C 287.101562 215.625 287.269531 217.324219 287.128906 218.671875 Z M 283.296875 214.484375 C 282.714844 213.875 281.769531 214.296875 281.769531 215.167969 C 281.769531 215.597656 282.183594 215.992188 282.632812 215.992188 C 283.042969 215.992188 283.230469 215.894531 283.433594 215.574219 C 283.644531 215.234375 283.589844 214.789062 283.296875 214.484375 Z M 282.203125 182.363281 C 281.886719 180.273438 281.066406 178.574219 280.375 178.574219 C 280.117188 178.574219 279.6875 178.835938 279.488281 179.117188 C 279.402344 179.234375 279.277344 179.648438 279.203125 180.039062 C 279.058594 180.828125 278.507812 182.527344 278.066406 183.554688 C 277.738281 184.316406 277.03125 185.371094 276.464844 185.9375 C 276.019531 186.386719 275.148438 186.828125 274.441406 186.957031 C 274.0625 187.027344 273.75 187.027344 273.113281 186.957031 C 272.210938 186.855469 271.804688 186.703125 270.625 186.023438 L 270.007812 185.667969 L 265.480469 185.675781 L 260.949219 185.683594 L 260.949219 184.019531 L 265.328125 184.019531 C 269.652344 184.019531 269.703125 184.019531 269.703125 183.863281 C 269.703125 183.707031 269.652344 183.703125 265.289062 183.703125 L 260.871094 183.703125 L 260.871094 181.96875 L 265.167969 181.96875 C 269.414062 181.96875 269.46875 181.964844 269.46875 181.808594 C 269.46875 181.652344 269.414062 181.652344 265.167969 181.652344 L 260.871094 181.652344 L 260.871094 180.3125 L 260.417969 179.957031 C 259.332031 179.097656 258.082031 179.054688 257.601562 179.855469 C 257.269531 180.414062 257.339844 180.875 258.226562 183.785156 C 258.457031 184.542969 258.671875 185.277344 258.699219 185.414062 C 258.769531 185.746094 258.382812 188.496094 258.175781 189.152344 C 258.085938 189.433594 257.800781 190.214844 257.539062 190.886719 C 256.167969 194.449219 255.5 196.511719 255.230469 198.023438 C 254.925781 199.757812 255.292969 201.496094 256.253906 202.84375 C 256.652344 203.402344 257.003906 203.734375 257.632812 204.136719 C 258.238281 204.523438 258.765625 204.671875 260.675781 204.980469 C 262.347656 205.253906 271.046875 206.519531 271.25 206.519531 C 271.371094 206.519531 271.449219 206.402344 272.410156 204.769531 C 273.234375 203.371094 273.90625 202.457031 274.1875 202.34375 C 274.390625 202.261719 276.5 201.886719 277.785156 201.699219 C 278.132812 201.648438 278.457031 201.578125 278.5 201.539062 C 278.558594 201.492188 278.574219 201.113281 278.550781 200.410156 C 278.480469 198.363281 278.910156 196.589844 280.339844 193 C 281.621094 189.78125 282.003906 188.109375 282.15625 185.019531 C 282.199219 184.199219 282.253906 183.507812 282.277344 183.484375 C 282.34375 183.417969 282.328125 183.175781 282.207031 182.363281 Z M 281.839844 185.007812 C 281.675781 188.105469 281.339844 189.5625 279.992188 192.980469 C 278.585938 196.550781 278.019531 199.015625 278.214844 200.71875 C 278.246094 201.019531 278.269531 201.277344 278.265625 201.285156 C 278.257812 201.292969 277.652344 201.394531 276.914062 201.511719 C 274.296875 201.917969 274.046875 201.980469 273.703125 202.316406 C 273.339844 202.664062 272.460938 203.976562 271.71875 205.277344 C 271.191406 206.195312 271.183594 206.207031 270.9375 206.164062 C 270.800781 206.140625 268.703125 205.835938 266.273438 205.488281 C 259.726562 204.546875 258.863281 204.394531 258.132812 204.03125 C 256.695312 203.320312 255.734375 201.828125 255.496094 199.945312 C 255.292969 198.328125 255.730469 196.585938 257.558594 191.757812 C 258.027344 190.519531 258.464844 189.328125 258.53125 189.113281 C 258.707031 188.546875 259.082031 185.78125 259.027344 185.445312 C 259.003906 185.292969 258.820312 184.632812 258.621094 183.980469 C 258.019531 182 257.71875 180.886719 257.71875 180.625 C 257.71875 180.265625 257.9375 179.847656 258.199219 179.714844 C 258.695312 179.457031 259.636719 179.707031 260.304688 180.269531 L 260.566406 180.488281 L 260.554688 182.394531 C 260.546875 183.441406 260.566406 184.609375 260.597656 184.988281 C 260.640625 185.484375 260.632812 185.679688 260.570312 185.679688 C 260.519531 185.679688 260.480469 185.75 260.480469 185.835938 C 260.480469 185.921875 260.515625 185.996094 260.558594 185.996094 C 260.605469 185.996094 260.636719 186.296875 260.636719 186.746094 C 260.636719 187.191406 260.605469 187.496094 260.558594 187.496094 C 260.515625 187.496094 260.480469 187.566406 260.480469 187.652344 C 260.480469 187.738281 260.511719 187.808594 260.550781 187.808594 C 260.59375 187.808594 260.636719 187.90625 260.652344 188.027344 C 260.675781 188.230469 260.722656 188.253906 261.375 188.421875 C 263.746094 189.015625 266.367188 189.011719 268.640625 188.40625 C 269.03125 188.300781 269.445312 188.179688 269.566406 188.132812 L 269.785156 188.050781 L 269.785156 185.933594 L 270.828125 186.511719 C 271.738281 187.015625 271.964844 187.109375 272.574219 187.214844 C 274.179688 187.496094 275.367188 187.25 276.4375 186.414062 C 276.929688 186.03125 277.90625 184.679688 278.292969 183.851562 C 278.710938 182.953125 279.277344 181.230469 279.472656 180.273438 C 279.640625 179.457031 279.785156 179.167969 280.140625 178.96875 C 280.296875 178.878906 280.382812 178.871094 280.488281 178.9375 C 281.171875 179.363281 281.9375 181.621094 281.914062 183.152344 C 281.90625 183.519531 281.875 184.355469 281.839844 185.007812 Z M 270.761719 197.566406 C 270.652344 197.453125 270.019531 197.441406 264.972656 197.441406 C 259.925781 197.441406 259.292969 197.453125 259.183594 197.566406 C 259 197.746094 259 199.503906 259.183594 199.683594 C 259.292969 199.796875 259.925781 199.808594 264.972656 199.808594 C 270.019531 199.808594 270.652344 199.796875 270.761719 199.683594 C 270.859375 199.585938 270.886719 199.371094 270.886719 198.625 C 270.886719 197.878906 270.859375 197.664062 270.761719 197.566406 Z M 269.746094 198.984375 C 269.640625 199.089844 269.480469 199.175781 269.386719 199.175781 C 269.296875 199.175781 269.136719 199.089844 269.03125 198.984375 C 268.921875 198.878906 268.835938 198.714844 268.835938 198.625 C 268.835938 198.535156 268.921875 198.371094 269.03125 198.265625 C 269.136719 198.160156 269.296875 198.074219 269.386719 198.074219 C 269.601562 198.074219 269.941406 198.410156 269.941406 198.625 C 269.941406 198.714844 269.851562 198.878906 269.746094 198.984375 Z M 267.539062 198.984375 C 267.433594 199.089844 267.269531 199.175781 267.179688 199.175781 C 267.089844 199.175781 266.929688 199.089844 266.820312 198.984375 C 266.714844 198.878906 266.628906 198.714844 266.628906 198.625 C 266.628906 198.535156 266.714844 198.371094 266.820312 198.265625 C 266.929688 198.160156 267.089844 198.074219 267.179688 198.074219 C 267.394531 198.074219 267.730469 198.410156 267.730469 198.625 C 267.730469 198.714844 267.644531 198.878906 267.539062 198.984375 Z M 265.410156 198.984375 C 265.304688 199.089844 265.140625 199.175781 265.050781 199.175781 C 264.960938 199.175781 264.800781 199.089844 264.691406 198.984375 C 264.585938 198.878906 264.5 198.714844 264.5 198.625 C 264.5 198.535156 264.585938 198.371094 264.691406 198.265625 C 264.800781 198.160156 264.960938 198.074219 265.050781 198.074219 C 265.265625 198.074219 265.601562 198.410156 265.601562 198.625 C 265.601562 198.714844 265.515625 198.878906 265.410156 198.984375 Z M 263.28125 198.984375 C 263.175781 199.089844 263.011719 199.175781 262.921875 199.175781 C 262.832031 199.175781 262.671875 199.089844 262.5625 198.984375 C 262.457031 198.878906 262.371094 198.714844 262.371094 198.625 C 262.371094 198.535156 262.457031 198.371094 262.5625 198.265625 C 262.671875 198.160156 262.832031 198.074219 262.921875 198.074219 C 263.136719 198.074219 263.472656 198.410156 263.472656 198.625 C 263.472656 198.714844 263.386719 198.878906 263.28125 198.984375 Z M 261.074219 198.984375 C 260.964844 199.089844 260.804688 199.175781 260.714844 199.175781 C 260.5 199.175781 260.164062 198.839844 260.164062 198.625 C 260.164062 198.410156 260.5 198.074219 260.714844 198.074219 C 260.925781 198.074219 261.265625 198.410156 261.265625 198.625 C 261.265625 198.714844 261.179688 198.878906 261.074219 198.984375 Z M 265.207031 187.492188 L 260.949219 187.492188 L 260.949219 185.992188 L 269.46875 185.992188 L 269.46875 187.492188 Z M 268.777344 188.039062 C 267.617188 188.363281 266.988281 188.449219 265.46875 188.496094 C 263.871094 188.542969 262.746094 188.441406 261.546875 188.136719 C 260.367188 187.839844 260.695312 187.808594 265.164062 187.808594 C 267.488281 187.808594 269.386719 187.824219 269.386719 187.839844 C 269.386719 187.855469 269.113281 187.945312 268.777344 188.039062 Z M 280.671875 210.921875 C 280.484375 210.710938 280.386719 210.667969 280.113281 210.667969 C 279.835938 210.667969 279.742188 210.710938 279.542969 210.933594 C 279.335938 211.164062 279.3125 211.242188 279.347656 211.523438 C 279.4375 212.191406 280.195312 212.449219 280.667969 211.972656 C 280.984375 211.65625 280.984375 211.273438 280.671875 210.921875 Z M 278.546875 207.15625 C 278.382812 206.84375 277.972656 206.597656 277.628906 206.597656 C 277.28125 206.597656 276.875 206.84375 276.707031 207.15625 C 276.429688 207.675781 276.613281 208.3125 277.121094 208.585938 C 277.640625 208.863281 278.277344 208.679688 278.546875 208.171875 C 278.628906 208.023438 278.691406 207.796875 278.691406 207.664062 C 278.691406 207.53125 278.628906 207.304688 278.546875 207.15625 Z M 276.480469 203.464844 C 276.289062 202.960938 275.726562 202.570312 275.191406 202.570312 C 274.007812 202.570312 273.378906 203.988281 274.171875 204.867188 C 275 205.78125 276.546875 205.207031 276.558594 203.976562 C 276.5625 203.820312 276.527344 203.585938 276.480469 203.464844 Z M 271.550781 207.039062 C 271.441406 206.925781 270.746094 206.914062 265.089844 206.914062 C 259.433594 206.914062 258.742188 206.925781 258.628906 207.039062 C 258.523438 207.144531 258.507812 207.515625 258.507812 209.875 C 258.507812 212.234375 258.523438 212.601562 258.628906 212.710938 C 258.742188 212.820312 259.433594 212.835938 265.089844 212.835938 C 270.746094 212.835938 271.441406 212.820312 271.550781 212.710938 C 271.660156 212.601562 271.675781 212.234375 271.675781 209.875 C 271.675781 207.511719 271.660156 207.144531 271.550781 207.039062 Z M 269.902344 211.773438 C 269.796875 211.878906 269.636719 211.964844 269.546875 211.964844 C 269.332031 211.964844 268.992188 211.625 268.992188 211.414062 C 268.992188 211.199219 269.332031 210.859375 269.546875 210.859375 C 269.757812 210.859375 270.097656 211.199219 270.097656 211.414062 C 270.097656 211.503906 270.011719 211.664062 269.902344 211.773438 Z M 269.902344 208.851562 C 269.796875 208.957031 269.636719 209.046875 269.546875 209.046875 C 269.453125 209.046875 269.292969 208.957031 269.1875 208.851562 C 269.082031 208.746094 268.992188 208.582031 268.992188 208.492188 C 268.992188 208.402344 269.082031 208.242188 269.1875 208.132812 C 269.292969 208.027344 269.453125 207.941406 269.546875 207.941406 C 269.757812 207.941406 270.097656 208.28125 270.097656 208.492188 C 270.097656 208.582031 270.011719 208.746094 269.902344 208.851562 Z M 267.695312 211.773438 C 267.589844 211.878906 267.429688 211.964844 267.335938 211.964844 C 267.125 211.964844 266.785156 211.625 266.785156 211.414062 C 266.785156 211.199219 267.125 210.859375 267.335938 210.859375 C 267.550781 210.859375 267.890625 211.199219 267.890625 211.414062 C 267.890625 211.503906 267.804688 211.664062 267.695312 211.773438 Z M 267.695312 208.851562 C 267.589844 208.957031 267.429688 209.046875 267.335938 209.046875 C 267.246094 209.046875 267.085938 208.957031 266.980469 208.851562 C 266.871094 208.746094 266.785156 208.582031 266.785156 208.492188 C 266.785156 208.402344 266.871094 208.242188 266.980469 208.132812 C 267.085938 208.027344 267.246094 207.941406 267.335938 207.941406 C 267.550781 207.941406 267.890625 208.28125 267.890625 208.492188 C 267.890625 208.582031 267.804688 208.746094 267.695312 208.851562 Z M 265.5 208.875 C 265.261719 209.097656 264.964844 209.09375 264.75 208.863281 C 264.527344 208.625 264.53125 208.328125 264.757812 208.113281 C 264.996094 207.890625 265.292969 207.894531 265.511719 208.121094 C 265.730469 208.359375 265.726562 208.65625 265.496094 208.875 Z M 265.410156 211.773438 C 265.304688 211.878906 265.140625 211.964844 265.050781 211.964844 C 264.839844 211.964844 264.5 211.625 264.5 211.414062 C 264.5 211.199219 264.839844 210.859375 265.050781 210.859375 C 265.265625 210.859375 265.601562 211.199219 265.601562 211.414062 C 265.601562 211.503906 265.515625 211.664062 265.410156 211.773438 Z M 263.203125 211.773438 C 263.09375 211.878906 262.933594 211.964844 262.84375 211.964844 C 262.628906 211.964844 262.292969 211.625 262.292969 211.414062 C 262.292969 211.199219 262.628906 210.859375 262.84375 210.859375 C 263.054688 210.859375 263.394531 211.199219 263.394531 211.414062 C 263.394531 211.503906 263.308594 211.664062 263.203125 211.773438 Z M 263.203125 208.773438 C 263.09375 208.878906 262.933594 208.964844 262.84375 208.964844 C 262.753906 208.964844 262.589844 208.878906 262.484375 208.773438 C 262.378906 208.664062 262.292969 208.503906 262.292969 208.414062 C 262.292969 208.324219 262.378906 208.160156 262.484375 208.054688 C 262.589844 207.949219 262.753906 207.859375 262.84375 207.859375 C 263.054688 207.859375 263.394531 208.199219 263.394531 208.414062 C 263.394531 208.503906 263.308594 208.664062 263.203125 208.773438 Z M 260.992188 208.773438 C 260.886719 208.878906 260.726562 208.964844 260.636719 208.964844 C 260.421875 208.964844 260.082031 208.625 260.082031 208.414062 C 260.082031 208.199219 260.421875 207.859375 260.636719 207.859375 C 260.847656 207.859375 261.1875 208.199219 261.1875 208.414062 C 261.1875 208.503906 261.101562 208.664062 260.992188 208.773438 Z M 260.914062 211.773438 C 260.808594 211.878906 260.648438 211.964844 260.554688 211.964844 C 260.464844 211.964844 260.304688 211.878906 260.199219 211.773438 C 260.089844 211.664062 260.003906 211.503906 260.003906 211.414062 C 260.003906 211.324219 260.089844 211.160156 260.199219 211.054688 C 260.304688 210.949219 260.464844 210.859375 260.554688 210.859375 C 260.648438 210.859375 260.808594 210.949219 260.914062 211.054688 C 261.019531 211.160156 261.109375 211.324219 261.109375 211.414062 C 261.109375 211.503906 261.019531 211.664062 260.914062 211.773438 Z M 265.050781 179.441406 C 260.6875 179.441406 260.636719 179.445312 260.636719 179.601562 C 260.636719 179.753906 260.6875 179.757812 265.050781 179.757812 C 269.414062 179.757812 269.464844 179.753906 269.464844 179.601562 C 269.464844 179.445312 269.414062 179.441406 265.050781 179.441406 Z M 265.050781 177.152344 C 260.6875 177.152344 260.636719 177.15625 260.636719 177.308594 C 260.636719 177.464844 260.6875 177.46875 265.050781 177.46875 C 269.414062 177.46875 269.464844 177.464844 269.464844 177.308594 C 269.464844 177.15625 269.414062 177.152344 265.050781 177.152344 Z M 265.089844 174.707031 C 260.84375 174.707031 260.792969 174.707031 260.792969 174.863281 C 260.792969 175.019531 260.84375 175.019531 265.089844 175.019531 C 269.335938 175.019531 269.386719 175.019531 269.386719 174.863281 C 269.386719 174.707031 269.335938 174.707031 265.089844 174.707031 Z M 265.089844 172.019531 C 260.925781 172.019531 260.871094 172.023438 260.871094 172.179688 C 260.871094 172.335938 260.925781 172.335938 265.089844 172.335938 C 269.257812 172.335938 269.308594 172.335938 269.308594 172.179688 C 269.308594 172.023438 269.257812 172.019531 265.089844 172.019531 Z M 265.089844 169.335938 C 261.003906 169.335938 260.949219 169.339844 260.949219 169.496094 C 260.949219 169.652344 261.003906 169.652344 265.089844 169.652344 C 269.175781 169.652344 269.230469 169.652344 269.230469 169.496094 C 269.230469 169.339844 269.175781 169.335938 265.089844 169.335938 Z M 265.089844 166.417969 C 261.082031 166.417969 261.03125 166.417969 261.03125 166.574219 C 261.03125 166.730469 261.082031 166.730469 265.089844 166.730469 C 269.097656 166.730469 269.152344 166.730469 269.152344 166.574219 C 269.152344 166.417969 269.097656 166.417969 265.089844 166.417969 Z M 269.023438 98.449219 C 268.761719 98.003906 268.261719 97.863281 267.78125 98.089844 C 267.117188 98.40625 267.089844 99.355469 267.734375 99.738281 C 268.550781 100.21875 269.503906 99.265625 269.023438 98.449219 Z M 265.089844 163.257812 C 261.160156 163.257812 261.109375 163.257812 261.109375 163.414062 C 261.109375 163.570312 261.160156 163.574219 265.089844 163.574219 C 269.019531 163.574219 269.070312 163.570312 269.070312 163.414062 C 269.070312 163.257812 269.019531 163.257812 265.089844 163.257812 Z M 265.089844 159.941406 C 261.238281 159.941406 261.1875 159.945312 261.1875 160.101562 C 261.1875 160.253906 261.238281 160.257812 265.089844 160.257812 C 268.941406 160.257812 268.992188 160.253906 268.992188 160.101562 C 268.992188 159.945312 268.941406 159.941406 265.089844 159.941406 Z M 265.050781 156.46875 C 261.238281 156.46875 261.1875 156.46875 261.1875 156.625 C 261.1875 156.78125 261.238281 156.785156 265.050781 156.785156 C 268.863281 156.785156 268.914062 156.78125 268.914062 156.625 C 268.914062 156.46875 268.863281 156.46875 265.050781 156.46875 Z M 265.089844 152.835938 C 261.398438 152.835938 261.34375 152.839844 261.34375 152.996094 C 261.34375 153.152344 261.398438 153.152344 265.089844 153.152344 C 268.78125 153.152344 268.835938 153.152344 268.835938 152.996094 C 268.835938 152.839844 268.78125 152.835938 265.089844 152.835938 Z M 265.089844 148.890625 C 261.476562 148.890625 261.421875 148.890625 261.421875 149.046875 C 261.421875 149.203125 261.476562 149.207031 265.089844 149.207031 C 268.703125 149.207031 268.757812 149.203125 268.757812 149.046875 C 268.757812 148.890625 268.703125 148.890625 265.089844 148.890625 Z M 265.089844 144.785156 C 261.554688 144.785156 261.503906 144.789062 261.503906 144.941406 C 261.503906 145.097656 261.554688 145.101562 265.089844 145.101562 C 268.625 145.101562 268.679688 145.097656 268.679688 144.941406 C 268.679688 144.789062 268.625 144.785156 265.089844 144.785156 Z M 265.128906 140.441406 C 261.710938 140.441406 261.660156 140.445312 261.660156 140.601562 C 261.660156 140.757812 261.710938 140.757812 265.128906 140.757812 C 268.546875 140.757812 268.597656 140.757812 268.597656 140.601562 C 268.597656 140.445312 268.546875 140.441406 265.128906 140.441406 Z M 265.089844 135.785156 C 261.792969 135.785156 261.738281 135.789062 261.738281 135.941406 C 261.738281 136.097656 261.792969 136.101562 265.089844 136.101562 C 268.390625 136.101562 268.441406 136.097656 268.441406 135.941406 C 268.441406 135.789062 268.386719 135.785156 265.089844 135.785156 Z M 265.089844 130.890625 C 261.871094 130.890625 261.816406 130.894531 261.816406 131.046875 C 261.816406 131.203125 261.871094 131.207031 265.089844 131.207031 C 268.308594 131.207031 268.363281 131.203125 268.363281 131.046875 C 268.363281 130.894531 268.308594 130.890625 265.089844 130.890625 Z M 265.128906 125.757812 C 262.027344 125.757812 261.976562 125.761719 261.976562 125.917969 C 261.976562 126.074219 262.027344 126.074219 265.128906 126.074219 C 268.230469 126.074219 268.285156 126.074219 268.285156 125.917969 C 268.285156 125.761719 268.230469 125.757812 265.128906 125.757812 Z M 265.128906 120.234375 C 262.1875 120.234375 262.132812 120.234375 262.132812 120.390625 C 262.132812 120.546875 262.1875 120.550781 265.128906 120.550781 C 268.074219 120.550781 268.125 120.546875 268.125 120.390625 C 268.125 120.234375 268.074219 120.234375 265.128906 120.234375 Z M 265.089844 114.46875 C 262.265625 114.46875 262.210938 114.472656 262.210938 114.628906 C 262.210938 114.785156 262.265625 114.785156 265.089844 114.785156 C 267.914062 114.785156 267.96875 114.785156 267.96875 114.628906 C 267.96875 114.472656 267.914062 114.46875 265.089844 114.46875 Z M 265.089844 108.390625 C 262.421875 108.390625 262.371094 108.394531 262.371094 108.550781 C 262.371094 108.703125 262.421875 108.707031 265.089844 108.707031 C 267.757812 108.707031 267.8125 108.703125 267.8125 108.550781 C 267.8125 108.394531 267.757812 108.390625 265.089844 108.390625 Z M 266.421875 84.871094 C 266.15625 84.425781 265.660156 84.285156 265.175781 84.511719 C 264.515625 84.828125 264.488281 85.777344 265.132812 86.160156 C 265.949219 86.640625 266.902344 85.6875 266.421875 84.871094 Z M 265.160156 90.238281 C 264.894531 89.792969 264.398438 89.652344 263.914062 89.882812 C 263.253906 90.195312 263.226562 91.144531 263.871094 91.527344 C 264.6875 92.007812 265.640625 91.054688 265.160156 90.238281 Z M 263.976562 95.765625 C 263.714844 95.320312 263.214844 95.179688 262.734375 95.40625 C 262.070312 95.722656 262.042969 96.671875 262.6875 97.054688 C 263.503906 97.535156 264.457031 96.578125 263.976562 95.765625 Z M 262.792969 101.210938 C 262.53125 100.769531 262.035156 100.625 261.550781 100.855469 C 260.886719 101.167969 260.859375 102.121094 261.503906 102.5 C 262.320312 102.980469 263.273438 102.027344 262.792969 101.210938 Z M 276.007812 96.707031 C 275.960938 96.816406 275.824219 97.011719 275.699219 97.144531 C 275.542969 97.3125 275.46875 97.488281 275.4375 97.753906 C 275.386719 98.265625 275.207031 98.503906 274.695312 98.738281 C 274.082031 99.019531 273.789062 98.921875 273.074219 98.207031 C 272.664062 97.792969 272.441406 97.636719 272.125 97.535156 C 271.898438 97.460938 271.679688 97.367188 271.640625 97.332031 C 271.597656 97.292969 271.4375 97.261719 271.285156 97.261719 C 270.898438 97.257812 270.808594 97.179688 270.785156 96.824219 C 270.769531 96.546875 270.789062 96.507812 271.003906 96.433594 C 271.132812 96.386719 271.460938 96.140625 271.730469 95.886719 C 272.097656 95.542969 272.261719 95.316406 272.386719 94.988281 C 272.476562 94.746094 272.609375 94.441406 272.683594 94.316406 C 272.847656 94.039062 273.308594 93.789062 273.667969 93.789062 C 274.054688 93.789062 274.597656 94.164062 274.824219 94.589844 C 274.953125 94.835938 275.117188 95 275.367188 95.136719 C 275.5625 95.242188 275.792969 95.421875 275.878906 95.539062 C 276.058594 95.785156 276.125 96.417969 276.003906 96.707031 Z M 276.007812 96.707031 " fill-opacity="1" fill-rule="nonzero"/></g></svg>