<svg xmlns="http://www.w3.org/2000/svg" xmlns:xlink="http://www.w3.org/1999/xlink" width="945" zoomAndPan="magnify" viewBox="0 0 708.75 567.000005" height="756" preserveAspectRatio="xMidYMid meet" version="1.0"><defs><g/><clipPath id="248f5a836e"><path d="M 0.5 0 L 708 0 L 708 566 L 0.5 566 Z M 0.5 0 " clip-rule="nonzero"/></clipPath><clipPath id="a9a2f4d5c0"><path d="M 154.488281 381 L 554 381 L 554 385 L 154.488281 385 Z M 154.488281 381 " clip-rule="nonzero"/></clipPath><clipPath id="763178758b"><path d="M 154.488281 381 L 249 381 L 249 385 L 154.488281 385 Z M 154.488281 381 " clip-rule="nonzero"/></clipPath><clipPath id="f1f3fe3d26"><path d="M 242 376.664062 L 256 376.664062 L 256 390 L 242 390 Z M 242 376.664062 " clip-rule="nonzero"/></clipPath><clipPath id="1e91216867"><path d="M 341 421 L 354 421 L 354 459.027344 L 341 459.027344 Z M 341 421 " clip-rule="nonzero"/></clipPath><clipPath id="3a4e36bd6e"><path d="M 364 421 L 377 421 L 377 459.027344 L 364 459.027344 Z M 364 421 " clip-rule="nonzero"/></clipPath><clipPath id="1f65ac5dd8"><path d="M 476.613281 107 L 553.734375 107 L 553.734375 368.257812 L 476.613281 368.257812 Z M 476.613281 107 " clip-rule="nonzero"/></clipPath></defs><g clip-path="url(#248f5a836e)"><path fill="#ffffff" d="M 0.5 0 L 708 0 L 708 566 L 0.5 566 Z M 0.5 0 " fill-opacity="1" fill-rule="nonzero"/><path fill="#1e1e1e" d="M 0.5 0 L 708.089844 0 L 708.089844 566.074219 L 0.5 566.074219 Z M 0.5 0 " fill-opacity="1" fill-rule="nonzero"/></g><g fill="#8c52ff" fill-opacity="1"><g transform="translate(17.322471, 362.680108)"><g><path d="M 59.921875 0 C 55.015625 0 50.472656 -1.722656 46.296875 -5.171875 L 9.53125 -36.765625 C 6.8125 -39.222656 5.453125 -42.128906 5.453125 -45.484375 L 5.453125 -108.953125 L 27.234375 -108.953125 L 27.234375 -50.390625 L 59.921875 -22.203125 L 92.609375 -50.390625 L 92.609375 -108.953125 L 114.390625 -108.953125 L 114.265625 -45.484375 C 114.265625 -42.035156 112.945312 -39.128906 110.3125 -36.765625 L 73.546875 -5.171875 C 69.546875 -1.722656 65.003906 0 59.921875 0 Z M 59.921875 0 "/></g></g></g><g fill="#8c52ff" fill-opacity="1"><g transform="translate(170.797211, 362.680108)"><g><path d="M 114.390625 0 L 5.453125 0 L 5.453125 -21.796875 L 49.03125 -21.796875 L 49.03125 -87.15625 L 5.453125 -87.15625 L 5.453125 -108.953125 L 114.390625 -108.953125 L 114.390625 -87.15625 L 70.8125 -87.15625 L 70.8125 -21.796875 L 114.390625 -21.796875 Z M 114.390625 0 "/></g></g></g><g fill="#8c52ff" fill-opacity="1"><g transform="translate(324.271951, 362.680108)"><g><path d="M 114.390625 -87.15625 L 114.390625 -65.375 C 114.390625 -62.375 113.320312 -59.804688 111.1875 -57.671875 C 109.0625 -55.535156 106.5 -54.46875 103.5 -54.46875 C 106.5 -54.46875 109.0625 -53.398438 111.1875 -51.265625 C 113.320312 -49.140625 114.390625 -46.578125 114.390625 -43.578125 L 114.390625 -21.796875 C 114.390625 -17.890625 113.414062 -14.28125 111.46875 -10.96875 C 109.519531 -7.65625 106.910156 -5 103.640625 -3 C 100.367188 -1 96.691406 0 92.609375 0 L 5.453125 0 L 5.453125 -108.953125 L 92.609375 -108.953125 C 96.691406 -108.953125 100.367188 -107.953125 103.640625 -105.953125 C 106.910156 -103.953125 109.519531 -101.316406 111.46875 -98.046875 C 113.414062 -94.785156 114.390625 -91.15625 114.390625 -87.15625 Z M 92.609375 -87.15625 L 27.234375 -87.15625 L 27.234375 -65.375 L 92.609375 -65.375 Z M 27.234375 -21.796875 L 92.609375 -21.796875 L 92.609375 -43.578125 L 27.234375 -43.578125 Z M 27.234375 -21.796875 "/></g></g></g><g fill="#8c52ff" fill-opacity="1"><g transform="translate(477.746672, 362.680108)"><g/></g></g><g fill="#8c52ff" fill-opacity="1"><g transform="translate(571.30734, 362.680108)"><g><path d="M 27.234375 0 L 5.453125 0 L 5.453125 -98.0625 C 5.453125 -101.050781 6.515625 -103.613281 8.640625 -105.75 C 10.773438 -107.882812 13.34375 -108.953125 16.34375 -108.953125 C 19.34375 -108.953125 21.929688 -107.863281 24.109375 -105.6875 L 92.609375 -37.171875 L 92.609375 -108.953125 L 114.390625 -108.953125 L 114.390625 -10.890625 C 114.390625 -7.898438 113.320312 -5.335938 111.1875 -3.203125 C 109.0625 -1.066406 106.5 0 103.5 0 C 100.507812 0 97.921875 -1.085938 95.734375 -3.265625 L 27.234375 -71.765625 Z M 27.234375 0 "/></g></g></g><g clip-path="url(#a9a2f4d5c0)"><path fill="#8c52ff" d="M 154.449219 381.441406 L 553.933594 381.441406 L 553.933594 384.605469 L 154.449219 384.605469 Z M 154.449219 381.441406 " fill-opacity="1" fill-rule="nonzero"/></g><g clip-path="url(#763178758b)"><path fill="#ffffff" d="M 154.449219 381.421875 L 248.839844 381.421875 L 248.839844 384.636719 L 154.449219 384.636719 Z M 154.449219 381.421875 " fill-opacity="1" fill-rule="nonzero"/></g><g clip-path="url(#f1f3fe3d26)"><path fill="#ffffff" d="M 255.113281 383.023438 C 255.113281 383.4375 255.074219 383.84375 254.992188 384.25 C 254.910156 384.652344 254.792969 385.042969 254.636719 385.425781 C 254.476562 385.804688 254.285156 386.167969 254.054688 386.511719 C 253.828125 386.851562 253.566406 387.167969 253.273438 387.460938 C 252.984375 387.753906 252.667969 388.011719 252.324219 388.242188 C 251.980469 388.46875 251.621094 388.664062 251.238281 388.820312 C 250.859375 388.980469 250.464844 389.097656 250.0625 389.179688 C 249.660156 389.257812 249.25 389.296875 248.839844 389.296875 C 248.425781 389.296875 248.019531 389.257812 247.613281 389.179688 C 247.210938 389.097656 246.816406 388.980469 246.4375 388.820312 C 246.054688 388.664062 245.695312 388.46875 245.351562 388.242188 C 245.011719 388.011719 244.691406 387.753906 244.402344 387.460938 C 244.109375 387.167969 243.851562 386.851562 243.621094 386.511719 C 243.390625 386.167969 243.199219 385.804688 243.042969 385.425781 C 242.882812 385.042969 242.765625 384.652344 242.683594 384.25 C 242.605469 383.84375 242.5625 383.4375 242.5625 383.023438 C 242.5625 382.613281 242.605469 382.203125 242.683594 381.800781 C 242.765625 381.394531 242.882812 381.003906 243.042969 380.621094 C 243.199219 380.242188 243.390625 379.878906 243.621094 379.539062 C 243.851562 379.195312 244.109375 378.878906 244.402344 378.585938 C 244.691406 378.296875 245.011719 378.035156 245.351562 377.808594 C 245.695312 377.578125 246.054688 377.386719 246.4375 377.226562 C 246.816406 377.070312 247.210938 376.949219 247.613281 376.871094 C 248.019531 376.789062 248.425781 376.75 248.839844 376.75 C 249.25 376.75 249.660156 376.789062 250.0625 376.871094 C 250.464844 376.949219 250.859375 377.070312 251.238281 377.226562 C 251.621094 377.386719 251.980469 377.578125 252.324219 377.808594 C 252.667969 378.035156 252.984375 378.296875 253.273438 378.585938 C 253.566406 378.878906 253.828125 379.195312 254.054688 379.539062 C 254.285156 379.878906 254.476562 380.242188 254.636719 380.621094 C 254.792969 381.003906 254.910156 381.394531 254.992188 381.800781 C 255.074219 382.203125 255.113281 382.613281 255.113281 383.023438 Z M 255.113281 383.023438 " fill-opacity="1" fill-rule="nonzero"/></g><path fill="#8c52ff" d="M 469.242188 425.835938 C 468.644531 426.085938 468.300781 426.726562 468.300781 427.363281 L 468.300781 439.757812 L 450.910156 428.832031 C 448.554688 427.355469 445.496094 429.039062 445.496094 431.828125 L 445.496094 451.445312 C 445.496094 454.234375 448.554688 455.917969 450.910156 454.441406 L 468.300781 443.515625 L 468.300781 455.910156 C 468.300781 456.558594 468.644531 457.199219 469.242188 457.4375 C 470.4375 457.929688 471.578125 457.070312 471.578125 455.941406 L 471.578125 427.324219 C 471.578125 426.203125 470.4375 425.34375 469.242188 425.835938 Z M 469.242188 425.835938 " fill-opacity="1" fill-rule="nonzero"/><path fill="#8c52ff" d="M 253.804688 457.4375 C 254.402344 457.1875 254.746094 456.546875 254.746094 455.910156 L 254.746094 443.515625 L 272.132812 454.441406 C 274.492188 455.917969 277.550781 454.234375 277.550781 451.445312 L 277.550781 431.828125 C 277.550781 429.039062 274.492188 427.355469 272.132812 428.832031 L 254.746094 439.757812 L 254.746094 427.363281 C 254.746094 426.714844 254.402344 426.078125 253.804688 425.835938 C 252.609375 425.34375 251.46875 426.203125 251.46875 427.332031 L 251.46875 455.953125 C 251.476562 457.070312 252.621094 457.929688 253.804688 457.4375 Z M 253.804688 457.4375 " fill-opacity="1" fill-rule="nonzero"/><path fill="#8c52ff" d="M 527.863281 451.246094 C 527.242188 451.246094 526.835938 451.195312 526.78125 451.195312 C 526.101562 451.113281 525.621094 450.484375 525.714844 449.800781 C 525.796875 449.121094 526.425781 448.640625 527.105469 448.722656 C 527.148438 448.722656 530.835938 449.152344 532.804688 446.878906 C 533.457031 446.125 534.355469 444.910156 535.394531 443.507812 C 538.261719 439.621094 541.835938 434.78125 544.621094 433.691406 C 546.320312 433.03125 548.140625 432.949219 549.660156 433.0625 L 547.679688 430.519531 C 547.503906 430.289062 547.417969 430.027344 547.417969 429.753906 C 547.417969 429.386719 547.585938 429.019531 547.898438 428.769531 C 548.445312 428.347656 549.21875 428.445312 549.648438 428.988281 L 553.621094 434.089844 C 553.796875 434.320312 553.882812 434.601562 553.882812 434.886719 C 553.882812 434.980469 553.871094 435.0625 553.839844 435.160156 C 553.785156 435.347656 553.703125 435.523438 553.566406 435.683594 C 553.546875 435.714844 553.515625 435.734375 553.484375 435.765625 L 549.148438 439.914062 C 548.65625 440.386719 547.859375 440.375 547.386719 439.871094 C 546.914062 439.378906 546.925781 438.582031 547.429688 438.113281 L 550.046875 435.609375 C 548.726562 435.453125 547.019531 435.441406 545.53125 436.015625 C 543.417969 436.84375 539.792969 441.746094 537.402344 444.984375 C 536.335938 446.429688 535.414062 447.6875 534.691406 448.515625 C 532.617188 450.902344 529.496094 451.246094 527.863281 451.246094 Z M 527.863281 451.246094 " fill-opacity="1" fill-rule="nonzero"/><path fill="#8c52ff" d="M 548.496094 454.765625 C 548.226562 454.765625 547.964844 454.683594 547.734375 454.503906 C 547.417969 454.265625 547.25 453.898438 547.25 453.519531 C 547.25 453.25 547.335938 452.988281 547.511719 452.757812 L 549.492188 450.210938 C 547.972656 450.324219 546.152344 450.242188 544.453125 449.582031 C 543.21875 449.101562 541.804688 447.925781 540.011719 445.882812 C 539.5625 445.371094 539.605469 444.585938 540.128906 444.125 C 540.640625 443.675781 541.425781 443.714844 541.886719 444.238281 C 543.730469 446.335938 544.800781 447.035156 545.363281 447.257812 C 546.863281 447.832031 548.558594 447.824219 549.878906 447.664062 L 547.261719 445.160156 C 546.769531 444.691406 546.746094 443.894531 547.21875 443.402344 C 547.691406 442.910156 548.488281 442.890625 548.980469 443.359375 L 553.328125 447.519531 C 553.785156 447.957031 553.839844 448.671875 553.453125 449.175781 L 549.480469 454.273438 C 549.230469 454.609375 548.863281 454.765625 548.496094 454.765625 Z M 548.496094 454.765625 " fill-opacity="1" fill-rule="nonzero"/><path fill="#8c52ff" d="M 535.488281 439.535156 C 535.109375 439.535156 534.734375 439.359375 534.480469 439.035156 C 533.980469 438.351562 533.664062 437.859375 533.414062 437.472656 C 533.128906 437.042969 532.953125 436.761719 532.636719 436.394531 C 530.648438 434.089844 526.980469 434.539062 526.941406 434.550781 C 526.257812 434.632812 525.628906 434.164062 525.546875 433.480469 C 525.453125 432.800781 525.933594 432.171875 526.613281 432.089844 C 526.8125 432.066406 531.652344 431.472656 534.511719 434.769531 C 534.941406 435.261719 535.195312 435.660156 535.496094 436.121094 C 535.75 436.5 536.023438 436.929688 536.480469 437.558594 C 536.890625 438.113281 536.777344 438.886719 536.21875 439.296875 C 536 439.464844 535.738281 439.535156 535.488281 439.535156 Z M 535.488281 439.535156 " fill-opacity="1" fill-rule="nonzero"/><path fill="#8c52ff" d="M 189.695312 442.363281 C 189.621094 441.695312 189.035156 441.191406 188.367188 441.265625 C 187.707031 441.328125 187.222656 441.925781 187.285156 442.585938 C 187.601562 445.589844 186.617188 448.714844 184.3125 451.007812 C 180.269531 455.050781 173.691406 455.050781 169.648438 451.007812 L 168.726562 449.992188 L 171.835938 449.992188 C 172.484375 449.992188 173.019531 449.46875 173.019531 448.808594 C 173.019531 448.15625 172.496094 447.625 171.835938 447.625 L 166.136719 447.625 C 165.75 447.519531 165.308594 447.625 165.007812 447.925781 C 164.996094 447.9375 164.996094 447.9375 164.984375 447.949219 C 164.976562 447.957031 164.976562 447.957031 164.964844 447.96875 C 164.753906 448.179688 164.621094 448.484375 164.621094 448.808594 L 164.621094 454.695312 C 164.621094 455.34375 165.144531 455.878906 165.804688 455.878906 C 166.453125 455.878906 166.988281 455.355469 166.988281 454.695312 L 166.988281 451.613281 L 167.949219 452.714844 C 173.050781 457.816406 181.441406 457.699219 186.386719 452.347656 C 188.953125 449.582031 190.0625 445.90625 189.695312 442.363281 Z M 189.695312 442.363281 " fill-opacity="1" fill-rule="nonzero"/><path fill="#8c52ff" d="M 166.484375 444.765625 C 166.296875 441.894531 167.300781 438.949219 169.488281 436.761719 C 173.535156 432.71875 180.113281 432.71875 184.15625 436.761719 L 185.078125 437.777344 L 181.964844 437.777344 C 181.316406 437.777344 180.78125 438.300781 180.78125 438.960938 C 180.78125 439.609375 181.304688 440.144531 181.964844 440.144531 L 187.664062 440.144531 C 188.050781 440.25 188.492188 440.144531 188.796875 439.839844 C 188.804688 439.832031 188.804688 439.832031 188.816406 439.820312 C 188.828125 439.808594 188.828125 439.808594 188.835938 439.796875 C 189.046875 439.589844 189.183594 439.285156 189.183594 438.960938 L 189.183594 433.074219 C 189.183594 432.425781 188.660156 431.890625 188 431.890625 C 187.351562 431.890625 186.816406 432.414062 186.816406 433.074219 L 186.816406 436.152344 L 185.851562 435.054688 C 180.75 429.953125 172.359375 430.066406 167.414062 435.421875 C 164.964844 438.070312 163.84375 441.515625 164.054688 444.898438 C 164.09375 445.589844 164.703125 446.113281 165.394531 446.042969 C 166.054688 445.96875 166.527344 445.414062 166.484375 444.765625 Z M 166.484375 444.765625 " fill-opacity="1" fill-rule="nonzero"/><g clip-path="url(#1e91216867)"><path fill="#8c52ff" d="M 347.660156 459.0625 C 344.371094 459.0625 341.710938 456.402344 341.710938 453.113281 L 341.710938 427.113281 C 341.710938 423.824219 344.371094 421.164062 347.660156 421.164062 C 350.949219 421.164062 353.609375 423.824219 353.609375 427.113281 L 353.609375 453.113281 C 353.621094 456.390625 350.949219 459.0625 347.660156 459.0625 Z M 347.660156 459.0625 " fill-opacity="1" fill-rule="nonzero"/></g><g clip-path="url(#3a4e36bd6e)"><path fill="#8c52ff" d="M 370.265625 459.0625 C 366.976562 459.0625 364.316406 456.402344 364.316406 453.113281 L 364.316406 427.113281 C 364.316406 423.824219 366.976562 421.164062 370.265625 421.164062 C 373.554688 421.164062 376.214844 423.824219 376.214844 427.113281 L 376.214844 453.113281 C 376.214844 456.390625 373.542969 459.0625 370.265625 459.0625 Z M 370.265625 459.0625 " fill-opacity="1" fill-rule="nonzero"/></g><g clip-path="url(#1f65ac5dd8)"><path fill="#8c52ff" d="M 553.730469 352.332031 C 553.46875 354.855469 552.832031 357.183594 551.996094 358.675781 C 550.945312 360.546875 548.453125 363.207031 546.855469 364.164062 C 545.648438 364.890625 543.882812 365.539062 541.714844 366.058594 C 537.660156 367.027344 534.375 367.320312 529.035156 367.199219 C 525.007812 367.109375 523.03125 366.96875 518.746094 366.480469 C 516.761719 366.253906 515.753906 366.191406 515.582031 366.28125 C 515.273438 366.445312 515.253906 366.867188 515.539062 367.105469 C 515.816406 367.335938 515.800781 367.707031 515.503906 367.976562 C 515.183594 368.261719 514.96875 368.292969 514.191406 368.171875 C 513.070312 367.992188 512.421875 367.191406 513.101562 366.828125 C 513.414062 366.660156 513.476562 366.097656 513.207031 365.890625 C 513.109375 365.816406 511.84375 365.519531 510.390625 365.226562 C 499.738281 363.09375 493.832031 360.992188 488.605469 357.488281 C 484.714844 354.875 482.417969 352.347656 479.832031 347.835938 C 477.613281 343.964844 476.652344 340.566406 476.648438 336.566406 C 476.640625 333.210938 477.410156 329.199219 478.707031 325.796875 C 479.394531 324 483.199219 315.867188 484.367188 313.695312 C 486.089844 310.5 488.085938 305.261719 488.683594 302.359375 C 489.03125 300.671875 489.203125 298.238281 489.109375 296.332031 C 488.96875 293.5625 488.503906 291.558594 486.597656 285.535156 C 485.164062 281.003906 484.128906 276.226562 483.734375 272.3125 C 483.472656 269.726562 483.628906 265.507812 484.070312 263.175781 C 484.648438 260.136719 485.3125 258.15625 486.449219 256.09375 C 487.609375 253.976562 489.128906 252.574219 490.769531 252.09375 C 491.699219 251.824219 491.867188 251.628906 491.753906 250.953125 C 491.535156 249.695312 491.558594 249.597656 492.089844 249.558594 C 492.359375 249.535156 492.890625 249.597656 493.273438 249.695312 C 494.121094 249.910156 494.25 250.277344 493.699219 250.929688 C 493.238281 251.480469 493.214844 252.214844 493.652344 252.554688 C 494.902344 253.53125 495.625 254.75 496.03125 256.558594 C 496.152344 257.097656 496.472656 259.523438 496.746094 261.953125 C 497.238281 266.359375 497.460938 267.757812 497.84375 268.828125 C 498.472656 270.605469 499.820312 272.5625 500.914062 273.285156 C 501.6875 273.796875 502.953125 274.183594 503.851562 274.183594 C 504.609375 274.183594 505.800781 273.820312 506.414062 273.402344 L 506.910156 273.066406 L 509.328125 154.011719 C 508.804688 152.605469 507.234375 151.253906 505.375 150.597656 C 504.234375 150.195312 503.816406 149.960938 503.566406 149.582031 C 503.089844 148.851562 503.09375 148.496094 503.582031 146.273438 C 504.074219 144.011719 504.140625 143.433594 503.921875 143.300781 C 503.847656 143.253906 503.4375 143.308594 503.003906 143.421875 C 502.34375 143.59375 502.058594 143.78125 501.21875 144.601562 C 500.113281 145.671875 499.628906 145.863281 498.683594 145.609375 C 497.785156 145.367188 496.960938 144.253906 496.960938 143.285156 C 496.960938 143.058594 496.777344 142.707031 496.484375 142.382812 C 495.980469 141.828125 495.734375 140.914062 495.90625 140.238281 C 496.03125 139.722656 496.773438 138.945312 497.320312 138.746094 C 497.582031 138.652344 497.832031 138.453125 497.878906 138.308594 C 498.042969 137.789062 498.929688 136.964844 499.480469 136.816406 C 500.625 136.507812 501.652344 137.085938 502.101562 138.292969 C 502.585938 139.585938 502.914062 140.117188 503.546875 140.636719 C 504.25 141.214844 504.566406 141.265625 504.753906 140.824219 C 504.96875 140.320312 506.144531 134.617188 506.144531 134.089844 C 506.144531 133.792969 506.066406 133.574219 505.941406 133.527344 C 505.828125 133.484375 505.300781 133.613281 504.765625 133.820312 C 503.980469 134.121094 503.679688 134.328125 503.160156 134.9375 C 502.359375 135.875 501.550781 136.234375 500.796875 135.984375 C 499.785156 135.652344 499.046875 134.722656 499.046875 133.78125 C 499.046875 133.53125 498.914062 133.261719 498.683594 133.046875 C 498.09375 132.507812 497.753906 131.601562 497.863281 130.875 C 497.972656 130.144531 498.578125 129.386719 499.230469 129.160156 C 499.542969 129.050781 499.761719 128.828125 499.960938 128.417969 C 500.519531 127.28125 501.660156 126.914062 502.886719 127.46875 C 503.617188 127.804688 503.96875 128.265625 504.335938 129.367188 C 504.589844 130.121094 504.757812 130.367188 505.441406 130.960938 C 506.335938 131.734375 506.644531 131.820312 506.835938 131.351562 C 506.984375 130.992188 508.371094 124.664062 508.371094 124.351562 C 508.371094 124.097656 507.84375 124.078125 507.054688 124.296875 C 506.691406 124.398438 506.199219 124.746094 505.589844 125.335938 C 504.453125 126.433594 503.625 126.839844 502.917969 126.640625 C 501.949219 126.375 501.28125 125.550781 501.058594 124.347656 C 501 124.039062 500.816406 123.691406 500.644531 123.554688 C 500.472656 123.421875 500.226562 123.046875 500.097656 122.722656 C 499.679688 121.671875 500.128906 120.515625 501.203125 119.886719 C 501.546875 119.683594 501.875 119.359375 501.972656 119.121094 C 502.550781 117.726562 504.597656 117.320312 505.625 118.394531 C 505.828125 118.605469 506.167969 119.277344 506.382812 119.886719 C 506.703125 120.804688 506.855469 121.050781 507.257812 121.308594 C 507.527344 121.476562 507.855469 121.714844 507.988281 121.832031 C 508.125 121.953125 508.386719 122.050781 508.574219 122.050781 C 508.855469 122.050781 508.945312 121.953125 509.054688 121.527344 C 509.347656 120.410156 510.460938 115.191406 510.460938 114.933594 C 510.460938 114.535156 510.199219 114.492188 509.269531 114.734375 C 508.570312 114.914062 508.308594 115.082031 507.539062 115.847656 C 506.410156 116.96875 505.808594 117.246094 504.996094 117.027344 C 504.113281 116.789062 503.4375 116.03125 503.210938 115.023438 C 503.109375 114.566406 502.910156 114.074219 502.765625 113.929688 C 502.320312 113.488281 501.9375 112.460938 502.027344 111.972656 C 502.164062 111.257812 502.625 110.644531 503.257812 110.335938 C 503.679688 110.132812 503.957031 109.859375 504.222656 109.382812 C 504.820312 108.308594 505.878906 107.988281 507.0625 108.523438 C 507.78125 108.851562 508.164062 109.34375 508.472656 110.332031 C 508.660156 110.925781 508.910156 111.3125 509.511719 111.925781 C 510.203125 112.632812 510.367188 112.730469 510.761719 112.691406 C 511.167969 112.652344 511.277344 112.542969 511.710938 111.753906 C 511.980469 111.265625 512.628906 110.402344 513.152344 109.839844 C 515.195312 107.644531 518.109375 106.925781 520.242188 108.085938 C 521.820312 108.949219 523.574219 111.230469 523.75 112.660156 C 523.796875 113.035156 523.929688 114.058594 524.046875 114.929688 C 524.257812 116.535156 524.21875 118.066406 523.933594 119.1875 C 523.816406 119.652344 523.832031 119.765625 524.03125 119.914062 C 524.210938 120.046875 524.246094 120.203125 524.179688 120.570312 C 524.035156 121.335938 523.710938 121.625 522.820312 121.765625 C 521.851562 121.921875 521.25 122.222656 520.636719 122.84375 C 520.183594 123.308594 520.171875 123.351562 520.226562 124.253906 C 520.285156 125.175781 520.578125 126.023438 522.378906 130.410156 C 523.484375 133.109375 524.367188 135.589844 524.519531 136.421875 C 524.710938 137.472656 524.792969 137.808594 525.34375 139.8125 C 525.574219 140.65625 525.859375 141.972656 525.976562 142.738281 C 526.09375 143.507812 526.25 144.5 526.320312 144.949219 C 526.546875 146.375 525.921875 147.355469 524.230469 148.238281 C 523.097656 148.828125 521.664062 150.023438 521.320312 150.664062 C 521.214844 150.863281 521.007812 151.0625 520.859375 151.109375 C 520.546875 151.210938 520.191406 151.980469 520.207031 152.527344 C 520.320312 160.234375 522.808594 286.617188 522.820312 286.058594 C 522.722656 286.3125 522.71875 286.5 522.804688 286.617188 C 522.882812 286.710938 523.082031 287.257812 523.253906 287.832031 C 523.808594 289.6875 524.449219 290.695312 525.554688 291.457031 C 527.164062 292.5625 530.246094 292.972656 531.988281 292.3125 C 533.511719 291.734375 535.058594 289.917969 535.90625 287.71875 C 536.136719 287.121094 536.671875 285.269531 537.09375 283.605469 C 537.972656 280.144531 538.390625 279.191406 539.339844 278.511719 C 540.703125 277.53125 542.171875 277.878906 543.839844 279.582031 C 546.140625 281.929688 547.207031 285.945312 547.011719 291.527344 C 546.839844 296.355469 545.988281 300.09375 543.285156 307.902344 C 541.199219 313.925781 541.054688 314.464844 540.96875 316.554688 C 540.855469 319.324219 541.207031 321.128906 542.359375 323.707031 C 543.015625 325.175781 544.78125 328.324219 546.21875 330.605469 C 550.203125 336.917969 551.960938 340.449219 552.914062 344.046875 C 553.683594 346.949219 553.976562 349.949219 553.730469 352.332031 Z M 546.972656 344.941406 C 545.941406 343.863281 544.273438 344.609375 544.273438 346.144531 C 544.273438 346.902344 545.003906 347.601562 545.796875 347.601562 C 546.523438 347.601562 546.855469 347.425781 547.207031 346.859375 C 547.582031 346.265625 547.484375 345.476562 546.972656 344.941406 Z M 545.042969 288.253906 C 544.484375 284.566406 543.035156 281.566406 541.8125 281.566406 C 541.355469 281.566406 540.601562 282.027344 540.25 282.523438 C 540.097656 282.734375 539.875 283.464844 539.746094 284.152344 C 539.488281 285.546875 538.519531 288.546875 537.742188 290.355469 C 537.160156 291.699219 535.914062 293.5625 534.917969 294.5625 C 534.128906 295.359375 532.589844 296.132812 531.34375 296.363281 C 530.675781 296.488281 530.125 296.488281 528.996094 296.363281 C 527.402344 296.183594 526.691406 295.914062 524.609375 294.714844 L 523.519531 294.085938 L 515.527344 294.101562 L 507.535156 294.113281 L 507.535156 291.179688 L 515.257812 291.179688 C 522.886719 291.179688 522.980469 291.175781 522.980469 290.898438 C 522.980469 290.625 522.886719 290.621094 515.1875 290.621094 L 507.398438 290.621094 L 507.398438 287.554688 L 514.980469 287.554688 C 522.472656 287.554688 522.5625 287.554688 522.5625 287.277344 C 522.5625 287.003906 522.472656 287 514.980469 287 L 507.398438 287 L 507.398438 284.636719 L 506.597656 284.003906 C 504.675781 282.492188 502.46875 282.414062 501.628906 283.828125 C 501.039062 284.816406 501.164062 285.625 502.730469 290.761719 C 503.136719 292.101562 503.511719 293.398438 503.5625 293.640625 C 503.6875 294.222656 503.003906 299.074219 502.636719 300.234375 C 502.476562 300.730469 501.972656 302.113281 501.515625 303.300781 C 499.09375 309.582031 497.917969 313.222656 497.445312 315.886719 C 496.898438 318.953125 497.550781 322.015625 499.246094 324.394531 C 499.949219 325.386719 500.570312 325.964844 501.679688 326.675781 C 502.75 327.363281 503.679688 327.621094 507.046875 328.167969 C 510 328.652344 525.351562 330.882812 525.707031 330.882812 C 525.921875 330.882812 526.0625 330.675781 527.757812 327.796875 C 529.214844 325.328125 530.398438 323.710938 530.894531 323.511719 C 531.25 323.371094 534.972656 322.707031 537.246094 322.378906 C 537.855469 322.289062 538.425781 322.164062 538.507812 322.09375 C 538.609375 322.015625 538.636719 321.34375 538.59375 320.101562 C 538.472656 316.492188 539.226562 313.363281 541.75 307.027344 C 544.011719 301.347656 544.683594 298.394531 544.960938 292.941406 C 545.03125 291.496094 545.125 290.277344 545.167969 290.234375 C 545.289062 290.113281 545.261719 289.6875 545.042969 288.253906 Z M 544.398438 292.921875 C 544.109375 298.390625 543.515625 300.960938 541.140625 306.992188 C 538.65625 313.292969 537.65625 317.644531 538 320.644531 C 538.058594 321.179688 538.101562 321.632812 538.089844 321.648438 C 538.078125 321.664062 537.007812 321.839844 535.707031 322.042969 C 531.089844 322.765625 530.648438 322.875 530.039062 323.464844 C 529.398438 324.082031 527.847656 326.394531 526.535156 328.691406 C 525.609375 330.3125 525.59375 330.332031 525.160156 330.257812 C 524.917969 330.214844 521.214844 329.679688 516.929688 329.0625 C 505.375 327.402344 503.851562 327.128906 502.5625 326.492188 C 500.027344 325.238281 498.328125 322.609375 497.910156 319.28125 C 497.550781 316.429688 498.324219 313.355469 501.546875 304.832031 C 502.371094 302.648438 503.144531 300.546875 503.265625 300.164062 C 503.574219 299.167969 504.238281 294.285156 504.144531 293.695312 C 504.101562 293.421875 503.777344 292.257812 503.425781 291.109375 C 502.359375 287.609375 501.832031 285.648438 501.832031 285.183594 C 501.832031 284.554688 502.21875 283.816406 502.675781 283.582031 C 503.554688 283.125 505.21875 283.566406 506.394531 284.558594 L 506.855469 284.945312 L 506.832031 288.308594 C 506.820312 290.15625 506.855469 292.214844 506.914062 292.886719 C 506.988281 293.765625 506.972656 294.105469 506.859375 294.105469 C 506.773438 294.105469 506.703125 294.230469 506.703125 294.382812 C 506.703125 294.535156 506.765625 294.660156 506.839844 294.660156 C 506.925781 294.660156 506.980469 295.195312 506.980469 295.984375 C 506.980469 296.773438 506.925781 297.308594 506.839844 297.308594 C 506.765625 297.308594 506.703125 297.433594 506.703125 297.585938 C 506.703125 297.742188 506.761719 297.867188 506.832031 297.867188 C 506.902344 297.867188 506.980469 298.039062 507.007812 298.25 C 507.046875 298.605469 507.128906 298.652344 508.285156 298.941406 C 512.472656 299.996094 517.089844 299.984375 521.105469 298.917969 C 521.792969 298.734375 522.527344 298.519531 522.738281 298.4375 L 523.121094 298.289062 L 523.121094 294.554688 L 524.96875 295.578125 C 526.570312 296.464844 526.972656 296.628906 528.046875 296.816406 C 530.882812 297.308594 532.976562 296.875 534.867188 295.402344 C 535.734375 294.726562 537.460938 292.339844 538.140625 290.878906 C 538.875 289.296875 539.878906 286.253906 540.222656 284.566406 C 540.519531 283.125 540.777344 282.617188 541.398438 282.261719 C 541.675781 282.105469 541.828125 282.089844 542.011719 282.207031 C 543.222656 282.960938 544.570312 286.949219 544.53125 289.648438 C 544.519531 290.296875 544.460938 291.769531 544.402344 292.921875 Z M 524.851562 315.082031 C 524.65625 314.886719 523.535156 314.863281 514.632812 314.863281 C 505.726562 314.863281 504.609375 314.886719 504.414062 315.082031 C 504.09375 315.398438 504.09375 318.503906 504.414062 318.824219 C 504.609375 319.015625 505.726562 319.042969 514.632812 319.042969 C 523.535156 319.042969 524.65625 319.015625 524.851562 318.824219 C 525.023438 318.648438 525.070312 318.269531 525.070312 316.953125 C 525.070312 315.636719 525.023438 315.253906 524.851562 315.082031 Z M 523.058594 317.585938 C 522.871094 317.773438 522.585938 317.925781 522.425781 317.925781 C 522.265625 317.925781 521.980469 317.773438 521.792969 317.585938 C 521.605469 317.398438 521.449219 317.113281 521.449219 316.953125 C 521.449219 316.792969 521.605469 316.507812 521.792969 316.320312 C 521.980469 316.128906 522.265625 315.976562 522.425781 315.976562 C 522.800781 315.976562 523.398438 316.574219 523.398438 316.953125 C 523.398438 317.113281 523.246094 317.398438 523.058594 317.585938 Z M 519.160156 317.585938 C 518.972656 317.773438 518.6875 317.925781 518.527344 317.925781 C 518.367188 317.925781 518.085938 317.773438 517.894531 317.585938 C 517.707031 317.398438 517.554688 317.113281 517.554688 316.953125 C 517.554688 316.792969 517.707031 316.507812 517.894531 316.320312 C 518.085938 316.128906 518.367188 315.976562 518.527344 315.976562 C 518.902344 315.976562 519.503906 316.574219 519.503906 316.953125 C 519.503906 317.113281 519.347656 317.398438 519.160156 317.585938 Z M 515.402344 317.585938 C 515.214844 317.773438 514.933594 317.925781 514.773438 317.925781 C 514.613281 317.925781 514.328125 317.773438 514.140625 317.585938 C 513.953125 317.398438 513.796875 317.113281 513.796875 316.953125 C 513.796875 316.792969 513.953125 316.507812 514.140625 316.320312 C 514.328125 316.128906 514.613281 315.976562 514.773438 315.976562 C 515.148438 315.976562 515.746094 316.574219 515.746094 316.953125 C 515.746094 317.113281 515.59375 317.398438 515.402344 317.585938 Z M 511.648438 317.585938 C 511.460938 317.773438 511.175781 317.925781 511.015625 317.925781 C 510.855469 317.925781 510.570312 317.773438 510.382812 317.585938 C 510.195312 317.398438 510.039062 317.113281 510.039062 316.953125 C 510.039062 316.792969 510.195312 316.507812 510.382812 316.320312 C 510.570312 316.128906 510.855469 315.976562 511.015625 315.976562 C 511.390625 315.976562 511.988281 316.574219 511.988281 316.953125 C 511.988281 317.113281 511.835938 317.398438 511.648438 317.585938 Z M 507.75 317.585938 C 507.5625 317.773438 507.277344 317.925781 507.117188 317.925781 C 506.742188 317.925781 506.144531 317.328125 506.144531 316.953125 C 506.144531 316.574219 506.742188 315.976562 507.117188 315.976562 C 507.492188 315.976562 508.09375 316.574219 508.09375 316.953125 C 508.09375 317.113281 507.9375 317.398438 507.75 317.585938 Z M 515.050781 297.308594 L 507.535156 297.308594 L 507.535156 294.660156 L 522.5625 294.660156 L 522.5625 297.308594 Z M 521.347656 298.269531 C 519.296875 298.84375 518.191406 298.996094 515.507812 299.078125 C 512.6875 299.160156 510.699219 298.976562 508.589844 298.445312 C 506.503906 297.917969 507.082031 297.867188 514.96875 297.867188 C 519.070312 297.867188 522.425781 297.886719 522.425781 297.917969 C 522.425781 297.945312 521.9375 298.101562 521.347656 298.269531 Z M 542.335938 338.65625 C 542.003906 338.28125 541.832031 338.203125 541.347656 338.203125 C 540.859375 338.203125 540.695312 338.28125 540.34375 338.671875 C 539.980469 339.078125 539.9375 339.21875 540.003906 339.714844 C 540.160156 340.890625 541.496094 341.34375 542.332031 340.507812 C 542.886719 339.949219 542.890625 339.273438 542.335938 338.65625 Z M 538.589844 332.003906 C 538.296875 331.457031 537.578125 331.023438 536.964844 331.023438 C 536.355469 331.023438 535.632812 331.457031 535.34375 332.003906 C 534.847656 332.925781 535.171875 334.046875 536.070312 334.527344 C 536.988281 335.023438 538.109375 334.699219 538.589844 333.800781 C 538.730469 333.539062 538.84375 333.136719 538.84375 332.902344 C 538.84375 332.671875 538.730469 332.265625 538.589844 332.003906 Z M 534.9375 325.492188 C 534.605469 324.605469 533.609375 323.917969 532.667969 323.917969 C 530.582031 323.917969 529.472656 326.417969 530.867188 327.964844 C 532.328125 329.582031 535.058594 328.566406 535.082031 326.398438 C 535.085938 326.117188 535.019531 325.710938 534.941406 325.492188 Z M 526.242188 331.796875 C 526.046875 331.601562 524.820312 331.578125 514.839844 331.578125 C 504.859375 331.578125 503.636719 331.601562 503.441406 331.796875 C 503.25 331.988281 503.222656 332.636719 503.222656 336.804688 C 503.222656 340.96875 503.25 341.617188 503.441406 341.808594 C 503.636719 342.003906 504.859375 342.027344 514.839844 342.027344 C 524.820312 342.027344 526.046875 342.003906 526.242188 341.808594 C 526.429688 341.617188 526.460938 340.96875 526.460938 336.804688 C 526.460938 332.636719 526.429688 331.988281 526.242188 331.796875 Z M 523.335938 340.152344 C 523.148438 340.339844 522.863281 340.496094 522.703125 340.496094 C 522.328125 340.496094 521.730469 339.894531 521.730469 339.519531 C 521.730469 339.144531 522.328125 338.546875 522.703125 338.546875 C 523.078125 338.546875 523.675781 339.144531 523.675781 339.519531 C 523.675781 339.679688 523.523438 339.964844 523.335938 340.152344 Z M 523.335938 335 C 523.148438 335.1875 522.863281 335.339844 522.703125 335.339844 C 522.542969 335.339844 522.257812 335.1875 522.070312 335 C 521.882812 334.8125 521.730469 334.527344 521.730469 334.367188 C 521.730469 334.207031 521.882812 333.921875 522.070312 333.730469 C 522.257812 333.542969 522.542969 333.390625 522.703125 333.390625 C 523.078125 333.390625 523.675781 333.988281 523.675781 334.367188 C 523.675781 334.527344 523.523438 334.8125 523.335938 335 Z M 519.4375 340.152344 C 519.25 340.339844 518.964844 340.496094 518.804688 340.496094 C 518.429688 340.496094 517.832031 339.894531 517.832031 339.519531 C 517.832031 339.144531 518.429688 338.546875 518.804688 338.546875 C 519.183594 338.546875 519.78125 339.144531 519.78125 339.519531 C 519.78125 339.679688 519.628906 339.964844 519.4375 340.152344 Z M 519.4375 335 C 519.25 335.1875 518.964844 335.339844 518.804688 335.339844 C 518.644531 335.339844 518.363281 335.1875 518.175781 335 C 517.984375 334.8125 517.832031 334.527344 517.832031 334.367188 C 517.832031 334.207031 517.984375 333.921875 518.175781 333.730469 C 518.363281 333.542969 518.648438 333.390625 518.804688 333.390625 C 519.183594 333.390625 519.78125 333.988281 519.78125 334.367188 C 519.78125 334.527344 519.628906 334.8125 519.4375 335 Z M 515.5625 335.039062 C 515.144531 335.429688 514.617188 335.421875 514.238281 335.019531 C 513.847656 334.601562 513.855469 334.074219 514.257812 333.691406 C 514.675781 333.300781 515.199219 333.308594 515.582031 333.710938 C 515.972656 334.132812 515.964844 334.65625 515.558594 335.039062 Z M 515.402344 340.152344 C 515.214844 340.339844 514.929688 340.496094 514.769531 340.496094 C 514.394531 340.496094 513.796875 339.894531 513.796875 339.519531 C 513.796875 339.144531 514.394531 338.546875 514.769531 338.546875 C 515.148438 338.546875 515.746094 339.144531 515.746094 339.519531 C 515.746094 339.679688 515.589844 339.964844 515.402344 340.152344 Z M 511.507812 340.152344 C 511.320312 340.339844 511.035156 340.496094 510.875 340.496094 C 510.5 340.496094 509.902344 339.894531 509.902344 339.519531 C 509.902344 339.144531 510.5 338.546875 510.875 338.546875 C 511.25 338.546875 511.847656 339.144531 511.847656 339.519531 C 511.847656 339.679688 511.695312 339.964844 511.507812 340.152344 Z M 511.507812 334.859375 C 511.320312 335.046875 511.035156 335.203125 510.875 335.203125 C 510.714844 335.203125 510.429688 335.046875 510.242188 334.859375 C 510.054688 334.671875 509.902344 334.386719 509.902344 334.226562 C 509.902344 334.066406 510.054688 333.78125 510.242188 333.59375 C 510.429688 333.40625 510.714844 333.25 510.875 333.25 C 511.25 333.25 511.847656 333.851562 511.847656 334.226562 C 511.847656 334.386719 511.695312 334.671875 511.507812 334.859375 Z M 507.609375 334.859375 C 507.421875 335.046875 507.136719 335.203125 506.976562 335.203125 C 506.601562 335.203125 506.003906 334.601562 506.003906 334.226562 C 506.003906 333.851562 506.601562 333.25 506.976562 333.25 C 507.355469 333.25 507.953125 333.851562 507.953125 334.226562 C 507.953125 334.386719 507.796875 334.671875 507.609375 334.859375 Z M 507.472656 340.152344 C 507.285156 340.339844 507 340.496094 506.839844 340.496094 C 506.679688 340.496094 506.394531 340.339844 506.207031 340.152344 C 506.019531 339.964844 505.863281 339.679688 505.863281 339.519531 C 505.863281 339.359375 506.019531 339.074219 506.207031 338.886719 C 506.394531 338.699219 506.679688 338.546875 506.839844 338.546875 C 507 338.546875 507.285156 338.699219 507.472656 338.886719 C 507.660156 339.074219 507.8125 339.359375 507.8125 339.519531 C 507.8125 339.679688 507.660156 339.964844 507.472656 340.152344 Z M 514.769531 283.097656 C 507.070312 283.097656 506.976562 283.101562 506.976562 283.378906 C 506.976562 283.652344 507.070312 283.65625 514.769531 283.65625 C 522.46875 283.65625 522.5625 283.652344 522.5625 283.378906 C 522.5625 283.101562 522.46875 283.097656 514.769531 283.097656 Z M 514.769531 279.058594 C 507.070312 279.058594 506.976562 279.0625 506.976562 279.335938 C 506.976562 279.613281 507.070312 279.617188 514.769531 279.617188 C 522.46875 279.617188 522.5625 279.613281 522.5625 279.335938 C 522.5625 279.0625 522.46875 279.058594 514.769531 279.058594 Z M 514.839844 274.738281 C 507.347656 274.738281 507.257812 274.742188 507.257812 275.019531 C 507.257812 275.292969 507.347656 275.296875 514.839844 275.296875 C 522.332031 275.296875 522.425781 275.292969 522.425781 275.019531 C 522.425781 274.742188 522.332031 274.738281 514.839844 274.738281 Z M 514.839844 270.003906 C 507.488281 270.003906 507.394531 270.007812 507.394531 270.28125 C 507.394531 270.558594 507.488281 270.558594 514.839844 270.558594 C 522.191406 270.558594 522.285156 270.558594 522.285156 270.28125 C 522.285156 270.007812 522.191406 270.003906 514.839844 270.003906 Z M 514.839844 265.265625 C 507.628906 265.265625 507.535156 265.269531 507.535156 265.546875 C 507.535156 265.820312 507.628906 265.824219 514.839844 265.824219 C 522.054688 265.824219 522.144531 265.820312 522.144531 265.546875 C 522.144531 265.269531 522.054688 265.265625 514.839844 265.265625 Z M 514.839844 260.113281 C 507.765625 260.113281 507.671875 260.117188 507.671875 260.390625 C 507.671875 260.664062 507.765625 260.667969 514.839844 260.667969 C 521.914062 260.667969 522.007812 260.664062 522.007812 260.390625 C 522.007812 260.117188 521.914062 260.113281 514.839844 260.113281 Z M 521.777344 140.167969 C 521.316406 139.382812 520.441406 139.132812 519.585938 139.539062 C 518.414062 140.09375 518.371094 141.769531 519.507812 142.441406 C 520.945312 143.292969 522.628906 141.605469 521.777344 140.167969 Z M 514.839844 254.539062 C 507.90625 254.539062 507.8125 254.542969 507.8125 254.816406 C 507.8125 255.089844 507.90625 255.09375 514.839844 255.09375 C 521.773438 255.09375 521.867188 255.089844 521.867188 254.816406 C 521.867188 254.542969 521.773438 254.539062 514.839844 254.539062 Z M 514.839844 248.6875 C 508.046875 248.6875 507.953125 248.691406 507.953125 248.964844 C 507.953125 249.238281 508.046875 249.242188 514.839844 249.242188 C 521.636719 249.242188 521.726562 249.238281 521.726562 248.964844 C 521.726562 248.691406 521.636719 248.6875 514.839844 248.6875 Z M 514.769531 242.558594 C 508.046875 242.558594 507.953125 242.5625 507.953125 242.835938 C 507.953125 243.109375 508.046875 243.113281 514.769531 243.113281 C 521.496094 243.113281 521.589844 243.109375 521.589844 242.835938 C 521.589844 242.5625 521.496094 242.558594 514.769531 242.558594 Z M 514.839844 236.148438 C 508.324219 236.148438 508.230469 236.152344 508.230469 236.425781 C 508.230469 236.703125 508.324219 236.707031 514.839844 236.707031 C 521.355469 236.707031 521.449219 236.703125 521.449219 236.425781 C 521.449219 236.152344 521.355469 236.148438 514.839844 236.148438 Z M 514.839844 229.183594 C 508.460938 229.183594 508.371094 229.1875 508.371094 229.460938 C 508.371094 229.734375 508.460938 229.738281 514.839844 229.738281 C 521.21875 229.738281 521.3125 229.734375 521.3125 229.460938 C 521.3125 229.1875 521.21875 229.183594 514.839844 229.183594 Z M 514.839844 221.9375 C 508.601562 221.9375 508.507812 221.941406 508.507812 222.21875 C 508.507812 222.492188 508.601562 222.496094 514.839844 222.496094 C 521.078125 222.496094 521.171875 222.492188 521.171875 222.21875 C 521.171875 221.941406 521.078125 221.9375 514.839844 221.9375 Z M 514.910156 214.277344 C 508.878906 214.277344 508.785156 214.28125 508.785156 214.554688 C 508.785156 214.828125 508.878906 214.832031 514.910156 214.832031 C 520.941406 214.832031 521.03125 214.828125 521.03125 214.554688 C 521.03125 214.28125 520.941406 214.277344 514.910156 214.277344 Z M 514.839844 206.054688 C 509.019531 206.054688 508.925781 206.0625 508.925781 206.335938 C 508.925781 206.609375 509.019531 206.613281 514.839844 206.613281 C 520.660156 206.613281 520.753906 206.609375 520.753906 206.335938 C 520.753906 206.0625 520.660156 206.054688 514.839844 206.054688 Z M 514.839844 197.417969 C 509.160156 197.417969 509.066406 197.421875 509.066406 197.699219 C 509.066406 197.972656 509.160156 197.976562 514.839844 197.976562 C 520.523438 197.976562 520.613281 197.972656 520.613281 197.699219 C 520.613281 197.421875 520.523438 197.417969 514.839844 197.417969 Z M 514.910156 188.363281 C 509.4375 188.363281 509.34375 188.367188 509.34375 188.640625 C 509.34375 188.917969 509.4375 188.921875 514.910156 188.921875 C 520.382812 188.921875 520.476562 188.917969 520.476562 188.640625 C 520.476562 188.367188 520.382812 188.363281 514.910156 188.363281 Z M 514.910156 178.613281 C 509.714844 178.613281 509.621094 178.617188 509.621094 178.890625 C 509.621094 179.164062 509.714844 179.167969 514.910156 179.167969 C 520.105469 179.167969 520.199219 179.164062 520.199219 178.890625 C 520.199219 178.617188 520.105469 178.613281 514.910156 178.613281 Z M 514.839844 168.441406 C 509.855469 168.441406 509.761719 168.445312 509.761719 168.71875 C 509.761719 168.992188 509.855469 169 514.839844 169 C 519.828125 169 519.917969 168.992188 519.917969 168.71875 C 519.917969 168.445312 519.828125 168.441406 514.839844 168.441406 Z M 514.839844 157.714844 C 510.132812 157.714844 510.039062 157.71875 510.039062 157.992188 C 510.039062 158.265625 510.132812 158.273438 514.839844 158.273438 C 519.546875 158.273438 519.640625 158.265625 519.640625 157.992188 C 519.640625 157.71875 519.546875 157.714844 514.839844 157.714844 Z M 517.1875 116.207031 C 516.722656 115.421875 515.847656 115.167969 514.996094 115.574219 C 513.824219 116.132812 513.777344 117.808594 514.914062 118.480469 C 516.351562 119.328125 518.035156 117.644531 517.1875 116.207031 Z M 514.960938 125.679688 C 514.5 124.894531 513.621094 124.644531 512.769531 125.046875 C 511.597656 125.605469 511.550781 127.28125 512.6875 127.953125 C 514.125 128.804688 515.808594 127.117188 514.960938 125.679688 Z M 512.875 135.429688 C 512.410156 134.648438 511.535156 134.394531 510.679688 134.800781 C 509.507812 135.355469 509.464844 137.03125 510.601562 137.703125 C 512.039062 138.554688 513.722656 136.871094 512.875 135.429688 Z M 510.785156 145.042969 C 510.324219 144.261719 509.445312 144.007812 508.59375 144.414062 C 507.421875 144.96875 507.375 146.644531 508.515625 147.316406 C 509.953125 148.167969 511.636719 146.480469 510.785156 145.042969 Z M 534.105469 137.097656 C 534.023438 137.289062 533.78125 137.632812 533.566406 137.863281 C 533.285156 138.160156 533.152344 138.46875 533.101562 138.941406 C 533.007812 139.847656 532.691406 140.265625 531.789062 140.679688 C 530.707031 141.175781 530.1875 141.003906 528.929688 139.738281 C 528.207031 139.011719 527.816406 138.734375 527.257812 138.554688 C 526.855469 138.421875 526.46875 138.261719 526.398438 138.195312 C 526.324219 138.128906 526.042969 138.070312 525.769531 138.070312 C 525.085938 138.066406 524.929688 137.929688 524.890625 137.300781 C 524.863281 136.808594 524.898438 136.742188 525.277344 136.609375 C 525.507812 136.527344 526.082031 136.097656 526.558594 135.648438 C 527.207031 135.039062 527.5 134.640625 527.714844 134.058594 C 527.875 133.628906 528.113281 133.097656 528.242188 132.875 C 528.527344 132.382812 529.347656 131.941406 529.976562 131.941406 C 530.65625 131.941406 531.617188 132.609375 532.015625 133.355469 C 532.246094 133.792969 532.535156 134.085938 532.976562 134.320312 C 533.324219 134.507812 533.726562 134.828125 533.878906 135.03125 C 534.195312 135.464844 534.316406 136.585938 534.101562 137.097656 Z M 534.105469 137.097656 " fill-opacity="1" fill-rule="nonzero"/></g></svg>