<svg xmlns="http://www.w3.org/2000/svg" xmlns:xlink="http://www.w3.org/1999/xlink" width="122" zoomAndPan="magnify" viewBox="0 0 91.5 91.499997" height="122" preserveAspectRatio="xMidYMid meet" version="1.0"><defs><g/><clipPath id="a669957735"><path d="M 0 0 L 91.003906 0 L 91.003906 91.003906 L 0 91.003906 Z M 0 0 " clip-rule="nonzero"/></clipPath><clipPath id="5655d2ba09"><path d="M 30.917969 50.351562 L 60.007812 50.351562 L 60.007812 51 L 30.917969 51 Z M 30.917969 50.351562 " clip-rule="nonzero"/></clipPath><clipPath id="6337a42960"><path d="M 30.917969 50.351562 L 38 50.351562 L 38 51 L 30.917969 51 Z M 30.917969 50.351562 " clip-rule="nonzero"/></clipPath><clipPath id="4177329115"><path d="M 37 50.351562 L 39 50.351562 L 39 52 L 37 52 Z M 37 50.351562 " clip-rule="nonzero"/></clipPath><clipPath id="88f6097eb2"><path d="M 52 53 L 55 53 L 55 56.316406 L 52 56.316406 Z M 52 53 " clip-rule="nonzero"/></clipPath><clipPath id="8ce6276786"><path d="M 37 53 L 40 53 L 40 56.316406 L 37 56.316406 Z M 37 53 " clip-rule="nonzero"/></clipPath><clipPath id="526f70bfb7"><path d="M 58 54 L 60.007812 54 L 60.007812 56 L 58 56 Z M 58 54 " clip-rule="nonzero"/></clipPath><clipPath id="2c5333476a"><path d="M 59 55 L 60.007812 55 L 60.007812 56.316406 L 59 56.316406 Z M 59 55 " clip-rule="nonzero"/></clipPath><clipPath id="6d14974550"><path d="M 31 55 L 34 55 L 34 56.316406 L 31 56.316406 Z M 31 55 " clip-rule="nonzero"/></clipPath><clipPath id="4eacb7e429"><path d="M 44 53 L 46 53 L 46 56.316406 L 44 56.316406 Z M 44 53 " clip-rule="nonzero"/></clipPath><clipPath id="e8990c6ed5"><path d="M 46 53 L 48 53 L 48 56.316406 L 46 56.316406 Z M 46 53 " clip-rule="nonzero"/></clipPath><clipPath id="52a3a13afd"><path d="M 54.433594 30.65625 L 60.402344 30.65625 L 60.402344 50 L 54.433594 50 Z M 54.433594 30.65625 " clip-rule="nonzero"/></clipPath></defs><g clip-path="url(#a669957735)"><path fill="#ffffff" d="M 0 0 L 91.003906 0 L 91.003906 91.003906 L 0 91.003906 Z M 0 0 " fill-opacity="1" fill-rule="nonzero"/><path fill="#000000" d="M 0 0 L 91.003906 0 L 91.003906 91.003906 L 0 91.003906 Z M 0 0 " fill-opacity="1" fill-rule="nonzero"/></g><g fill="#8c52ff" fill-opacity="1"><g transform="translate(20.902028, 49.328884)"><g><path d="M 4.375 0 C 4.007812 0 3.675781 -0.125 3.375 -0.375 L 0.703125 -2.6875 C 0.492188 -2.863281 0.390625 -3.070312 0.390625 -3.3125 L 0.390625 -7.953125 L 1.984375 -7.953125 L 1.984375 -3.671875 L 4.375 -1.625 L 6.75 -3.671875 L 6.75 -7.953125 L 8.34375 -7.953125 L 8.34375 -3.3125 C 8.34375 -3.0625 8.242188 -2.851562 8.046875 -2.6875 L 5.359375 -0.375 C 5.066406 -0.125 4.738281 0 4.375 0 Z M 4.375 0 "/></g></g></g><g fill="#8c52ff" fill-opacity="1"><g transform="translate(32.107326, 49.328884)"><g><path d="M 8.34375 0 L 0.390625 0 L 0.390625 -1.59375 L 3.578125 -1.59375 L 3.578125 -6.359375 L 0.390625 -6.359375 L 0.390625 -7.953125 L 8.34375 -7.953125 L 8.34375 -6.359375 L 5.171875 -6.359375 L 5.171875 -1.59375 L 8.34375 -1.59375 Z M 8.34375 0 "/></g></g></g><g fill="#8c52ff" fill-opacity="1"><g transform="translate(43.312623, 49.328884)"><g><path d="M 8.34375 -6.359375 L 8.34375 -4.765625 C 8.34375 -4.546875 8.265625 -4.359375 8.109375 -4.203125 C 7.953125 -4.046875 7.765625 -3.96875 7.546875 -3.96875 C 7.765625 -3.96875 7.953125 -3.890625 8.109375 -3.734375 C 8.265625 -3.585938 8.34375 -3.40625 8.34375 -3.1875 L 8.34375 -1.59375 C 8.34375 -1.300781 8.269531 -1.035156 8.125 -0.796875 C 7.988281 -0.554688 7.800781 -0.363281 7.5625 -0.21875 C 7.320312 -0.0703125 7.050781 0 6.75 0 L 0.390625 0 L 0.390625 -7.953125 L 6.75 -7.953125 C 7.050781 -7.953125 7.320312 -7.878906 7.5625 -7.734375 C 7.800781 -7.585938 7.988281 -7.394531 8.125 -7.15625 C 8.269531 -6.914062 8.34375 -6.648438 8.34375 -6.359375 Z M 6.75 -6.359375 L 1.984375 -6.359375 L 1.984375 -4.765625 L 6.75 -4.765625 Z M 1.984375 -1.59375 L 6.75 -1.59375 L 6.75 -3.1875 L 1.984375 -3.1875 Z M 1.984375 -1.59375 "/></g></g></g><g fill="#8c52ff" fill-opacity="1"><g transform="translate(54.51792, 49.328884)"><g/></g></g><g fill="#8c52ff" fill-opacity="1"><g transform="translate(61.348849, 49.328884)"><g><path d="M 1.984375 0 L 0.390625 0 L 0.390625 -7.15625 C 0.390625 -7.375 0.46875 -7.5625 0.625 -7.71875 C 0.78125 -7.875 0.96875 -7.953125 1.1875 -7.953125 C 1.40625 -7.953125 1.597656 -7.875 1.765625 -7.71875 L 6.75 -2.71875 L 6.75 -7.953125 L 8.34375 -7.953125 L 8.34375 -0.796875 C 8.34375 -0.578125 8.265625 -0.390625 8.109375 -0.234375 C 7.953125 -0.078125 7.765625 0 7.546875 0 C 7.328125 0 7.140625 -0.078125 6.984375 -0.234375 L 1.984375 -5.234375 Z M 1.984375 0 "/></g></g></g><g clip-path="url(#5655d2ba09)"><path fill="#8c52ff" d="M 30.914062 50.699219 L 60.074219 50.699219 L 60.074219 50.929688 L 30.914062 50.929688 Z M 30.914062 50.699219 " fill-opacity="1" fill-rule="nonzero"/></g><g clip-path="url(#6337a42960)"><path fill="#ffffff" d="M 30.914062 50.695312 L 37.804688 50.695312 L 37.804688 50.929688 L 30.914062 50.929688 Z M 30.914062 50.695312 " fill-opacity="1" fill-rule="nonzero"/></g><g clip-path="url(#4177329115)"><path fill="#ffffff" d="M 38.261719 50.8125 C 38.261719 50.941406 38.214844 51.046875 38.128906 51.136719 C 38.039062 51.226562 37.929688 51.273438 37.804688 51.273438 C 37.675781 51.273438 37.570312 51.226562 37.480469 51.136719 C 37.390625 51.046875 37.34375 50.941406 37.34375 50.8125 C 37.34375 50.6875 37.390625 50.578125 37.480469 50.488281 C 37.570312 50.402344 37.675781 50.355469 37.804688 50.355469 C 37.929688 50.355469 38.039062 50.402344 38.128906 50.488281 C 38.214844 50.578125 38.261719 50.6875 38.261719 50.8125 Z M 38.261719 50.8125 " fill-opacity="1" fill-rule="nonzero"/></g><g clip-path="url(#88f6097eb2)"><path fill="#8c52ff" d="M 53.890625 53.9375 C 53.847656 53.957031 53.820312 54.003906 53.820312 54.050781 L 53.820312 54.953125 L 52.550781 54.15625 C 52.378906 54.050781 52.15625 54.171875 52.15625 54.375 L 52.15625 55.808594 C 52.15625 56.011719 52.378906 56.132812 52.550781 56.027344 L 53.820312 55.230469 L 53.820312 56.132812 C 53.820312 56.179688 53.847656 56.226562 53.890625 56.246094 C 53.976562 56.28125 54.0625 56.21875 54.0625 56.136719 L 54.0625 54.046875 C 54.0625 53.964844 53.976562 53.902344 53.890625 53.9375 Z M 53.890625 53.9375 " fill-opacity="1" fill-rule="nonzero"/></g><g clip-path="url(#8ce6276786)"><path fill="#8c52ff" d="M 38.164062 56.246094 C 38.210938 56.226562 38.234375 56.179688 38.234375 56.132812 L 38.234375 55.230469 L 39.503906 56.027344 C 39.675781 56.132812 39.898438 56.011719 39.898438 55.808594 L 39.898438 54.375 C 39.898438 54.171875 39.675781 54.050781 39.503906 54.15625 L 38.234375 54.953125 L 38.234375 54.050781 C 38.234375 54.003906 38.210938 53.957031 38.164062 53.9375 C 38.078125 53.902344 37.996094 53.964844 37.996094 54.046875 L 37.996094 56.136719 C 37.996094 56.21875 38.078125 56.28125 38.164062 56.246094 Z M 38.164062 56.246094 " fill-opacity="1" fill-rule="nonzero"/></g><g clip-path="url(#526f70bfb7)"><path fill="#8c52ff" d="M 58.167969 55.792969 C 58.125 55.792969 58.09375 55.789062 58.089844 55.789062 C 58.039062 55.785156 58.003906 55.738281 58.011719 55.6875 C 58.019531 55.636719 58.066406 55.601562 58.113281 55.609375 C 58.117188 55.609375 58.386719 55.640625 58.53125 55.476562 C 58.578125 55.417969 58.644531 55.332031 58.71875 55.230469 C 58.929688 54.945312 59.1875 54.589844 59.394531 54.511719 C 59.515625 54.464844 59.648438 54.457031 59.761719 54.464844 L 59.617188 54.28125 C 59.601562 54.261719 59.597656 54.246094 59.597656 54.226562 C 59.597656 54.199219 59.609375 54.171875 59.632812 54.152344 C 59.671875 54.121094 59.726562 54.128906 59.757812 54.167969 L 60.050781 54.542969 C 60.0625 54.558594 60.070312 54.578125 60.070312 54.597656 C 60.070312 54.605469 60.066406 54.613281 60.066406 54.621094 C 60.0625 54.632812 60.054688 54.644531 60.046875 54.65625 C 60.042969 54.660156 60.042969 54.660156 60.039062 54.664062 L 59.722656 54.964844 C 59.6875 55 59.628906 55 59.59375 54.964844 C 59.558594 54.925781 59.5625 54.871094 59.597656 54.835938 L 59.789062 54.652344 C 59.691406 54.640625 59.566406 54.640625 59.460938 54.683594 C 59.304688 54.742188 59.039062 55.101562 58.867188 55.335938 C 58.789062 55.441406 58.71875 55.535156 58.667969 55.59375 C 58.515625 55.769531 58.289062 55.792969 58.167969 55.792969 Z M 58.167969 55.792969 " fill-opacity="1" fill-rule="nonzero"/></g><g clip-path="url(#2c5333476a)"><path fill="#8c52ff" d="M 59.675781 56.050781 C 59.65625 56.050781 59.636719 56.042969 59.621094 56.03125 C 59.597656 56.015625 59.585938 55.988281 59.585938 55.960938 C 59.585938 55.941406 59.589844 55.921875 59.605469 55.902344 L 59.75 55.71875 C 59.636719 55.726562 59.503906 55.71875 59.378906 55.671875 C 59.289062 55.636719 59.1875 55.550781 59.054688 55.402344 C 59.023438 55.363281 59.027344 55.308594 59.066406 55.273438 C 59.101562 55.242188 59.160156 55.242188 59.191406 55.28125 C 59.328125 55.433594 59.40625 55.484375 59.445312 55.503906 C 59.554688 55.542969 59.679688 55.542969 59.777344 55.53125 L 59.585938 55.347656 C 59.550781 55.316406 59.546875 55.257812 59.582031 55.222656 C 59.617188 55.183594 59.675781 55.183594 59.710938 55.21875 L 60.027344 55.519531 C 60.0625 55.554688 60.066406 55.605469 60.039062 55.640625 L 59.746094 56.015625 C 59.730469 56.039062 59.703125 56.050781 59.675781 56.050781 Z M 59.675781 56.050781 " fill-opacity="1" fill-rule="nonzero"/></g><path fill="#8c52ff" d="M 58.726562 54.9375 C 58.699219 54.9375 58.671875 54.925781 58.652344 54.902344 C 58.617188 54.851562 58.59375 54.816406 58.574219 54.789062 C 58.554688 54.757812 58.539062 54.734375 58.519531 54.710938 C 58.371094 54.542969 58.105469 54.574219 58.101562 54.574219 C 58.050781 54.582031 58.007812 54.546875 58 54.496094 C 57.992188 54.445312 58.027344 54.402344 58.078125 54.394531 C 58.09375 54.394531 58.445312 54.351562 58.65625 54.589844 C 58.6875 54.625 58.703125 54.65625 58.726562 54.691406 C 58.746094 54.71875 58.765625 54.75 58.796875 54.792969 C 58.828125 54.835938 58.820312 54.890625 58.78125 54.921875 C 58.761719 54.933594 58.746094 54.9375 58.726562 54.9375 Z M 58.726562 54.9375 " fill-opacity="1" fill-rule="nonzero"/><g clip-path="url(#6d14974550)"><path fill="#8c52ff" d="M 33.488281 55.144531 C 33.480469 55.097656 33.4375 55.058594 33.390625 55.066406 C 33.339844 55.070312 33.304688 55.113281 33.3125 55.160156 C 33.332031 55.378906 33.261719 55.609375 33.09375 55.777344 C 32.796875 56.070312 32.316406 56.070312 32.023438 55.777344 L 31.957031 55.703125 L 32.183594 55.703125 C 32.230469 55.703125 32.269531 55.664062 32.269531 55.617188 C 32.269531 55.566406 32.230469 55.527344 32.183594 55.527344 L 31.765625 55.527344 C 31.738281 55.519531 31.707031 55.527344 31.683594 55.550781 C 31.683594 55.550781 31.683594 55.550781 31.683594 55.554688 C 31.683594 55.554688 31.683594 55.554688 31.679688 55.554688 C 31.664062 55.570312 31.65625 55.589844 31.65625 55.617188 L 31.65625 56.046875 C 31.65625 56.09375 31.695312 56.132812 31.742188 56.132812 C 31.789062 56.132812 31.828125 56.09375 31.828125 56.046875 L 31.828125 55.820312 L 31.898438 55.902344 C 32.273438 56.273438 32.882812 56.265625 33.246094 55.875 C 33.433594 55.671875 33.511719 55.402344 33.488281 55.144531 Z M 33.488281 55.144531 " fill-opacity="1" fill-rule="nonzero"/></g><path fill="#8c52ff" d="M 31.792969 55.320312 C 31.777344 55.109375 31.851562 54.894531 32.011719 54.734375 C 32.308594 54.441406 32.785156 54.441406 33.082031 54.734375 L 33.148438 54.808594 L 32.921875 54.808594 C 32.875 54.808594 32.835938 54.847656 32.835938 54.898438 C 32.835938 54.945312 32.875 54.984375 32.921875 54.984375 L 33.339844 54.984375 C 33.367188 54.992188 33.398438 54.984375 33.421875 54.960938 C 33.421875 54.957031 33.421875 54.957031 33.421875 54.957031 C 33.4375 54.941406 33.449219 54.921875 33.449219 54.898438 L 33.449219 54.46875 C 33.449219 54.417969 33.410156 54.378906 33.363281 54.378906 C 33.316406 54.378906 33.277344 54.417969 33.277344 54.46875 L 33.277344 54.691406 L 33.207031 54.613281 C 32.832031 54.238281 32.222656 54.246094 31.859375 54.636719 C 31.679688 54.832031 31.597656 55.082031 31.613281 55.332031 C 31.617188 55.378906 31.664062 55.417969 31.710938 55.414062 C 31.761719 55.410156 31.796875 55.367188 31.792969 55.320312 Z M 31.792969 55.320312 " fill-opacity="1" fill-rule="nonzero"/><g clip-path="url(#4eacb7e429)"><path fill="#8c52ff" d="M 45.015625 56.363281 C 44.777344 56.363281 44.582031 56.167969 44.582031 55.929688 L 44.582031 54.03125 C 44.582031 53.792969 44.777344 53.597656 45.015625 53.597656 C 45.257812 53.597656 45.449219 53.792969 45.449219 54.03125 L 45.449219 55.929688 C 45.453125 56.167969 45.257812 56.363281 45.015625 56.363281 Z M 45.015625 56.363281 " fill-opacity="1" fill-rule="nonzero"/></g><g clip-path="url(#e8990c6ed5)"><path fill="#8c52ff" d="M 46.667969 56.363281 C 46.425781 56.363281 46.230469 56.167969 46.230469 55.929688 L 46.230469 54.03125 C 46.230469 53.792969 46.425781 53.597656 46.667969 53.597656 C 46.90625 53.597656 47.101562 53.792969 47.101562 54.03125 L 47.101562 55.929688 C 47.101562 56.167969 46.90625 56.363281 46.667969 56.363281 Z M 46.667969 56.363281 " fill-opacity="1" fill-rule="nonzero"/></g><g clip-path="url(#52a3a13afd)"><path fill="#8c52ff" d="M 60.058594 48.566406 C 60.039062 48.75 59.992188 48.917969 59.933594 49.027344 C 59.855469 49.164062 59.671875 49.359375 59.558594 49.429688 C 59.46875 49.480469 59.339844 49.527344 59.183594 49.566406 C 58.886719 49.636719 58.644531 49.65625 58.257812 49.648438 C 57.964844 49.640625 57.820312 49.632812 57.507812 49.597656 C 57.363281 49.582031 57.289062 49.574219 57.277344 49.582031 C 57.253906 49.59375 57.25 49.625 57.273438 49.640625 C 57.292969 49.660156 57.292969 49.6875 57.269531 49.707031 C 57.246094 49.726562 57.230469 49.730469 57.175781 49.71875 C 57.09375 49.707031 57.046875 49.648438 57.09375 49.621094 C 57.117188 49.609375 57.121094 49.570312 57.101562 49.554688 C 57.09375 49.546875 57.003906 49.527344 56.898438 49.503906 C 56.121094 49.351562 55.6875 49.195312 55.308594 48.941406 C 55.023438 48.75 54.855469 48.566406 54.667969 48.238281 C 54.503906 47.953125 54.4375 47.707031 54.433594 47.414062 C 54.433594 47.167969 54.492188 46.875 54.585938 46.628906 C 54.636719 46.496094 54.914062 45.90625 55 45.746094 C 55.125 45.511719 55.269531 45.128906 55.3125 44.917969 C 55.339844 44.796875 55.351562 44.617188 55.34375 44.480469 C 55.335938 44.277344 55.300781 44.132812 55.160156 43.691406 C 55.054688 43.359375 54.980469 43.011719 54.953125 42.726562 C 54.933594 42.539062 54.945312 42.230469 54.976562 42.058594 C 55.019531 41.839844 55.066406 41.695312 55.148438 41.542969 C 55.234375 41.390625 55.347656 41.285156 55.464844 41.253906 C 55.535156 41.230469 55.546875 41.21875 55.535156 41.167969 C 55.519531 41.078125 55.523438 41.070312 55.5625 41.066406 C 55.582031 41.066406 55.621094 41.070312 55.648438 41.078125 C 55.710938 41.09375 55.71875 41.121094 55.679688 41.167969 C 55.644531 41.207031 55.644531 41.261719 55.675781 41.285156 C 55.765625 41.355469 55.820312 41.445312 55.847656 41.578125 C 55.859375 41.617188 55.882812 41.792969 55.902344 41.972656 C 55.9375 42.292969 55.953125 42.394531 55.980469 42.472656 C 56.027344 42.601562 56.125 42.746094 56.207031 42.796875 C 56.261719 42.835938 56.355469 42.863281 56.417969 42.863281 C 56.476562 42.863281 56.5625 42.835938 56.605469 42.804688 L 56.644531 42.78125 L 56.820312 34.097656 C 56.78125 33.992188 56.667969 33.894531 56.53125 33.847656 C 56.449219 33.816406 56.417969 33.800781 56.398438 33.773438 C 56.363281 33.71875 56.363281 33.695312 56.398438 33.53125 C 56.4375 33.367188 56.441406 33.324219 56.425781 33.316406 C 56.417969 33.3125 56.390625 33.316406 56.359375 33.324219 C 56.308594 33.335938 56.289062 33.351562 56.226562 33.410156 C 56.148438 33.488281 56.113281 33.503906 56.042969 33.484375 C 55.976562 33.464844 55.917969 33.382812 55.917969 33.3125 C 55.917969 33.296875 55.902344 33.273438 55.882812 33.25 C 55.84375 33.207031 55.828125 33.140625 55.839844 33.089844 C 55.847656 33.054688 55.902344 32.996094 55.941406 32.984375 C 55.960938 32.976562 55.980469 32.960938 55.984375 32.949219 C 55.996094 32.914062 56.0625 32.851562 56.101562 32.84375 C 56.183594 32.820312 56.257812 32.863281 56.292969 32.949219 C 56.328125 33.042969 56.351562 33.082031 56.398438 33.121094 C 56.449219 33.164062 56.472656 33.167969 56.484375 33.132812 C 56.5 33.097656 56.585938 32.683594 56.585938 32.644531 C 56.585938 32.621094 56.582031 32.605469 56.570312 32.601562 C 56.5625 32.597656 56.527344 32.609375 56.488281 32.625 C 56.429688 32.644531 56.40625 32.660156 56.371094 32.703125 C 56.3125 32.773438 56.253906 32.800781 56.195312 32.78125 C 56.125 32.757812 56.070312 32.6875 56.070312 32.621094 C 56.070312 32.601562 56.058594 32.582031 56.042969 32.566406 C 56 32.527344 55.976562 32.460938 55.984375 32.410156 C 55.992188 32.355469 56.035156 32.300781 56.082031 32.285156 C 56.105469 32.277344 56.121094 32.257812 56.136719 32.230469 C 56.175781 32.148438 56.261719 32.121094 56.347656 32.160156 C 56.402344 32.183594 56.429688 32.21875 56.457031 32.296875 C 56.472656 32.355469 56.484375 32.371094 56.535156 32.414062 C 56.601562 32.472656 56.625 32.476562 56.636719 32.445312 C 56.648438 32.417969 56.75 31.957031 56.75 31.933594 C 56.75 31.914062 56.710938 31.914062 56.652344 31.929688 C 56.625 31.9375 56.589844 31.960938 56.546875 32.003906 C 56.464844 32.085938 56.402344 32.113281 56.351562 32.101562 C 56.28125 32.082031 56.230469 32.019531 56.214844 31.933594 C 56.210938 31.910156 56.199219 31.882812 56.1875 31.875 C 56.171875 31.863281 56.15625 31.835938 56.144531 31.8125 C 56.117188 31.738281 56.148438 31.652344 56.226562 31.605469 C 56.25 31.59375 56.277344 31.570312 56.28125 31.550781 C 56.324219 31.449219 56.472656 31.417969 56.550781 31.5 C 56.5625 31.511719 56.589844 31.5625 56.605469 31.605469 C 56.628906 31.675781 56.640625 31.691406 56.667969 31.710938 C 56.6875 31.722656 56.710938 31.742188 56.722656 31.75 C 56.730469 31.757812 56.75 31.765625 56.765625 31.765625 C 56.785156 31.765625 56.792969 31.757812 56.800781 31.726562 C 56.820312 31.644531 56.902344 31.265625 56.902344 31.246094 C 56.902344 31.214844 56.882812 31.214844 56.816406 31.230469 C 56.765625 31.246094 56.746094 31.257812 56.6875 31.3125 C 56.605469 31.394531 56.5625 31.414062 56.503906 31.398438 C 56.4375 31.382812 56.390625 31.324219 56.375 31.253906 C 56.367188 31.21875 56.351562 31.183594 56.339844 31.171875 C 56.308594 31.140625 56.28125 31.066406 56.285156 31.03125 C 56.296875 30.976562 56.332031 30.933594 56.375 30.910156 C 56.40625 30.894531 56.425781 30.875 56.445312 30.839844 C 56.492188 30.761719 56.566406 30.738281 56.652344 30.777344 C 56.707031 30.800781 56.734375 30.835938 56.757812 30.910156 C 56.769531 30.953125 56.789062 30.980469 56.832031 31.027344 C 56.882812 31.078125 56.894531 31.085938 56.925781 31.082031 C 56.953125 31.078125 56.960938 31.070312 56.992188 31.015625 C 57.011719 30.976562 57.058594 30.914062 57.097656 30.875 C 57.246094 30.714844 57.460938 30.660156 57.617188 30.746094 C 57.730469 30.808594 57.859375 30.976562 57.871094 31.078125 C 57.875 31.105469 57.882812 31.183594 57.894531 31.246094 C 57.910156 31.363281 57.90625 31.472656 57.882812 31.554688 C 57.875 31.589844 57.878906 31.597656 57.890625 31.609375 C 57.90625 31.617188 57.90625 31.628906 57.902344 31.65625 C 57.890625 31.710938 57.867188 31.734375 57.804688 31.746094 C 57.734375 31.753906 57.6875 31.777344 57.644531 31.824219 C 57.609375 31.855469 57.609375 31.859375 57.613281 31.925781 C 57.617188 31.992188 57.640625 32.054688 57.769531 32.375 C 57.851562 32.570312 57.917969 32.753906 57.925781 32.8125 C 57.941406 32.890625 57.949219 32.914062 57.988281 33.0625 C 58.003906 33.121094 58.027344 33.21875 58.035156 33.273438 C 58.042969 33.332031 58.054688 33.402344 58.058594 33.4375 C 58.074219 33.539062 58.03125 33.609375 57.90625 33.675781 C 57.824219 33.71875 57.71875 33.804688 57.695312 33.851562 C 57.6875 33.867188 57.671875 33.882812 57.660156 33.886719 C 57.636719 33.890625 57.613281 33.949219 57.613281 33.988281 C 57.621094 34.550781 57.800781 43.769531 57.804688 43.730469 C 57.796875 43.75 57.796875 43.761719 57.800781 43.769531 C 57.808594 43.777344 57.824219 43.816406 57.835938 43.859375 C 57.875 43.996094 57.921875 44.066406 58.003906 44.125 C 58.121094 44.203125 58.34375 44.234375 58.472656 44.1875 C 58.582031 44.144531 58.695312 44.011719 58.757812 43.851562 C 58.773438 43.808594 58.8125 43.671875 58.84375 43.550781 C 58.910156 43.296875 58.941406 43.230469 59.007812 43.179688 C 59.109375 43.109375 59.214844 43.132812 59.335938 43.257812 C 59.503906 43.429688 59.582031 43.722656 59.566406 44.128906 C 59.554688 44.480469 59.492188 44.753906 59.296875 45.324219 C 59.144531 45.761719 59.132812 45.800781 59.128906 45.953125 C 59.121094 46.15625 59.144531 46.289062 59.230469 46.476562 C 59.277344 46.582031 59.40625 46.8125 59.511719 46.980469 C 59.800781 47.441406 59.929688 47.699219 60 47.960938 C 60.054688 48.171875 60.078125 48.390625 60.058594 48.566406 Z M 59.566406 48.023438 C 59.492188 47.945312 59.367188 48 59.367188 48.113281 C 59.367188 48.167969 59.421875 48.21875 59.480469 48.21875 C 59.53125 48.21875 59.558594 48.207031 59.582031 48.164062 C 59.609375 48.121094 59.601562 48.066406 59.566406 48.023438 Z M 59.425781 43.890625 C 59.382812 43.621094 59.277344 43.402344 59.1875 43.402344 C 59.15625 43.402344 59.101562 43.4375 59.074219 43.472656 C 59.0625 43.488281 59.046875 43.539062 59.039062 43.589844 C 59.019531 43.691406 58.949219 43.910156 58.890625 44.042969 C 58.851562 44.140625 58.757812 44.277344 58.6875 44.351562 C 58.628906 44.40625 58.515625 44.464844 58.425781 44.480469 C 58.375 44.492188 58.335938 44.492188 58.253906 44.480469 C 58.136719 44.46875 58.085938 44.449219 57.933594 44.359375 L 57.855469 44.316406 L 56.6875 44.316406 L 56.6875 44.101562 L 57.25 44.101562 C 57.808594 44.101562 57.816406 44.101562 57.816406 44.082031 C 57.816406 44.0625 57.808594 44.0625 57.246094 44.0625 L 56.679688 44.0625 L 56.679688 43.839844 L 57.230469 43.839844 C 57.777344 43.839844 57.785156 43.839844 57.785156 43.820312 C 57.785156 43.796875 57.777344 43.796875 57.230469 43.796875 L 56.679688 43.796875 L 56.679688 43.625 L 56.621094 43.578125 C 56.480469 43.46875 56.320312 43.464844 56.257812 43.566406 C 56.214844 43.640625 56.222656 43.699219 56.335938 44.074219 C 56.367188 44.171875 56.394531 44.265625 56.398438 44.28125 C 56.40625 44.324219 56.359375 44.679688 56.332031 44.765625 C 56.320312 44.800781 56.28125 44.902344 56.25 44.988281 C 56.074219 45.445312 55.988281 45.710938 55.953125 45.90625 C 55.914062 46.128906 55.960938 46.351562 56.082031 46.527344 C 56.136719 46.597656 56.179688 46.640625 56.261719 46.691406 C 56.339844 46.742188 56.40625 46.761719 56.652344 46.800781 C 56.867188 46.835938 57.988281 47 58.015625 47 C 58.03125 47 58.039062 46.984375 58.164062 46.773438 C 58.269531 46.59375 58.355469 46.476562 58.390625 46.460938 C 58.417969 46.453125 58.691406 46.402344 58.855469 46.378906 C 58.902344 46.371094 58.941406 46.363281 58.949219 46.359375 C 58.957031 46.351562 58.957031 46.304688 58.953125 46.214844 C 58.945312 45.949219 59 45.722656 59.183594 45.257812 C 59.351562 44.84375 59.398438 44.628906 59.417969 44.230469 C 59.425781 44.125 59.429688 44.039062 59.433594 44.035156 C 59.441406 44.027344 59.441406 43.996094 59.425781 43.890625 Z M 59.378906 44.230469 C 59.355469 44.628906 59.3125 44.816406 59.140625 45.257812 C 58.960938 45.714844 58.886719 46.035156 58.910156 46.253906 C 58.914062 46.292969 58.917969 46.324219 58.917969 46.324219 C 58.917969 46.328125 58.839844 46.339844 58.742188 46.355469 C 58.40625 46.40625 58.375 46.414062 58.332031 46.457031 C 58.285156 46.503906 58.171875 46.671875 58.074219 46.839844 C 58.007812 46.957031 58.003906 46.960938 57.972656 46.953125 C 57.957031 46.953125 57.6875 46.910156 57.375 46.867188 C 56.53125 46.746094 56.417969 46.726562 56.324219 46.679688 C 56.140625 46.589844 56.015625 46.394531 55.984375 46.152344 C 55.960938 45.945312 56.015625 45.722656 56.25 45.097656 C 56.3125 44.941406 56.367188 44.785156 56.378906 44.757812 C 56.398438 44.6875 56.449219 44.328125 56.441406 44.285156 C 56.4375 44.265625 56.414062 44.183594 56.390625 44.097656 C 56.3125 43.84375 56.273438 43.699219 56.273438 43.667969 C 56.273438 43.621094 56.300781 43.566406 56.335938 43.550781 C 56.398438 43.515625 56.519531 43.546875 56.605469 43.621094 L 56.640625 43.648438 L 56.636719 43.894531 C 56.636719 44.027344 56.640625 44.179688 56.644531 44.226562 C 56.648438 44.292969 56.648438 44.316406 56.640625 44.316406 C 56.632812 44.316406 56.628906 44.324219 56.628906 44.335938 C 56.628906 44.347656 56.632812 44.359375 56.636719 44.359375 C 56.644531 44.359375 56.648438 44.394531 56.648438 44.453125 C 56.648438 44.511719 56.644531 44.550781 56.636719 44.550781 C 56.632812 44.550781 56.628906 44.558594 56.628906 44.570312 C 56.628906 44.582031 56.632812 44.589844 56.636719 44.589844 C 56.640625 44.589844 56.648438 44.605469 56.648438 44.617188 C 56.652344 44.644531 56.660156 44.648438 56.742188 44.667969 C 57.046875 44.746094 57.386719 44.746094 57.679688 44.667969 C 57.730469 44.65625 57.78125 44.640625 57.796875 44.632812 L 57.824219 44.621094 L 57.824219 44.347656 L 57.960938 44.425781 C 58.078125 44.488281 58.105469 44.5 58.183594 44.515625 C 58.390625 44.550781 58.542969 44.519531 58.683594 44.410156 C 58.746094 44.363281 58.871094 44.1875 58.921875 44.082031 C 58.976562 43.964844 59.046875 43.742188 59.074219 43.621094 C 59.09375 43.515625 59.113281 43.480469 59.160156 43.453125 C 59.179688 43.441406 59.191406 43.441406 59.203125 43.449219 C 59.292969 43.503906 59.390625 43.792969 59.386719 43.992188 C 59.386719 44.039062 59.382812 44.148438 59.378906 44.230469 Z M 57.953125 45.847656 C 57.9375 45.832031 57.855469 45.832031 57.207031 45.832031 C 56.554688 45.832031 56.476562 45.832031 56.460938 45.847656 C 56.4375 45.871094 56.4375 46.097656 56.460938 46.121094 C 56.476562 46.132812 56.554688 46.136719 57.207031 46.136719 C 57.855469 46.136719 57.9375 46.132812 57.953125 46.121094 C 57.964844 46.105469 57.96875 46.078125 57.96875 45.984375 C 57.96875 45.886719 57.964844 45.859375 57.953125 45.847656 Z M 57.820312 46.03125 C 57.808594 46.042969 57.785156 46.054688 57.773438 46.054688 C 57.761719 46.054688 57.742188 46.042969 57.730469 46.03125 C 57.714844 46.015625 57.703125 45.996094 57.703125 45.984375 C 57.703125 45.972656 57.714844 45.949219 57.730469 45.9375 C 57.742188 45.921875 57.761719 45.914062 57.773438 45.914062 C 57.800781 45.914062 57.847656 45.957031 57.847656 45.984375 C 57.847656 45.996094 57.835938 46.015625 57.820312 46.03125 Z M 57.535156 46.03125 C 57.523438 46.042969 57.503906 46.054688 57.492188 46.054688 C 57.480469 46.054688 57.457031 46.042969 57.445312 46.03125 C 57.429688 46.015625 57.417969 45.996094 57.417969 45.984375 C 57.417969 45.972656 57.429688 45.949219 57.445312 45.9375 C 57.457031 45.921875 57.480469 45.914062 57.492188 45.914062 C 57.519531 45.914062 57.5625 45.957031 57.5625 45.984375 C 57.5625 45.996094 57.550781 46.015625 57.535156 46.03125 Z M 57.261719 46.03125 C 57.25 46.042969 57.226562 46.054688 57.214844 46.054688 C 57.203125 46.054688 57.183594 46.042969 57.171875 46.03125 C 57.15625 46.015625 57.144531 45.996094 57.144531 45.984375 C 57.144531 45.972656 57.15625 45.949219 57.171875 45.9375 C 57.183594 45.921875 57.203125 45.914062 57.214844 45.914062 C 57.242188 45.914062 57.289062 45.957031 57.289062 45.984375 C 57.289062 45.996094 57.277344 46.015625 57.261719 46.03125 Z M 56.988281 46.03125 C 56.976562 46.042969 56.953125 46.054688 56.941406 46.054688 C 56.929688 46.054688 56.910156 46.042969 56.894531 46.03125 C 56.882812 46.015625 56.871094 45.996094 56.871094 45.984375 C 56.871094 45.972656 56.882812 45.949219 56.894531 45.9375 C 56.910156 45.921875 56.929688 45.914062 56.941406 45.914062 C 56.96875 45.914062 57.011719 45.957031 57.011719 45.984375 C 57.011719 45.996094 57.003906 46.015625 56.988281 46.03125 Z M 56.703125 46.03125 C 56.691406 46.042969 56.667969 46.054688 56.65625 46.054688 C 56.628906 46.054688 56.585938 46.011719 56.585938 45.984375 C 56.585938 45.957031 56.628906 45.914062 56.65625 45.914062 C 56.683594 45.914062 56.730469 45.957031 56.730469 45.984375 C 56.730469 45.996094 56.71875 46.015625 56.703125 46.03125 Z M 57.238281 44.550781 L 56.6875 44.550781 L 56.6875 44.355469 L 57.785156 44.355469 L 57.785156 44.550781 Z M 57.695312 44.621094 C 57.546875 44.664062 57.464844 44.671875 57.269531 44.679688 C 57.0625 44.6875 56.917969 44.671875 56.765625 44.632812 C 56.613281 44.59375 56.65625 44.589844 57.230469 44.589844 C 57.53125 44.589844 57.773438 44.59375 57.773438 44.59375 C 57.773438 44.597656 57.738281 44.609375 57.695312 44.621094 Z M 59.226562 47.566406 C 59.203125 47.539062 59.191406 47.535156 59.15625 47.535156 C 59.121094 47.535156 59.109375 47.539062 59.082031 47.566406 C 59.054688 47.597656 59.050781 47.609375 59.058594 47.644531 C 59.070312 47.730469 59.167969 47.761719 59.226562 47.703125 C 59.269531 47.660156 59.269531 47.613281 59.226562 47.566406 Z M 58.953125 47.082031 C 58.933594 47.042969 58.878906 47.011719 58.835938 47.011719 C 58.792969 47.011719 58.738281 47.042969 58.71875 47.082031 C 58.679688 47.148438 58.703125 47.230469 58.769531 47.265625 C 58.835938 47.300781 58.917969 47.277344 58.953125 47.210938 C 58.964844 47.195312 58.972656 47.164062 58.972656 47.148438 C 58.972656 47.128906 58.964844 47.101562 58.953125 47.082031 Z M 58.6875 46.605469 C 58.664062 46.542969 58.589844 46.492188 58.523438 46.492188 C 58.371094 46.492188 58.289062 46.675781 58.390625 46.789062 C 58.496094 46.90625 58.695312 46.832031 58.699219 46.671875 C 58.699219 46.652344 58.695312 46.621094 58.6875 46.605469 Z M 58.054688 47.066406 C 58.039062 47.050781 57.949219 47.050781 57.222656 47.050781 C 56.492188 47.050781 56.402344 47.050781 56.390625 47.066406 C 56.375 47.082031 56.375 47.128906 56.375 47.433594 C 56.375 47.734375 56.375 47.78125 56.390625 47.796875 C 56.402344 47.8125 56.492188 47.8125 57.222656 47.8125 C 57.949219 47.8125 58.039062 47.8125 58.054688 47.796875 C 58.066406 47.78125 58.070312 47.734375 58.070312 47.433594 C 58.070312 47.128906 58.066406 47.082031 58.054688 47.066406 Z M 57.839844 47.675781 C 57.828125 47.691406 57.808594 47.699219 57.796875 47.699219 C 57.769531 47.699219 57.722656 47.65625 57.722656 47.628906 C 57.722656 47.601562 57.769531 47.558594 57.796875 47.558594 C 57.824219 47.558594 57.867188 47.601562 57.867188 47.628906 C 57.867188 47.640625 57.855469 47.664062 57.839844 47.675781 Z M 57.839844 47.300781 C 57.828125 47.3125 57.808594 47.324219 57.796875 47.324219 C 57.785156 47.324219 57.761719 47.3125 57.75 47.300781 C 57.734375 47.285156 57.722656 47.265625 57.722656 47.253906 C 57.722656 47.242188 57.734375 47.222656 57.75 47.207031 C 57.761719 47.195312 57.785156 47.183594 57.796875 47.183594 C 57.824219 47.183594 57.867188 47.226562 57.867188 47.253906 C 57.867188 47.265625 57.855469 47.285156 57.839844 47.300781 Z M 57.558594 47.675781 C 57.542969 47.691406 57.523438 47.699219 57.511719 47.699219 C 57.484375 47.699219 57.441406 47.65625 57.441406 47.628906 C 57.441406 47.601562 57.484375 47.558594 57.511719 47.558594 C 57.539062 47.558594 57.582031 47.601562 57.582031 47.628906 C 57.582031 47.640625 57.570312 47.664062 57.558594 47.675781 Z M 57.558594 47.300781 C 57.542969 47.3125 57.523438 47.324219 57.511719 47.324219 C 57.5 47.324219 57.476562 47.3125 57.464844 47.300781 C 57.449219 47.285156 57.441406 47.265625 57.441406 47.253906 C 57.441406 47.242188 57.449219 47.222656 57.464844 47.207031 C 57.476562 47.195312 57.5 47.183594 57.511719 47.183594 C 57.539062 47.183594 57.582031 47.226562 57.582031 47.253906 C 57.582031 47.265625 57.570312 47.285156 57.558594 47.300781 Z M 57.273438 47.304688 C 57.242188 47.332031 57.207031 47.332031 57.175781 47.300781 C 57.148438 47.269531 57.148438 47.234375 57.179688 47.203125 C 57.210938 47.175781 57.246094 47.175781 57.277344 47.207031 C 57.304688 47.238281 57.304688 47.273438 57.273438 47.304688 Z M 57.261719 47.675781 C 57.25 47.691406 57.226562 47.699219 57.214844 47.699219 C 57.1875 47.699219 57.144531 47.65625 57.144531 47.628906 C 57.144531 47.601562 57.1875 47.558594 57.214844 47.558594 C 57.242188 47.558594 57.289062 47.601562 57.289062 47.628906 C 57.289062 47.640625 57.277344 47.664062 57.261719 47.675781 Z M 56.976562 47.675781 C 56.964844 47.691406 56.945312 47.699219 56.933594 47.699219 C 56.90625 47.699219 56.859375 47.65625 56.859375 47.628906 C 56.859375 47.601562 56.90625 47.558594 56.933594 47.558594 C 56.960938 47.558594 57.003906 47.601562 57.003906 47.628906 C 57.003906 47.640625 56.992188 47.664062 56.976562 47.675781 Z M 56.976562 47.289062 C 56.964844 47.304688 56.945312 47.316406 56.933594 47.316406 C 56.921875 47.316406 56.898438 47.304688 56.886719 47.289062 C 56.871094 47.277344 56.859375 47.253906 56.859375 47.242188 C 56.859375 47.230469 56.871094 47.210938 56.886719 47.199219 C 56.898438 47.183594 56.921875 47.171875 56.933594 47.171875 C 56.960938 47.171875 57.003906 47.214844 57.003906 47.242188 C 57.003906 47.253906 56.992188 47.277344 56.976562 47.289062 Z M 56.695312 47.289062 C 56.679688 47.304688 56.660156 47.316406 56.648438 47.316406 C 56.621094 47.316406 56.578125 47.269531 56.578125 47.242188 C 56.578125 47.214844 56.621094 47.171875 56.648438 47.171875 C 56.675781 47.171875 56.71875 47.214844 56.71875 47.242188 C 56.71875 47.253906 56.707031 47.277344 56.695312 47.289062 Z M 56.683594 47.675781 C 56.671875 47.691406 56.648438 47.699219 56.636719 47.699219 C 56.625 47.699219 56.605469 47.691406 56.589844 47.675781 C 56.578125 47.664062 56.566406 47.640625 56.566406 47.628906 C 56.566406 47.617188 56.578125 47.597656 56.589844 47.582031 C 56.605469 47.570312 56.625 47.558594 56.636719 47.558594 C 56.648438 47.558594 56.671875 47.570312 56.683594 47.582031 C 56.699219 47.597656 56.707031 47.617188 56.707031 47.628906 C 56.707031 47.640625 56.699219 47.664062 56.683594 47.675781 Z M 57.214844 43.515625 C 56.65625 43.515625 56.648438 43.515625 56.648438 43.535156 C 56.648438 43.554688 56.65625 43.554688 57.214844 43.554688 C 57.777344 43.554688 57.785156 43.554688 57.785156 43.535156 C 57.785156 43.515625 57.777344 43.515625 57.214844 43.515625 Z M 57.214844 43.21875 C 56.65625 43.21875 56.648438 43.21875 56.648438 43.238281 C 56.648438 43.257812 56.65625 43.261719 57.214844 43.261719 C 57.777344 43.261719 57.785156 43.257812 57.785156 43.238281 C 57.785156 43.21875 57.777344 43.21875 57.214844 43.21875 Z M 57.222656 42.902344 C 56.675781 42.902344 56.667969 42.90625 56.667969 42.925781 C 56.667969 42.945312 56.675781 42.945312 57.222656 42.945312 C 57.769531 42.945312 57.773438 42.945312 57.773438 42.925781 C 57.773438 42.902344 57.769531 42.902344 57.222656 42.902344 Z M 57.222656 42.558594 C 56.683594 42.558594 56.679688 42.558594 56.679688 42.578125 C 56.679688 42.597656 56.683594 42.597656 57.222656 42.597656 C 57.757812 42.597656 57.765625 42.597656 57.765625 42.578125 C 57.765625 42.558594 57.757812 42.558594 57.222656 42.558594 Z M 57.222656 42.214844 C 56.695312 42.214844 56.6875 42.214844 56.6875 42.234375 C 56.6875 42.253906 56.695312 42.253906 57.222656 42.253906 C 57.746094 42.253906 57.753906 42.253906 57.753906 42.234375 C 57.753906 42.214844 57.746094 42.214844 57.222656 42.214844 Z M 57.222656 41.835938 C 56.707031 41.835938 56.699219 41.835938 56.699219 41.855469 C 56.699219 41.878906 56.707031 41.878906 57.222656 41.878906 C 57.738281 41.878906 57.746094 41.878906 57.746094 41.855469 C 57.746094 41.835938 57.738281 41.835938 57.222656 41.835938 Z M 57.726562 33.085938 C 57.695312 33.03125 57.628906 33.011719 57.566406 33.039062 C 57.480469 33.082031 57.480469 33.203125 57.5625 33.253906 C 57.667969 33.316406 57.789062 33.191406 57.726562 33.085938 Z M 57.222656 41.429688 C 56.714844 41.429688 56.707031 41.429688 56.707031 41.449219 C 56.707031 41.46875 56.714844 41.472656 57.222656 41.472656 C 57.726562 41.472656 57.734375 41.46875 57.734375 41.449219 C 57.734375 41.429688 57.726562 41.429688 57.222656 41.429688 Z M 57.222656 41.003906 C 56.726562 41.003906 56.71875 41.003906 56.71875 41.023438 C 56.71875 41.042969 56.726562 41.042969 57.222656 41.042969 C 57.71875 41.042969 57.722656 41.042969 57.722656 41.023438 C 57.722656 41.003906 57.71875 41.003906 57.222656 41.003906 Z M 57.214844 40.554688 C 56.726562 40.554688 56.71875 40.554688 56.71875 40.578125 C 56.71875 40.597656 56.726562 40.597656 57.214844 40.597656 C 57.707031 40.597656 57.714844 40.597656 57.714844 40.578125 C 57.714844 40.554688 57.707031 40.554688 57.214844 40.554688 Z M 57.222656 40.089844 C 56.746094 40.089844 56.738281 40.089844 56.738281 40.109375 C 56.738281 40.128906 56.746094 40.128906 57.222656 40.128906 C 57.695312 40.128906 57.703125 40.128906 57.703125 40.109375 C 57.703125 40.089844 57.695312 40.089844 57.222656 40.089844 Z M 57.222656 39.582031 C 56.757812 39.582031 56.75 39.582031 56.75 39.601562 C 56.75 39.621094 56.757812 39.621094 57.222656 39.621094 C 57.6875 39.621094 57.695312 39.621094 57.695312 39.601562 C 57.695312 39.582031 57.6875 39.582031 57.222656 39.582031 Z M 57.222656 39.050781 C 56.765625 39.050781 56.757812 39.050781 56.757812 39.074219 C 56.757812 39.09375 56.765625 39.09375 57.222656 39.09375 C 57.675781 39.09375 57.683594 39.09375 57.683594 39.074219 C 57.683594 39.050781 57.675781 39.050781 57.222656 39.050781 Z M 57.226562 38.492188 C 56.785156 38.492188 56.78125 38.492188 56.78125 38.511719 C 56.78125 38.535156 56.785156 38.535156 57.226562 38.535156 C 57.667969 38.535156 57.671875 38.535156 57.671875 38.511719 C 57.671875 38.492188 57.667969 38.492188 57.226562 38.492188 Z M 57.222656 37.894531 C 56.796875 37.894531 56.789062 37.894531 56.789062 37.914062 C 56.789062 37.933594 56.796875 37.933594 57.222656 37.933594 C 57.644531 37.933594 57.652344 37.933594 57.652344 37.914062 C 57.652344 37.894531 57.644531 37.894531 57.222656 37.894531 Z M 57.222656 37.261719 C 56.808594 37.261719 56.800781 37.261719 56.800781 37.285156 C 56.800781 37.304688 56.808594 37.304688 57.222656 37.304688 C 57.636719 37.304688 57.644531 37.304688 57.644531 37.285156 C 57.644531 37.261719 57.636719 37.261719 57.222656 37.261719 Z M 57.226562 36.601562 C 56.828125 36.601562 56.820312 36.601562 56.820312 36.621094 C 56.820312 36.644531 56.828125 36.644531 57.226562 36.644531 C 57.625 36.644531 57.632812 36.644531 57.632812 36.621094 C 57.632812 36.601562 57.625 36.601562 57.226562 36.601562 Z M 57.226562 35.890625 C 56.847656 35.890625 56.839844 35.890625 56.839844 35.910156 C 56.839844 35.929688 56.847656 35.933594 57.226562 35.933594 C 57.605469 35.933594 57.613281 35.929688 57.613281 35.910156 C 57.613281 35.890625 57.605469 35.890625 57.226562 35.890625 Z M 57.222656 35.148438 C 56.859375 35.148438 56.851562 35.148438 56.851562 35.167969 C 56.851562 35.191406 56.859375 35.191406 57.222656 35.191406 C 57.585938 35.191406 57.59375 35.191406 57.59375 35.167969 C 57.59375 35.148438 57.585938 35.148438 57.222656 35.148438 Z M 57.222656 34.367188 C 56.878906 34.367188 56.871094 34.367188 56.871094 34.386719 C 56.871094 34.40625 56.878906 34.40625 57.222656 34.40625 C 57.566406 34.40625 57.570312 34.40625 57.570312 34.386719 C 57.570312 34.367188 57.566406 34.367188 57.222656 34.367188 Z M 57.394531 31.339844 C 57.359375 31.28125 57.296875 31.261719 57.234375 31.292969 C 57.148438 31.332031 57.144531 31.457031 57.226562 31.503906 C 57.332031 31.566406 57.453125 31.445312 57.394531 31.339844 Z M 57.230469 32.03125 C 57.195312 31.972656 57.132812 31.953125 57.070312 31.984375 C 56.984375 32.023438 56.980469 32.144531 57.066406 32.195312 C 57.167969 32.257812 57.292969 32.132812 57.230469 32.03125 Z M 57.078125 32.742188 C 57.042969 32.683594 56.980469 32.664062 56.917969 32.695312 C 56.832031 32.734375 56.828125 32.859375 56.914062 32.90625 C 57.015625 32.96875 57.140625 32.847656 57.078125 32.742188 Z M 56.925781 33.441406 C 56.890625 33.386719 56.828125 33.367188 56.765625 33.394531 C 56.679688 33.4375 56.675781 33.558594 56.761719 33.609375 C 56.863281 33.671875 56.988281 33.546875 56.925781 33.441406 Z M 58.625 32.863281 C 58.621094 32.875 58.601562 32.902344 58.585938 32.917969 C 58.566406 32.941406 58.558594 32.960938 58.554688 32.996094 C 58.546875 33.0625 58.523438 33.09375 58.457031 33.125 C 58.378906 33.160156 58.339844 33.148438 58.25 33.054688 C 58.195312 33.003906 58.167969 32.980469 58.128906 32.96875 C 58.097656 32.960938 58.070312 32.949219 58.066406 32.941406 C 58.058594 32.9375 58.039062 32.933594 58.019531 32.933594 C 57.96875 32.933594 57.957031 32.921875 57.953125 32.878906 C 57.953125 32.839844 57.957031 32.835938 57.984375 32.828125 C 58 32.820312 58.042969 32.789062 58.078125 32.757812 C 58.125 32.710938 58.144531 32.683594 58.160156 32.640625 C 58.171875 32.609375 58.191406 32.570312 58.199219 32.554688 C 58.21875 32.519531 58.28125 32.488281 58.324219 32.488281 C 58.375 32.488281 58.445312 32.535156 58.472656 32.589844 C 58.492188 32.621094 58.511719 32.644531 58.542969 32.660156 C 58.570312 32.671875 58.597656 32.695312 58.609375 32.710938 C 58.632812 32.742188 58.640625 32.824219 58.625 32.863281 Z M 58.625 32.863281 " fill-opacity="1" fill-rule="nonzero"/></g></svg>