<svg xmlns="http://www.w3.org/2000/svg" xmlns:xlink="http://www.w3.org/1999/xlink" width="122" zoomAndPan="magnify" viewBox="0 0 91.5 91.499997" height="122" preserveAspectRatio="xMidYMid meet" version="1.0"><defs><g/><clipPath id="a796436e8a"><path d="M 30.917969 51.316406 L 60.007812 51.316406 L 60.007812 52 L 30.917969 52 Z M 30.917969 51.316406 " clip-rule="nonzero"/></clipPath><clipPath id="b0b52919e2"><path d="M 30.917969 51.316406 L 38 51.316406 L 38 52 L 30.917969 52 Z M 30.917969 51.316406 " clip-rule="nonzero"/></clipPath><clipPath id="4df2729d41"><path d="M 37 51.316406 L 39 51.316406 L 39 53 L 37 53 Z M 37 51.316406 " clip-rule="nonzero"/></clipPath><clipPath id="d965184d19"><path d="M 52 54 L 55 54 L 55 57.285156 L 52 57.285156 Z M 52 54 " clip-rule="nonzero"/></clipPath><clipPath id="e95d078ba1"><path d="M 37 54 L 40 54 L 40 57.285156 L 37 57.285156 Z M 37 54 " clip-rule="nonzero"/></clipPath><clipPath id="976b01dffc"><path d="M 58 55 L 60.007812 55 L 60.007812 57 L 58 57 Z M 58 55 " clip-rule="nonzero"/></clipPath><clipPath id="2e3e7641fe"><path d="M 59 56 L 60.007812 56 L 60.007812 57.285156 L 59 57.285156 Z M 59 56 " clip-rule="nonzero"/></clipPath><clipPath id="30cb8868f1"><path d="M 31 56 L 34 56 L 34 57.285156 L 31 57.285156 Z M 31 56 " clip-rule="nonzero"/></clipPath><clipPath id="16a6d6a17b"><path d="M 44 54 L 46 54 L 46 57.285156 L 44 57.285156 Z M 44 54 " clip-rule="nonzero"/></clipPath><clipPath id="9fe72b0758"><path d="M 46 54 L 48 54 L 48 57.285156 L 46 57.285156 Z M 46 54 " clip-rule="nonzero"/></clipPath><clipPath id="2393aed3b9"><path d="M 53.59375 28.710938 L 60 28.710938 L 60 50.34375 L 53.59375 50.34375 Z M 53.59375 28.710938 " clip-rule="nonzero"/></clipPath></defs><g fill="#8c52ff" fill-opacity="1"><g transform="translate(20.902028, 49.328884)"><g><path d="M 4.375 0 C 4.007812 0 3.675781 -0.125 3.375 -0.375 L 0.703125 -2.6875 C 0.492188 -2.863281 0.390625 -3.070312 0.390625 -3.3125 L 0.390625 -7.953125 L 1.984375 -7.953125 L 1.984375 -3.671875 L 4.375 -1.625 L 6.75 -3.671875 L 6.75 -7.953125 L 8.34375 -7.953125 L 8.34375 -3.3125 C 8.34375 -3.0625 8.242188 -2.851562 8.046875 -2.6875 L 5.359375 -0.375 C 5.066406 -0.125 4.738281 0 4.375 0 Z M 4.375 0 "/></g></g></g><g fill="#8c52ff" fill-opacity="1"><g transform="translate(32.107326, 49.328884)"><g><path d="M 8.34375 0 L 0.390625 0 L 0.390625 -1.59375 L 3.578125 -1.59375 L 3.578125 -6.359375 L 0.390625 -6.359375 L 0.390625 -7.953125 L 8.34375 -7.953125 L 8.34375 -6.359375 L 5.171875 -6.359375 L 5.171875 -1.59375 L 8.34375 -1.59375 Z M 8.34375 0 "/></g></g></g><g fill="#8c52ff" fill-opacity="1"><g transform="translate(43.312623, 49.328884)"><g><path d="M 8.34375 -6.359375 L 8.34375 -4.765625 C 8.34375 -4.546875 8.265625 -4.359375 8.109375 -4.203125 C 7.953125 -4.046875 7.765625 -3.96875 7.546875 -3.96875 C 7.765625 -3.96875 7.953125 -3.890625 8.109375 -3.734375 C 8.265625 -3.585938 8.34375 -3.40625 8.34375 -3.1875 L 8.34375 -1.59375 C 8.34375 -1.300781 8.269531 -1.035156 8.125 -0.796875 C 7.988281 -0.554688 7.800781 -0.363281 7.5625 -0.21875 C 7.320312 -0.0703125 7.050781 0 6.75 0 L 0.390625 0 L 0.390625 -7.953125 L 6.75 -7.953125 C 7.050781 -7.953125 7.320312 -7.878906 7.5625 -7.734375 C 7.800781 -7.585938 7.988281 -7.394531 8.125 -7.15625 C 8.269531 -6.914062 8.34375 -6.648438 8.34375 -6.359375 Z M 6.75 -6.359375 L 1.984375 -6.359375 L 1.984375 -4.765625 L 6.75 -4.765625 Z M 1.984375 -1.59375 L 6.75 -1.59375 L 6.75 -3.1875 L 1.984375 -3.1875 Z M 1.984375 -1.59375 "/></g></g></g><g fill="#8c52ff" fill-opacity="1"><g transform="translate(54.51792, 49.328884)"><g/></g></g><g fill="#8c52ff" fill-opacity="1"><g transform="translate(61.348849, 49.328884)"><g><path d="M 1.984375 0 L 0.390625 0 L 0.390625 -7.15625 C 0.390625 -7.375 0.46875 -7.5625 0.625 -7.71875 C 0.78125 -7.875 0.96875 -7.953125 1.1875 -7.953125 C 1.40625 -7.953125 1.597656 -7.875 1.765625 -7.71875 L 6.75 -2.71875 L 6.75 -7.953125 L 8.34375 -7.953125 L 8.34375 -0.796875 C 8.34375 -0.578125 8.265625 -0.390625 8.109375 -0.234375 C 7.953125 -0.078125 7.765625 0 7.546875 0 C 7.328125 0 7.140625 -0.078125 6.984375 -0.234375 L 1.984375 -5.234375 Z M 1.984375 0 "/></g></g></g><g clip-path="url(#a796436e8a)"><path fill="#ffffff" d="M 30.914062 51.667969 L 60.074219 51.667969 L 60.074219 51.898438 L 30.914062 51.898438 Z M 30.914062 51.667969 " fill-opacity="1" fill-rule="nonzero"/></g><g clip-path="url(#b0b52919e2)"><path fill="#8c52ff" d="M 30.914062 51.664062 L 37.804688 51.664062 L 37.804688 51.898438 L 30.914062 51.898438 Z M 30.914062 51.664062 " fill-opacity="1" fill-rule="nonzero"/></g><g clip-path="url(#4df2729d41)"><path fill="#8c52ff" d="M 38.261719 51.78125 C 38.261719 51.910156 38.214844 52.015625 38.128906 52.105469 C 38.039062 52.195312 37.929688 52.238281 37.804688 52.238281 C 37.675781 52.238281 37.570312 52.195312 37.480469 52.105469 C 37.390625 52.015625 37.34375 51.910156 37.34375 51.78125 C 37.34375 51.65625 37.390625 51.546875 37.480469 51.457031 C 37.570312 51.367188 37.675781 51.324219 37.804688 51.324219 C 37.929688 51.324219 38.039062 51.367188 38.128906 51.457031 C 38.214844 51.546875 38.261719 51.65625 38.261719 51.78125 Z M 38.261719 51.78125 " fill-opacity="1" fill-rule="nonzero"/></g><g clip-path="url(#d965184d19)"><path fill="#ffffff" d="M 53.890625 54.90625 C 53.847656 54.925781 53.820312 54.972656 53.820312 55.019531 L 53.820312 55.921875 L 52.550781 55.125 C 52.378906 55.019531 52.15625 55.140625 52.15625 55.34375 L 52.15625 56.777344 C 52.15625 56.980469 52.378906 57.101562 52.550781 56.996094 L 53.820312 56.199219 L 53.820312 57.101562 C 53.820312 57.148438 53.847656 57.195312 53.890625 57.214844 C 53.976562 57.25 54.0625 57.1875 54.0625 57.105469 L 54.0625 55.015625 C 54.0625 54.933594 53.976562 54.871094 53.890625 54.90625 Z M 53.890625 54.90625 " fill-opacity="1" fill-rule="nonzero"/></g><g clip-path="url(#e95d078ba1)"><path fill="#ffffff" d="M 38.164062 57.214844 C 38.210938 57.195312 38.234375 57.148438 38.234375 57.101562 L 38.234375 56.199219 L 39.503906 56.996094 C 39.675781 57.101562 39.898438 56.980469 39.898438 56.777344 L 39.898438 55.34375 C 39.898438 55.140625 39.675781 55.019531 39.503906 55.125 L 38.234375 55.921875 L 38.234375 55.019531 C 38.234375 54.972656 38.210938 54.925781 38.164062 54.90625 C 38.078125 54.871094 37.996094 54.933594 37.996094 55.015625 L 37.996094 57.105469 C 37.996094 57.1875 38.078125 57.25 38.164062 57.214844 Z M 38.164062 57.214844 " fill-opacity="1" fill-rule="nonzero"/></g><g clip-path="url(#976b01dffc)"><path fill="#ffffff" d="M 58.167969 56.761719 C 58.125 56.761719 58.09375 56.757812 58.089844 56.757812 C 58.039062 56.75 58.003906 56.707031 58.011719 56.65625 C 58.019531 56.605469 58.066406 56.570312 58.113281 56.578125 C 58.117188 56.578125 58.386719 56.609375 58.53125 56.441406 C 58.578125 56.386719 58.644531 56.300781 58.71875 56.195312 C 58.929688 55.914062 59.1875 55.558594 59.394531 55.480469 C 59.515625 55.433594 59.648438 55.425781 59.761719 55.433594 L 59.617188 55.25 C 59.601562 55.230469 59.597656 55.210938 59.597656 55.191406 C 59.597656 55.167969 59.609375 55.140625 59.632812 55.121094 C 59.671875 55.089844 59.726562 55.097656 59.757812 55.136719 L 60.050781 55.507812 C 60.0625 55.527344 60.070312 55.546875 60.070312 55.566406 C 60.070312 55.574219 60.066406 55.582031 60.066406 55.585938 C 60.0625 55.601562 60.054688 55.613281 60.046875 55.625 C 60.042969 55.628906 60.042969 55.628906 60.039062 55.632812 L 59.722656 55.933594 C 59.6875 55.96875 59.628906 55.96875 59.59375 55.929688 C 59.558594 55.894531 59.5625 55.835938 59.597656 55.804688 L 59.789062 55.621094 C 59.691406 55.609375 59.566406 55.609375 59.460938 55.648438 C 59.304688 55.710938 59.039062 56.066406 58.867188 56.304688 C 58.789062 56.410156 58.71875 56.5 58.667969 56.5625 C 58.515625 56.738281 58.289062 56.761719 58.167969 56.761719 Z M 58.167969 56.761719 " fill-opacity="1" fill-rule="nonzero"/></g><g clip-path="url(#2e3e7641fe)"><path fill="#ffffff" d="M 59.675781 57.019531 C 59.65625 57.019531 59.636719 57.011719 59.621094 57 C 59.597656 56.980469 59.585938 56.957031 59.585938 56.925781 C 59.585938 56.90625 59.589844 56.886719 59.605469 56.871094 L 59.75 56.6875 C 59.636719 56.695312 59.503906 56.6875 59.378906 56.640625 C 59.289062 56.605469 59.1875 56.519531 59.054688 56.371094 C 59.023438 56.332031 59.027344 56.277344 59.066406 56.242188 C 59.101562 56.207031 59.160156 56.210938 59.191406 56.25 C 59.328125 56.402344 59.40625 56.453125 59.445312 56.46875 C 59.554688 56.511719 59.679688 56.511719 59.777344 56.5 L 59.585938 56.316406 C 59.550781 56.28125 59.546875 56.226562 59.582031 56.1875 C 59.617188 56.152344 59.675781 56.152344 59.710938 56.1875 L 60.027344 56.488281 C 60.0625 56.523438 60.066406 56.574219 60.039062 56.609375 L 59.746094 56.984375 C 59.730469 57.007812 59.703125 57.019531 59.675781 57.019531 Z M 59.675781 57.019531 " fill-opacity="1" fill-rule="nonzero"/></g><path fill="#ffffff" d="M 58.726562 55.90625 C 58.699219 55.90625 58.671875 55.894531 58.652344 55.871094 C 58.617188 55.820312 58.59375 55.785156 58.574219 55.757812 C 58.554688 55.726562 58.539062 55.703125 58.519531 55.675781 C 58.371094 55.507812 58.105469 55.542969 58.101562 55.542969 C 58.050781 55.550781 58.007812 55.515625 58 55.464844 C 57.992188 55.414062 58.027344 55.371094 58.078125 55.363281 C 58.09375 55.363281 58.445312 55.316406 58.65625 55.558594 C 58.6875 55.59375 58.703125 55.625 58.726562 55.65625 C 58.746094 55.683594 58.765625 55.714844 58.796875 55.761719 C 58.828125 55.804688 58.820312 55.859375 58.78125 55.890625 C 58.761719 55.902344 58.746094 55.90625 58.726562 55.90625 Z M 58.726562 55.90625 " fill-opacity="1" fill-rule="nonzero"/><g clip-path="url(#30cb8868f1)"><path fill="#ffffff" d="M 33.488281 56.113281 C 33.480469 56.0625 33.4375 56.027344 33.390625 56.03125 C 33.339844 56.039062 33.304688 56.082031 33.3125 56.128906 C 33.332031 56.347656 33.261719 56.578125 33.09375 56.746094 C 32.796875 57.039062 32.316406 57.039062 32.023438 56.746094 L 31.957031 56.671875 L 32.183594 56.671875 C 32.230469 56.671875 32.269531 56.632812 32.269531 56.582031 C 32.269531 56.535156 32.230469 56.496094 32.183594 56.496094 L 31.765625 56.496094 C 31.738281 56.488281 31.707031 56.496094 31.683594 56.519531 C 31.683594 56.523438 31.683594 56.523438 31.679688 56.523438 C 31.664062 56.539062 31.65625 56.558594 31.65625 56.582031 L 31.65625 57.011719 C 31.65625 57.0625 31.695312 57.101562 31.742188 57.101562 C 31.789062 57.101562 31.828125 57.0625 31.828125 57.011719 L 31.828125 56.789062 L 31.898438 56.867188 C 32.273438 57.242188 32.882812 57.234375 33.246094 56.84375 C 33.433594 56.640625 33.511719 56.371094 33.488281 56.113281 Z M 33.488281 56.113281 " fill-opacity="1" fill-rule="nonzero"/></g><path fill="#ffffff" d="M 31.792969 56.289062 C 31.777344 56.078125 31.851562 55.863281 32.011719 55.703125 C 32.308594 55.410156 32.785156 55.410156 33.082031 55.703125 L 33.148438 55.777344 L 32.921875 55.777344 C 32.875 55.777344 32.835938 55.816406 32.835938 55.863281 C 32.835938 55.914062 32.875 55.953125 32.921875 55.953125 L 33.339844 55.953125 C 33.367188 55.957031 33.398438 55.953125 33.421875 55.929688 C 33.421875 55.929688 33.421875 55.929688 33.421875 55.925781 C 33.4375 55.910156 33.449219 55.886719 33.449219 55.863281 L 33.449219 55.433594 C 33.449219 55.386719 33.410156 55.347656 33.363281 55.347656 C 33.316406 55.347656 33.277344 55.386719 33.277344 55.433594 L 33.277344 55.660156 L 33.207031 55.578125 C 32.832031 55.207031 32.222656 55.214844 31.859375 55.605469 C 31.679688 55.800781 31.597656 56.050781 31.613281 56.296875 C 31.617188 56.347656 31.664062 56.386719 31.710938 56.382812 C 31.761719 56.375 31.796875 56.335938 31.792969 56.289062 Z M 31.792969 56.289062 " fill-opacity="1" fill-rule="nonzero"/><g clip-path="url(#16a6d6a17b)"><path fill="#ffffff" d="M 45.015625 57.332031 C 44.777344 57.332031 44.582031 57.136719 44.582031 56.898438 L 44.582031 55 C 44.582031 54.761719 44.777344 54.566406 45.015625 54.566406 C 45.257812 54.566406 45.449219 54.761719 45.449219 55 L 45.449219 56.898438 C 45.453125 57.136719 45.257812 57.332031 45.015625 57.332031 Z M 45.015625 57.332031 " fill-opacity="1" fill-rule="nonzero"/></g><g clip-path="url(#9fe72b0758)"><path fill="#ffffff" d="M 46.667969 57.332031 C 46.425781 57.332031 46.230469 57.136719 46.230469 56.898438 L 46.230469 55 C 46.230469 54.761719 46.425781 54.566406 46.667969 54.566406 C 46.90625 54.566406 47.101562 54.761719 47.101562 55 L 47.101562 56.898438 C 47.101562 57.136719 46.90625 57.332031 46.667969 57.332031 Z M 46.667969 57.332031 " fill-opacity="1" fill-rule="nonzero"/></g><g clip-path="url(#2393aed3b9)"><path fill="#8c52ff" d="M 59.914062 48.824219 C 59.890625 49.03125 59.839844 49.222656 59.769531 49.34375 C 59.683594 49.496094 59.480469 49.714844 59.351562 49.792969 C 59.25 49.855469 59.105469 49.90625 58.929688 49.949219 C 58.597656 50.027344 58.328125 50.054688 57.890625 50.042969 C 57.558594 50.035156 57.398438 50.023438 57.046875 49.984375 C 56.882812 49.964844 56.800781 49.960938 56.785156 49.96875 C 56.761719 49.980469 56.757812 50.015625 56.78125 50.035156 C 56.804688 50.054688 56.804688 50.085938 56.78125 50.105469 C 56.753906 50.128906 56.738281 50.132812 56.671875 50.121094 C 56.582031 50.109375 56.527344 50.042969 56.582031 50.011719 C 56.609375 50 56.613281 49.953125 56.59375 49.9375 C 56.585938 49.929688 56.480469 49.90625 56.359375 49.882812 C 55.488281 49.707031 55.003906 49.535156 54.574219 49.246094 C 54.257812 49.03125 54.070312 48.824219 53.855469 48.457031 C 53.675781 48.140625 53.597656 47.859375 53.597656 47.53125 C 53.59375 47.257812 53.660156 46.929688 53.765625 46.648438 C 53.820312 46.503906 54.132812 45.835938 54.230469 45.65625 C 54.371094 45.394531 54.53125 44.96875 54.582031 44.730469 C 54.609375 44.589844 54.625 44.390625 54.617188 44.234375 C 54.605469 44.007812 54.566406 43.84375 54.410156 43.351562 C 54.292969 42.980469 54.210938 42.585938 54.175781 42.265625 C 54.15625 42.054688 54.167969 41.707031 54.203125 41.519531 C 54.25 41.269531 54.304688 41.105469 54.398438 40.9375 C 54.496094 40.765625 54.617188 40.648438 54.753906 40.609375 C 54.828125 40.585938 54.84375 40.570312 54.832031 40.515625 C 54.816406 40.414062 54.816406 40.40625 54.863281 40.402344 C 54.882812 40.398438 54.925781 40.40625 54.957031 40.414062 C 55.027344 40.429688 55.039062 40.460938 54.992188 40.515625 C 54.957031 40.558594 54.953125 40.621094 54.988281 40.648438 C 55.09375 40.726562 55.152344 40.828125 55.183594 40.976562 C 55.195312 41.019531 55.21875 41.21875 55.242188 41.417969 C 55.285156 41.777344 55.300781 41.894531 55.332031 41.980469 C 55.382812 42.125 55.496094 42.285156 55.585938 42.347656 C 55.648438 42.386719 55.75 42.417969 55.824219 42.417969 C 55.886719 42.417969 55.984375 42.390625 56.035156 42.355469 L 56.074219 42.328125 L 56.273438 32.570312 C 56.230469 32.457031 56.101562 32.34375 55.949219 32.292969 C 55.855469 32.257812 55.824219 32.238281 55.800781 32.207031 C 55.761719 32.148438 55.761719 32.117188 55.804688 31.9375 C 55.84375 31.75 55.847656 31.703125 55.832031 31.691406 C 55.824219 31.6875 55.792969 31.695312 55.757812 31.703125 C 55.703125 31.71875 55.679688 31.734375 55.609375 31.800781 C 55.519531 31.886719 55.480469 31.902344 55.402344 31.882812 C 55.328125 31.863281 55.261719 31.769531 55.261719 31.691406 C 55.261719 31.671875 55.246094 31.644531 55.222656 31.617188 C 55.179688 31.570312 55.160156 31.496094 55.175781 31.441406 C 55.183594 31.398438 55.246094 31.335938 55.289062 31.320312 C 55.3125 31.3125 55.332031 31.296875 55.335938 31.285156 C 55.347656 31.242188 55.421875 31.171875 55.46875 31.160156 C 55.5625 31.136719 55.644531 31.183594 55.683594 31.28125 C 55.722656 31.386719 55.75 31.433594 55.800781 31.476562 C 55.859375 31.523438 55.882812 31.527344 55.898438 31.488281 C 55.917969 31.449219 56.011719 30.980469 56.011719 30.9375 C 56.011719 30.914062 56.007812 30.894531 55.996094 30.890625 C 55.988281 30.886719 55.945312 30.898438 55.902344 30.914062 C 55.835938 30.941406 55.8125 30.957031 55.769531 31.007812 C 55.703125 31.085938 55.636719 31.113281 55.574219 31.09375 C 55.492188 31.066406 55.433594 30.988281 55.433594 30.914062 C 55.433594 30.890625 55.421875 30.871094 55.402344 30.851562 C 55.351562 30.808594 55.324219 30.734375 55.335938 30.675781 C 55.34375 30.613281 55.394531 30.550781 55.445312 30.535156 C 55.472656 30.523438 55.488281 30.507812 55.507812 30.472656 C 55.550781 30.378906 55.644531 30.351562 55.746094 30.394531 C 55.804688 30.421875 55.835938 30.460938 55.863281 30.550781 C 55.886719 30.613281 55.898438 30.632812 55.957031 30.683594 C 56.027344 30.746094 56.054688 30.753906 56.070312 30.714844 C 56.082031 30.683594 56.195312 30.164062 56.195312 30.140625 C 56.195312 30.121094 56.152344 30.117188 56.089844 30.136719 C 56.058594 30.144531 56.019531 30.171875 55.96875 30.21875 C 55.875 30.308594 55.808594 30.34375 55.75 30.328125 C 55.667969 30.304688 55.613281 30.238281 55.597656 30.140625 C 55.589844 30.113281 55.578125 30.085938 55.5625 30.074219 C 55.546875 30.0625 55.527344 30.03125 55.519531 30.007812 C 55.484375 29.921875 55.519531 29.824219 55.609375 29.773438 C 55.636719 29.757812 55.664062 29.730469 55.671875 29.710938 C 55.71875 29.597656 55.886719 29.5625 55.96875 29.652344 C 55.988281 29.667969 56.015625 29.722656 56.03125 29.773438 C 56.058594 29.847656 56.070312 29.871094 56.105469 29.890625 C 56.125 29.90625 56.152344 29.921875 56.164062 29.933594 C 56.175781 29.945312 56.195312 29.953125 56.210938 29.953125 C 56.234375 29.953125 56.242188 29.945312 56.25 29.910156 C 56.277344 29.816406 56.367188 29.390625 56.367188 29.367188 C 56.367188 29.335938 56.34375 29.332031 56.269531 29.351562 C 56.210938 29.367188 56.191406 29.378906 56.128906 29.441406 C 56.035156 29.535156 55.984375 29.558594 55.917969 29.539062 C 55.847656 29.519531 55.792969 29.457031 55.773438 29.375 C 55.765625 29.339844 55.75 29.296875 55.734375 29.285156 C 55.699219 29.25 55.667969 29.164062 55.675781 29.125 C 55.6875 29.066406 55.726562 29.015625 55.777344 28.992188 C 55.8125 28.972656 55.832031 28.953125 55.855469 28.914062 C 55.90625 28.824219 55.992188 28.796875 56.089844 28.84375 C 56.148438 28.871094 56.179688 28.910156 56.203125 28.992188 C 56.21875 29.039062 56.238281 29.070312 56.289062 29.121094 C 56.347656 29.179688 56.359375 29.1875 56.390625 29.183594 C 56.425781 29.179688 56.433594 29.171875 56.46875 29.109375 C 56.492188 29.066406 56.542969 28.996094 56.585938 28.949219 C 56.753906 28.769531 56.992188 28.710938 57.167969 28.808594 C 57.296875 28.878906 57.441406 29.066406 57.457031 29.183594 C 57.460938 29.210938 57.472656 29.296875 57.480469 29.367188 C 57.496094 29.5 57.496094 29.625 57.472656 29.71875 C 57.460938 29.753906 57.460938 29.765625 57.480469 29.777344 C 57.492188 29.785156 57.496094 29.800781 57.492188 29.832031 C 57.480469 29.894531 57.453125 29.917969 57.378906 29.929688 C 57.300781 29.941406 57.25 29.964844 57.199219 30.015625 C 57.164062 30.054688 57.164062 30.058594 57.167969 30.132812 C 57.171875 30.207031 57.195312 30.277344 57.34375 30.636719 C 57.433594 30.859375 57.507812 31.0625 57.519531 31.128906 C 57.535156 31.214844 57.542969 31.242188 57.585938 31.40625 C 57.605469 31.476562 57.628906 31.585938 57.640625 31.648438 C 57.648438 31.710938 57.660156 31.792969 57.667969 31.828125 C 57.683594 31.945312 57.632812 32.023438 57.496094 32.097656 C 57.402344 32.144531 57.285156 32.242188 57.257812 32.296875 C 57.25 32.3125 57.230469 32.328125 57.21875 32.332031 C 57.195312 32.339844 57.164062 32.40625 57.164062 32.449219 C 57.175781 33.082031 57.378906 43.4375 57.378906 43.394531 C 57.371094 43.414062 57.371094 43.429688 57.378906 43.4375 C 57.386719 43.445312 57.402344 43.492188 57.414062 43.539062 C 57.460938 43.691406 57.511719 43.773438 57.605469 43.835938 C 57.734375 43.925781 57.988281 43.960938 58.132812 43.90625 C 58.257812 43.859375 58.382812 43.710938 58.453125 43.527344 C 58.472656 43.480469 58.515625 43.328125 58.550781 43.191406 C 58.621094 42.910156 58.65625 42.832031 58.734375 42.773438 C 58.84375 42.695312 58.964844 42.722656 59.101562 42.863281 C 59.292969 43.054688 59.378906 43.382812 59.363281 43.839844 C 59.347656 44.238281 59.277344 44.542969 59.058594 45.183594 C 58.886719 45.675781 58.875 45.722656 58.867188 45.890625 C 58.859375 46.121094 58.886719 46.265625 58.980469 46.480469 C 59.035156 46.597656 59.179688 46.855469 59.296875 47.042969 C 59.625 47.5625 59.769531 47.851562 59.847656 48.144531 C 59.910156 48.382812 59.933594 48.628906 59.914062 48.824219 Z M 59.359375 48.21875 C 59.273438 48.128906 59.136719 48.191406 59.136719 48.316406 C 59.136719 48.378906 59.199219 48.4375 59.261719 48.4375 C 59.324219 48.4375 59.351562 48.421875 59.378906 48.375 C 59.410156 48.328125 59.402344 48.261719 59.359375 48.21875 Z M 59.203125 43.574219 C 59.15625 43.269531 59.035156 43.023438 58.9375 43.023438 C 58.898438 43.023438 58.835938 43.0625 58.808594 43.101562 C 58.796875 43.121094 58.777344 43.179688 58.765625 43.238281 C 58.746094 43.351562 58.667969 43.597656 58.601562 43.746094 C 58.554688 43.855469 58.453125 44.007812 58.371094 44.089844 C 58.308594 44.15625 58.179688 44.21875 58.078125 44.238281 C 58.023438 44.246094 57.976562 44.246094 57.886719 44.238281 C 57.753906 44.222656 57.695312 44.199219 57.527344 44.101562 L 57.4375 44.050781 L 56.78125 44.050781 L 56.128906 44.054688 L 56.128906 43.8125 L 56.761719 43.8125 C 57.386719 43.8125 57.394531 43.8125 57.394531 43.789062 C 57.394531 43.765625 57.386719 43.765625 56.753906 43.765625 L 56.117188 43.765625 L 56.117188 43.515625 L 56.738281 43.515625 C 57.351562 43.515625 57.359375 43.515625 57.359375 43.492188 C 57.359375 43.46875 57.351562 43.46875 56.738281 43.46875 L 56.117188 43.46875 L 56.117188 43.277344 L 56.050781 43.226562 C 55.894531 43.101562 55.710938 43.09375 55.644531 43.210938 C 55.59375 43.292969 55.605469 43.359375 55.734375 43.777344 C 55.765625 43.886719 55.796875 43.996094 55.800781 44.015625 C 55.8125 44.0625 55.753906 44.460938 55.726562 44.554688 C 55.710938 44.59375 55.671875 44.707031 55.632812 44.804688 C 55.433594 45.320312 55.339844 45.621094 55.300781 45.835938 C 55.253906 46.089844 55.308594 46.339844 55.449219 46.535156 C 55.503906 46.617188 55.554688 46.664062 55.648438 46.722656 C 55.734375 46.777344 55.8125 46.800781 56.085938 46.84375 C 56.328125 46.882812 57.585938 47.066406 57.617188 47.066406 C 57.632812 47.066406 57.644531 47.050781 57.785156 46.8125 C 57.902344 46.613281 58 46.480469 58.042969 46.460938 C 58.070312 46.449219 58.375 46.398438 58.5625 46.371094 C 58.613281 46.363281 58.660156 46.351562 58.664062 46.347656 C 58.675781 46.339844 58.675781 46.285156 58.671875 46.183594 C 58.664062 45.886719 58.726562 45.628906 58.929688 45.113281 C 59.117188 44.644531 59.171875 44.402344 59.195312 43.957031 C 59.199219 43.839844 59.207031 43.738281 59.210938 43.734375 C 59.222656 43.726562 59.21875 43.691406 59.203125 43.574219 Z M 59.148438 43.957031 C 59.125 44.402344 59.074219 44.613281 58.882812 45.109375 C 58.679688 45.625 58.597656 45.980469 58.625 46.226562 C 58.628906 46.273438 58.632812 46.308594 58.632812 46.308594 C 58.628906 46.3125 58.542969 46.324219 58.4375 46.34375 C 58.058594 46.402344 58.019531 46.410156 57.972656 46.457031 C 57.917969 46.507812 57.792969 46.699219 57.683594 46.886719 C 57.609375 47.019531 57.605469 47.023438 57.570312 47.015625 C 57.550781 47.011719 57.25 46.96875 56.898438 46.917969 C 55.949219 46.78125 55.824219 46.757812 55.71875 46.707031 C 55.511719 46.605469 55.371094 46.386719 55.339844 46.117188 C 55.308594 45.882812 55.371094 45.628906 55.636719 44.929688 C 55.703125 44.753906 55.765625 44.582031 55.777344 44.550781 C 55.804688 44.46875 55.855469 44.066406 55.847656 44.019531 C 55.847656 43.996094 55.820312 43.902344 55.789062 43.808594 C 55.703125 43.519531 55.660156 43.359375 55.660156 43.320312 C 55.660156 43.269531 55.691406 43.210938 55.730469 43.191406 C 55.800781 43.152344 55.9375 43.1875 56.035156 43.269531 L 56.070312 43.300781 L 56.070312 43.578125 C 56.070312 43.730469 56.070312 43.898438 56.078125 43.953125 C 56.082031 44.023438 56.082031 44.050781 56.070312 44.050781 C 56.066406 44.050781 56.058594 44.0625 56.058594 44.074219 C 56.058594 44.085938 56.0625 44.097656 56.070312 44.097656 C 56.078125 44.097656 56.082031 44.140625 56.082031 44.207031 C 56.082031 44.269531 56.078125 44.316406 56.070312 44.316406 C 56.0625 44.316406 56.058594 44.324219 56.058594 44.339844 C 56.058594 44.351562 56.0625 44.359375 56.070312 44.359375 C 56.074219 44.359375 56.082031 44.375 56.082031 44.390625 C 56.085938 44.421875 56.09375 44.425781 56.1875 44.449219 C 56.53125 44.535156 56.910156 44.535156 57.238281 44.445312 C 57.296875 44.433594 57.355469 44.414062 57.375 44.40625 L 57.40625 44.394531 L 57.40625 44.089844 L 57.554688 44.171875 C 57.6875 44.246094 57.71875 44.257812 57.808594 44.273438 C 58.039062 44.316406 58.210938 44.28125 58.367188 44.160156 C 58.4375 44.101562 58.578125 43.90625 58.636719 43.789062 C 58.695312 43.660156 58.777344 43.410156 58.804688 43.269531 C 58.832031 43.152344 58.851562 43.109375 58.902344 43.082031 C 58.925781 43.070312 58.9375 43.066406 58.953125 43.078125 C 59.050781 43.140625 59.164062 43.464844 59.160156 43.6875 C 59.160156 43.742188 59.152344 43.859375 59.148438 43.957031 Z M 57.546875 45.773438 C 57.53125 45.753906 57.4375 45.753906 56.707031 45.753906 C 55.980469 45.753906 55.886719 45.753906 55.871094 45.773438 C 55.84375 45.796875 55.84375 46.050781 55.871094 46.078125 C 55.886719 46.09375 55.980469 46.097656 56.707031 46.097656 C 57.4375 46.097656 57.53125 46.09375 57.546875 46.078125 C 57.5625 46.0625 57.5625 46.03125 57.5625 45.925781 C 57.5625 45.816406 57.5625 45.785156 57.546875 45.773438 Z M 57.398438 45.976562 C 57.382812 45.992188 57.359375 46.003906 57.347656 46.003906 C 57.335938 46.003906 57.3125 45.992188 57.296875 45.976562 C 57.28125 45.960938 57.269531 45.9375 57.269531 45.925781 C 57.269531 45.910156 57.28125 45.886719 57.296875 45.875 C 57.3125 45.859375 57.335938 45.84375 57.347656 45.84375 C 57.378906 45.84375 57.425781 45.894531 57.425781 45.925781 C 57.425781 45.9375 57.414062 45.960938 57.398438 45.976562 Z M 57.078125 45.976562 C 57.066406 45.992188 57.042969 46.003906 57.027344 46.003906 C 57.015625 46.003906 56.992188 45.992188 56.976562 45.976562 C 56.960938 45.960938 56.949219 45.9375 56.949219 45.925781 C 56.949219 45.910156 56.960938 45.886719 56.976562 45.875 C 56.992188 45.859375 57.015625 45.84375 57.027344 45.84375 C 57.058594 45.84375 57.109375 45.894531 57.109375 45.925781 C 57.109375 45.9375 57.09375 45.960938 57.082031 45.976562 Z M 56.773438 45.976562 C 56.757812 45.992188 56.734375 46.003906 56.71875 46.003906 C 56.707031 46.003906 56.683594 45.992188 56.667969 45.976562 C 56.652344 45.960938 56.640625 45.9375 56.640625 45.925781 C 56.640625 45.910156 56.652344 45.886719 56.667969 45.875 C 56.683594 45.859375 56.707031 45.84375 56.71875 45.84375 C 56.75 45.84375 56.800781 45.894531 56.800781 45.925781 C 56.800781 45.9375 56.789062 45.960938 56.773438 45.976562 Z M 56.464844 45.976562 C 56.449219 45.992188 56.425781 46.003906 56.414062 46.003906 C 56.398438 46.003906 56.375 45.992188 56.359375 45.976562 C 56.34375 45.960938 56.332031 45.9375 56.332031 45.925781 C 56.332031 45.910156 56.34375 45.886719 56.359375 45.875 C 56.375 45.859375 56.398438 45.84375 56.414062 45.84375 C 56.441406 45.84375 56.492188 45.894531 56.492188 45.925781 C 56.492188 45.9375 56.480469 45.960938 56.464844 45.976562 Z M 56.144531 45.976562 C 56.128906 45.992188 56.105469 46.003906 56.09375 46.003906 C 56.0625 46.003906 56.011719 45.957031 56.011719 45.925781 C 56.011719 45.894531 56.0625 45.84375 56.09375 45.84375 C 56.125 45.84375 56.171875 45.894531 56.171875 45.925781 C 56.171875 45.9375 56.160156 45.960938 56.144531 45.976562 Z M 56.742188 44.316406 L 56.128906 44.316406 L 56.128906 44.097656 L 57.359375 44.097656 L 57.359375 44.316406 Z M 57.257812 44.394531 C 57.089844 44.441406 57 44.453125 56.78125 44.460938 C 56.550781 44.464844 56.386719 44.453125 56.214844 44.40625 C 56.042969 44.363281 56.089844 44.359375 56.738281 44.359375 C 57.074219 44.359375 57.347656 44.363281 57.347656 44.363281 C 57.347656 44.367188 57.308594 44.378906 57.257812 44.394531 Z M 58.980469 47.703125 C 58.953125 47.671875 58.9375 47.667969 58.898438 47.667969 C 58.859375 47.667969 58.84375 47.671875 58.816406 47.707031 C 58.785156 47.738281 58.78125 47.75 58.789062 47.789062 C 58.800781 47.886719 58.910156 47.925781 58.980469 47.855469 C 59.023438 47.808594 59.023438 47.753906 58.980469 47.703125 Z M 58.671875 47.160156 C 58.648438 47.113281 58.589844 47.078125 58.539062 47.078125 C 58.488281 47.078125 58.429688 47.113281 58.40625 47.160156 C 58.367188 47.234375 58.390625 47.324219 58.464844 47.367188 C 58.542969 47.40625 58.632812 47.378906 58.671875 47.304688 C 58.683594 47.285156 58.691406 47.25 58.691406 47.230469 C 58.691406 47.214844 58.683594 47.179688 58.671875 47.160156 Z M 58.375 46.625 C 58.347656 46.550781 58.265625 46.496094 58.1875 46.496094 C 58.015625 46.496094 57.925781 46.699219 58.039062 46.828125 C 58.160156 46.960938 58.382812 46.875 58.386719 46.699219 C 58.386719 46.675781 58.378906 46.644531 58.375 46.625 Z M 57.660156 47.140625 C 57.644531 47.125 57.542969 47.125 56.726562 47.125 C 55.90625 47.125 55.808594 47.125 55.792969 47.140625 C 55.777344 47.15625 55.773438 47.210938 55.773438 47.550781 C 55.773438 47.894531 55.777344 47.945312 55.792969 47.960938 C 55.808594 47.976562 55.90625 47.980469 56.726562 47.980469 C 57.542969 47.980469 57.644531 47.976562 57.660156 47.960938 C 57.675781 47.945312 57.679688 47.894531 57.679688 47.550781 C 57.679688 47.210938 57.675781 47.15625 57.660156 47.140625 Z M 57.421875 47.828125 C 57.40625 47.84375 57.382812 47.855469 57.371094 47.855469 C 57.339844 47.855469 57.289062 47.804688 57.289062 47.773438 C 57.289062 47.742188 57.339844 47.695312 57.371094 47.695312 C 57.402344 47.695312 57.449219 47.742188 57.449219 47.773438 C 57.449219 47.789062 57.4375 47.8125 57.421875 47.828125 Z M 57.421875 47.402344 C 57.40625 47.417969 57.382812 47.433594 57.371094 47.433594 C 57.355469 47.433594 57.332031 47.417969 57.320312 47.402344 C 57.304688 47.386719 57.289062 47.367188 57.289062 47.351562 C 57.289062 47.339844 57.304688 47.316406 57.320312 47.300781 C 57.332031 47.285156 57.355469 47.273438 57.371094 47.273438 C 57.402344 47.273438 57.449219 47.320312 57.449219 47.351562 C 57.449219 47.367188 57.4375 47.386719 57.421875 47.402344 Z M 57.101562 47.828125 C 57.085938 47.84375 57.0625 47.855469 57.050781 47.855469 C 57.019531 47.855469 56.972656 47.804688 56.972656 47.773438 C 56.972656 47.742188 57.019531 47.695312 57.050781 47.695312 C 57.082031 47.695312 57.128906 47.742188 57.128906 47.773438 C 57.128906 47.789062 57.117188 47.8125 57.101562 47.828125 Z M 57.101562 47.402344 C 57.085938 47.417969 57.0625 47.433594 57.050781 47.433594 C 57.039062 47.433594 57.015625 47.417969 57 47.402344 C 56.984375 47.386719 56.972656 47.367188 56.972656 47.351562 C 56.972656 47.339844 56.984375 47.316406 57 47.300781 C 57.015625 47.285156 57.039062 47.273438 57.050781 47.273438 C 57.082031 47.273438 57.128906 47.320312 57.128906 47.351562 C 57.128906 47.367188 57.117188 47.386719 57.101562 47.402344 Z M 56.785156 47.40625 C 56.75 47.441406 56.707031 47.4375 56.675781 47.40625 C 56.644531 47.371094 56.644531 47.328125 56.679688 47.296875 C 56.710938 47.265625 56.753906 47.265625 56.785156 47.296875 C 56.820312 47.332031 56.816406 47.375 56.785156 47.40625 Z M 56.773438 47.828125 C 56.757812 47.84375 56.734375 47.855469 56.71875 47.855469 C 56.691406 47.855469 56.640625 47.804688 56.640625 47.773438 C 56.640625 47.742188 56.691406 47.695312 56.71875 47.695312 C 56.75 47.695312 56.800781 47.742188 56.800781 47.773438 C 56.800781 47.789062 56.789062 47.8125 56.773438 47.828125 Z M 56.453125 47.828125 C 56.4375 47.84375 56.414062 47.855469 56.402344 47.855469 C 56.371094 47.855469 56.320312 47.804688 56.320312 47.773438 C 56.320312 47.742188 56.371094 47.695312 56.402344 47.695312 C 56.433594 47.695312 56.480469 47.742188 56.480469 47.773438 C 56.480469 47.789062 56.46875 47.8125 56.453125 47.828125 Z M 56.453125 47.394531 C 56.4375 47.40625 56.414062 47.421875 56.402344 47.421875 C 56.386719 47.421875 56.363281 47.40625 56.347656 47.394531 C 56.332031 47.378906 56.320312 47.355469 56.320312 47.339844 C 56.320312 47.328125 56.332031 47.304688 56.347656 47.289062 C 56.363281 47.273438 56.386719 47.261719 56.402344 47.261719 C 56.433594 47.261719 56.480469 47.308594 56.480469 47.339844 C 56.480469 47.355469 56.46875 47.378906 56.453125 47.394531 Z M 56.132812 47.394531 C 56.117188 47.40625 56.09375 47.421875 56.082031 47.421875 C 56.050781 47.421875 56 47.371094 56 47.339844 C 56 47.308594 56.050781 47.261719 56.082031 47.261719 C 56.113281 47.261719 56.160156 47.308594 56.160156 47.339844 C 56.160156 47.355469 56.148438 47.378906 56.132812 47.394531 Z M 56.121094 47.828125 C 56.105469 47.84375 56.082031 47.855469 56.070312 47.855469 C 56.058594 47.855469 56.035156 47.84375 56.019531 47.828125 C 56.003906 47.8125 55.992188 47.789062 55.992188 47.773438 C 55.992188 47.761719 56.003906 47.738281 56.019531 47.722656 C 56.035156 47.707031 56.058594 47.695312 56.070312 47.695312 C 56.082031 47.695312 56.105469 47.707031 56.121094 47.722656 C 56.136719 47.738281 56.148438 47.761719 56.148438 47.773438 C 56.148438 47.789062 56.136719 47.8125 56.121094 47.828125 Z M 56.71875 43.152344 C 56.089844 43.152344 56.082031 43.152344 56.082031 43.171875 C 56.082031 43.195312 56.089844 43.195312 56.71875 43.195312 C 57.351562 43.195312 57.359375 43.195312 57.359375 43.171875 C 57.359375 43.152344 57.351562 43.152344 56.71875 43.152344 Z M 56.71875 42.820312 C 56.089844 42.820312 56.082031 42.820312 56.082031 42.84375 C 56.082031 42.863281 56.089844 42.863281 56.71875 42.863281 C 57.351562 42.863281 57.359375 42.863281 57.359375 42.84375 C 57.359375 42.820312 57.351562 42.820312 56.71875 42.820312 Z M 56.726562 42.464844 C 56.113281 42.464844 56.105469 42.464844 56.105469 42.488281 C 56.105469 42.511719 56.113281 42.511719 56.726562 42.511719 C 57.339844 42.511719 57.347656 42.511719 57.347656 42.488281 C 57.347656 42.464844 57.339844 42.464844 56.726562 42.464844 Z M 56.726562 42.078125 C 56.125 42.078125 56.117188 42.078125 56.117188 42.101562 C 56.117188 42.121094 56.125 42.121094 56.726562 42.121094 C 57.328125 42.121094 57.335938 42.121094 57.335938 42.101562 C 57.335938 42.078125 57.328125 42.078125 56.726562 42.078125 Z M 56.726562 41.6875 C 56.136719 41.6875 56.128906 41.6875 56.128906 41.710938 C 56.128906 41.734375 56.136719 41.734375 56.726562 41.734375 C 57.316406 41.734375 57.324219 41.734375 57.324219 41.710938 C 57.324219 41.6875 57.316406 41.6875 56.726562 41.6875 Z M 56.726562 41.265625 C 56.144531 41.265625 56.136719 41.265625 56.136719 41.289062 C 56.136719 41.3125 56.144531 41.3125 56.726562 41.3125 C 57.304688 41.3125 57.3125 41.3125 57.3125 41.289062 C 57.3125 41.265625 57.304688 41.265625 56.726562 41.265625 Z M 57.292969 31.4375 C 57.257812 31.371094 57.183594 31.351562 57.113281 31.382812 C 57.019531 31.429688 57.015625 31.566406 57.109375 31.621094 C 57.226562 31.691406 57.363281 31.554688 57.292969 31.4375 Z M 56.726562 40.808594 C 56.15625 40.808594 56.148438 40.808594 56.148438 40.832031 C 56.148438 40.855469 56.15625 40.855469 56.726562 40.855469 C 57.292969 40.855469 57.300781 40.855469 57.300781 40.832031 C 57.300781 40.808594 57.292969 40.808594 56.726562 40.808594 Z M 56.726562 40.332031 C 56.167969 40.332031 56.160156 40.332031 56.160156 40.351562 C 56.160156 40.375 56.167969 40.375 56.726562 40.375 C 57.28125 40.375 57.289062 40.375 57.289062 40.351562 C 57.289062 40.332031 57.28125 40.332031 56.726562 40.332031 Z M 56.71875 39.828125 C 56.167969 39.828125 56.160156 39.828125 56.160156 39.851562 C 56.160156 39.875 56.167969 39.875 56.71875 39.875 C 57.269531 39.875 57.277344 39.875 57.277344 39.851562 C 57.277344 39.828125 57.269531 39.828125 56.71875 39.828125 Z M 56.726562 39.300781 C 56.191406 39.300781 56.183594 39.304688 56.183594 39.324219 C 56.183594 39.347656 56.191406 39.347656 56.726562 39.347656 C 57.261719 39.347656 57.269531 39.347656 57.269531 39.324219 C 57.269531 39.304688 57.261719 39.300781 56.726562 39.300781 Z M 56.726562 38.730469 C 56.203125 38.730469 56.195312 38.730469 56.195312 38.753906 C 56.195312 38.777344 56.203125 38.777344 56.726562 38.777344 C 57.25 38.777344 57.257812 38.777344 57.257812 38.753906 C 57.257812 38.730469 57.25 38.730469 56.726562 38.730469 Z M 56.726562 38.136719 C 56.214844 38.136719 56.207031 38.136719 56.207031 38.160156 C 56.207031 38.183594 56.214844 38.183594 56.726562 38.183594 C 57.238281 38.183594 57.246094 38.183594 57.246094 38.160156 C 57.246094 38.136719 57.238281 38.136719 56.726562 38.136719 Z M 56.730469 37.511719 C 56.238281 37.511719 56.230469 37.511719 56.230469 37.53125 C 56.230469 37.554688 56.238281 37.554688 56.730469 37.554688 C 57.226562 37.554688 57.234375 37.554688 57.234375 37.53125 C 57.234375 37.511719 57.226562 37.511719 56.730469 37.511719 Z M 56.726562 36.835938 C 56.25 36.835938 56.242188 36.835938 56.242188 36.859375 C 56.242188 36.882812 56.25 36.882812 56.726562 36.882812 C 57.203125 36.882812 57.210938 36.882812 57.210938 36.859375 C 57.210938 36.835938 57.203125 36.835938 56.726562 36.835938 Z M 56.726562 36.128906 C 56.261719 36.128906 56.253906 36.128906 56.253906 36.152344 C 56.253906 36.171875 56.261719 36.175781 56.726562 36.175781 C 57.191406 36.175781 57.199219 36.171875 57.199219 36.152344 C 57.199219 36.128906 57.191406 36.128906 56.726562 36.128906 Z M 56.730469 35.386719 C 56.28125 35.386719 56.277344 35.386719 56.277344 35.410156 C 56.277344 35.429688 56.28125 35.433594 56.730469 35.433594 C 57.179688 35.433594 57.1875 35.429688 57.1875 35.410156 C 57.1875 35.386719 57.179688 35.386719 56.730469 35.386719 Z M 56.730469 34.585938 C 56.304688 34.585938 56.296875 34.585938 56.296875 34.609375 C 56.296875 34.632812 56.304688 34.632812 56.730469 34.632812 C 57.15625 34.632812 57.164062 34.632812 57.164062 34.609375 C 57.164062 34.585938 57.15625 34.585938 56.730469 34.585938 Z M 56.726562 33.753906 C 56.316406 33.753906 56.308594 33.753906 56.308594 33.777344 C 56.308594 33.796875 56.316406 33.800781 56.726562 33.800781 C 57.132812 33.800781 57.140625 33.796875 57.140625 33.777344 C 57.140625 33.753906 57.132812 33.753906 56.726562 33.753906 Z M 56.726562 32.875 C 56.339844 32.875 56.332031 32.875 56.332031 32.898438 C 56.332031 32.917969 56.339844 32.921875 56.726562 32.921875 C 57.113281 32.921875 57.121094 32.917969 57.121094 32.898438 C 57.121094 32.875 57.113281 32.875 56.726562 32.875 Z M 56.917969 29.472656 C 56.878906 29.40625 56.808594 29.386719 56.738281 29.421875 C 56.644531 29.464844 56.640625 29.605469 56.730469 29.660156 C 56.851562 29.726562 56.988281 29.589844 56.917969 29.472656 Z M 56.734375 30.25 C 56.699219 30.183594 56.625 30.164062 56.554688 30.195312 C 56.460938 30.242188 56.457031 30.378906 56.550781 30.433594 C 56.667969 30.503906 56.804688 30.367188 56.734375 30.25 Z M 56.566406 31.046875 C 56.527344 30.984375 56.453125 30.964844 56.386719 30.996094 C 56.289062 31.042969 56.285156 31.179688 56.378906 31.234375 C 56.496094 31.304688 56.632812 31.164062 56.566406 31.046875 Z M 56.394531 31.835938 C 56.355469 31.773438 56.285156 31.75 56.214844 31.785156 C 56.117188 31.828125 56.113281 31.96875 56.207031 32.023438 C 56.324219 32.09375 56.464844 31.953125 56.394531 31.835938 Z M 58.304688 31.183594 C 58.296875 31.199219 58.277344 31.230469 58.261719 31.246094 C 58.238281 31.273438 58.226562 31.296875 58.222656 31.335938 C 58.214844 31.410156 58.1875 31.445312 58.113281 31.476562 C 58.027344 31.519531 57.984375 31.503906 57.878906 31.402344 C 57.820312 31.339844 57.789062 31.320312 57.742188 31.304688 C 57.710938 31.292969 57.679688 31.28125 57.671875 31.273438 C 57.667969 31.269531 57.644531 31.265625 57.621094 31.265625 C 57.566406 31.265625 57.554688 31.253906 57.550781 31.203125 C 57.546875 31.160156 57.550781 31.15625 57.582031 31.144531 C 57.601562 31.136719 57.648438 31.101562 57.6875 31.066406 C 57.738281 31.015625 57.761719 30.984375 57.78125 30.933594 C 57.792969 30.902344 57.8125 30.855469 57.824219 30.839844 C 57.847656 30.796875 57.914062 30.761719 57.964844 30.761719 C 58.023438 30.761719 58.101562 30.816406 58.132812 30.878906 C 58.152344 30.914062 58.175781 30.9375 58.210938 30.957031 C 58.242188 30.972656 58.273438 31 58.285156 31.015625 C 58.3125 31.050781 58.320312 31.144531 58.304688 31.183594 Z M 58.304688 31.183594 " fill-opacity="1" fill-rule="nonzero"/></g></svg>